{"glyphs":{"0":{"ha":878,"x_min":83,"x_max":794,"o":"m 439 -14 q 172 104 260 -14 q 83 426 83 222 q 165 786 83 664 q 439 908 246 908 q 713 786 632 908 q 794 426 794 664 q 706 104 794 222 q 439 -14 618 -14 m 439 21 q 680 132 603 21 q 757 426 757 243 q 685 761 757 649 q 439 874 613 874 q 193 762 265 874 q 121 426 121 650 q 198 132 121 243 q 439 21 275 21 z "},"1":{"ha":372,"x_min":83,"x_max":261,"o":"m 222 869 l 83 843 l 83 879 l 261 908 l 261 0 l 222 0 l 222 869 z "},"2":{"ha":683,"x_min":83,"x_max":600,"o":"m 83 33 q 176 188 113 118 q 343 350 239 258 q 467 469 424 421 q 532 566 511 518 q 553 674 553 614 q 494 819 553 764 q 321 874 436 874 q 119 839 215 874 l 119 875 q 211 899 157 890 q 315 908 265 908 q 519 847 447 908 q 590 674 590 786 q 565 551 590 606 q 499 452 540 497 q 379 338 457 407 l 351 313 q 207 172 260 231 q 125 35 154 113 l 600 35 l 600 0 l 83 0 l 83 33 z "},"3":{"ha":692,"x_min":83,"x_max":608,"o":"m 297 -14 q 178 -4 236 -14 q 83 19 119 6 l 83 56 q 297 21 182 21 q 503 74 436 21 q 571 238 571 128 q 506 388 571 338 q 324 438 442 438 l 207 438 l 214 472 l 313 472 q 490 526 431 472 q 550 681 550 581 q 490 825 550 776 q 304 874 429 874 q 100 839 200 874 l 100 875 q 191 899 133 889 q 303 908 249 908 q 519 849 450 908 q 588 681 588 789 q 544 538 588 601 q 413 457 500 475 q 560 379 513 439 q 608 238 608 319 q 528 50 608 114 q 297 -14 447 -14 z "},"4":{"ha":738,"x_min":56,"x_max":682,"o":"m 543 225 l 56 225 l 56 269 l 542 894 l 582 894 l 582 260 l 682 260 l 682 225 l 582 225 l 582 0 l 543 0 l 543 225 m 543 260 l 543 842 l 90 260 l 543 260 z "},"5":{"ha":696,"x_min":83,"x_max":613,"o":"m 303 -14 q 181 -5 239 -14 q 88 19 122 4 l 88 56 q 188 29 138 38 q 304 21 239 21 q 506 82 436 21 q 575 258 575 143 q 522 428 575 375 q 331 482 468 482 l 83 482 l 83 533 l 107 894 l 543 894 l 536 860 l 138 860 l 115 517 l 317 517 q 545 455 478 517 q 613 258 613 393 q 532 57 613 128 q 303 -14 451 -14 z "},"6":{"ha":768,"x_min":83,"x_max":685,"o":"m 385 -14 q 159 65 235 -14 q 83 317 83 143 l 83 546 q 123 738 83 656 q 237 864 163 819 q 410 908 311 908 q 603 883 518 908 l 603 847 q 410 874 526 874 q 197 784 271 874 q 122 550 122 694 l 122 458 q 256 527 183 504 q 390 550 328 550 q 610 478 536 550 q 685 269 685 407 q 606 62 685 138 q 385 -14 528 -14 m 383 21 q 580 88 513 21 q 647 269 647 154 q 587 452 647 389 q 386 515 526 515 q 249 490 319 515 q 122 422 178 464 l 122 289 q 383 21 122 21 z "},"7":{"ha":683,"x_min":69,"x_max":614,"o":"m 581 860 l 69 860 l 69 894 l 614 894 l 614 850 l 256 0 l 218 0 l 581 860 z "},"8":{"ha":786,"x_min":83,"x_max":703,"o":"m 393 -14 q 165 47 246 -14 q 83 225 83 108 q 134 378 83 315 q 282 463 185 442 q 151 540 193 485 q 110 671 110 596 q 183 844 110 781 q 393 908 257 908 q 603 845 531 908 q 676 671 676 782 q 493 446 676 496 q 653 371 603 425 q 703 225 703 317 q 622 47 703 108 q 393 -14 540 -14 m 435 461 q 591 534 543 486 q 639 671 639 582 q 576 821 639 768 q 393 874 513 874 q 210 821 274 874 q 147 671 147 768 q 315 485 147 518 l 435 461 m 393 21 q 597 72 528 21 q 665 225 665 124 q 619 355 665 313 q 465 419 572 397 l 332 446 q 176 374 231 426 q 121 225 121 321 q 190 73 121 125 q 393 21 258 21 z "},"9":{"ha":768,"x_min":83,"x_max":685,"o":"m 365 -14 q 165 11 243 -14 l 165 47 q 365 21 236 21 q 575 110 504 21 q 646 342 646 200 l 646 429 q 382 338 526 338 q 160 409 236 338 q 83 618 83 481 q 163 829 83 750 q 390 908 243 908 q 613 830 540 908 q 685 578 685 751 l 685 349 q 599 83 685 181 q 365 -14 514 -14 m 386 372 q 646 465 529 372 l 646 606 q 583 806 646 739 q 392 874 521 874 q 190 804 260 874 q 121 618 121 735 q 183 436 121 500 q 386 372 246 372 z "},"\r":{"ha":556,"x_min":0,"x_max":0,"o":""}," ":{"ha":556,"x_min":0,"x_max":0,"o":""},"A":{"ha":903,"x_min":83,"x_max":819,"o":"m 421 894 l 483 894 l 819 0 l 781 0 l 676 278 l 228 278 l 124 0 l 83 0 l 421 894 m 663 313 l 451 872 l 240 313 l 663 313 z "},"Á":{"ha":903,"x_min":83,"x_max":819,"o":"m 517 1163 l 558 1163 l 461 956 l 429 956 l 517 1163 m 421 894 l 483 894 l 819 0 l 781 0 l 676 278 l 228 278 l 124 0 l 83 0 l 421 894 m 663 313 l 451 872 l 240 313 l 663 313 z "},"Ă":{"ha":903,"x_min":83,"x_max":819,"o":"m 451 956 q 358 994 396 956 q 319 1088 319 1032 l 354 1088 q 382 1018 354 1046 q 451 990 410 990 q 522 1018 494 990 q 550 1088 550 1046 l 585 1088 q 546 994 585 1032 q 451 956 507 956 m 421 894 l 483 894 l 819 0 l 781 0 l 676 278 l 228 278 l 124 0 l 83 0 l 421 894 m 663 313 l 451 872 l 240 313 l 663 313 z "},"Ắ":{"ha":903,"x_min":83,"x_max":819,"o":"m 497 1235 l 538 1235 l 449 1083 l 418 1083 l 497 1235 m 451 956 q 322 997 374 956 q 271 1128 271 1039 l 306 1128 q 345 1024 306 1058 q 451 990 385 990 q 558 1024 518 990 q 597 1128 597 1058 l 632 1128 q 581 997 632 1039 q 451 956 529 956 m 421 894 l 483 894 l 819 0 l 781 0 l 676 278 l 228 278 l 124 0 l 83 0 l 421 894 m 663 313 l 451 872 l 240 313 l 663 313 z "},"Ặ":{"ha":903,"x_min":83,"x_max":819,"o":"m 451 956 q 358 994 396 956 q 319 1088 319 1032 l 354 1088 q 382 1018 354 1046 q 451 990 410 990 q 522 1018 494 990 q 550 1088 550 1046 l 585 1088 q 546 994 585 1032 q 451 956 507 956 m 421 894 l 483 894 l 819 0 l 781 0 l 676 278 l 228 278 l 124 0 l 83 0 l 421 894 m 663 313 l 451 872 l 240 313 l 663 313 m 426 -142 l 478 -142 l 478 -193 l 426 -193 l 426 -142 z "},"Ằ":{"ha":903,"x_min":83,"x_max":819,"o":"m 365 1235 l 406 1235 l 485 1083 l 454 1083 l 365 1235 m 451 956 q 322 997 374 956 q 271 1128 271 1039 l 306 1128 q 345 1024 306 1058 q 451 990 385 990 q 558 1024 518 990 q 597 1128 597 1058 l 632 1128 q 581 997 632 1039 q 451 956 529 956 m 421 894 l 483 894 l 819 0 l 781 0 l 676 278 l 228 278 l 124 0 l 83 0 l 421 894 m 663 313 l 451 872 l 240 313 l 663 313 z "},"Ẳ":{"ha":903,"x_min":83,"x_max":819,"o":"m 407 1132 q 501 1151 478 1136 q 525 1201 525 1167 q 447 1264 525 1264 q 364 1246 404 1264 l 364 1281 q 447 1297 401 1297 q 530 1272 500 1297 q 560 1201 560 1247 q 533 1134 560 1157 q 446 1106 506 1111 l 446 1054 l 407 1054 l 407 1132 m 451 956 q 322 997 374 956 q 271 1128 271 1039 l 306 1128 q 345 1024 306 1058 q 451 990 385 990 q 558 1024 518 990 q 597 1128 597 1058 l 632 1128 q 581 997 632 1039 q 451 956 529 956 m 421 894 l 483 894 l 819 0 l 781 0 l 676 278 l 228 278 l 124 0 l 83 0 l 421 894 m 663 313 l 451 872 l 240 313 l 663 313 z "},"Ẵ":{"ha":903,"x_min":83,"x_max":819,"o":"m 274 1221 q 371 1257 307 1257 q 410 1251 393 1257 q 453 1233 426 1246 q 524 1213 492 1213 q 579 1222 556 1213 q 625 1257 603 1232 l 625 1214 q 528 1178 592 1178 q 488 1183 506 1178 q 443 1201 469 1189 q 375 1222 401 1222 q 319 1213 343 1222 q 274 1178 296 1203 l 274 1221 m 451 956 q 322 997 374 956 q 271 1128 271 1039 l 306 1128 q 345 1024 306 1058 q 451 990 385 990 q 558 1024 518 990 q 597 1128 597 1058 l 632 1128 q 581 997 632 1039 q 451 956 529 956 m 421 894 l 483 894 l 819 0 l 781 0 l 676 278 l 228 278 l 124 0 l 83 0 l 421 894 m 663 313 l 451 872 l 240 313 l 663 313 z "},"Ǎ":{"ha":903,"x_min":83,"x_max":819,"o":"m 299 1125 l 339 1125 l 451 981 l 564 1125 l 604 1125 l 472 956 l 431 956 l 299 1125 m 421 894 l 483 894 l 819 0 l 781 0 l 676 278 l 228 278 l 124 0 l 83 0 l 421 894 m 663 313 l 451 872 l 240 313 l 663 313 z "},"Â":{"ha":903,"x_min":83,"x_max":819,"o":"m 431 1125 l 472 1125 l 604 956 l 564 956 l 451 1100 l 339 956 l 299 956 l 431 1125 m 421 894 l 483 894 l 819 0 l 781 0 l 676 278 l 228 278 l 124 0 l 83 0 l 421 894 m 663 313 l 451 872 l 240 313 l 663 313 z "},"Ấ":{"ha":903,"x_min":83,"x_max":819,"o":"m 610 1249 l 650 1249 l 561 1097 l 531 1097 l 610 1249 m 428 1097 l 469 1097 l 601 956 l 561 956 l 449 1075 l 336 956 l 296 956 l 428 1097 m 421 894 l 483 894 l 819 0 l 781 0 l 676 278 l 228 278 l 124 0 l 83 0 l 421 894 m 663 313 l 451 872 l 240 313 l 663 313 z "},"Ậ":{"ha":903,"x_min":83,"x_max":819,"o":"m 431 1125 l 472 1125 l 604 956 l 564 956 l 451 1100 l 339 956 l 299 956 l 431 1125 m 421 894 l 483 894 l 819 0 l 781 0 l 676 278 l 228 278 l 124 0 l 83 0 l 421 894 m 663 313 l 451 872 l 240 313 l 663 313 m 426 -142 l 478 -142 l 478 -193 l 426 -193 l 426 -142 z "},"Ầ":{"ha":903,"x_min":83,"x_max":819,"o":"m 253 1249 l 293 1249 l 372 1097 l 342 1097 l 253 1249 m 433 1097 l 475 1097 l 607 956 l 567 956 l 454 1075 l 342 956 l 301 956 l 433 1097 m 421 894 l 483 894 l 819 0 l 781 0 l 676 278 l 228 278 l 124 0 l 83 0 l 421 894 m 663 313 l 451 872 l 240 313 l 663 313 z "},"Ẩ":{"ha":903,"x_min":83,"x_max":819,"o":"m 546 1146 q 640 1165 617 1150 q 664 1215 664 1181 q 586 1278 664 1278 q 503 1260 543 1278 l 503 1294 q 586 1311 540 1311 q 669 1286 639 1311 q 699 1215 699 1261 q 672 1148 699 1171 q 585 1119 644 1125 l 585 1068 l 546 1068 l 546 1146 m 433 1097 l 475 1097 l 607 956 l 567 956 l 454 1075 l 342 956 l 301 956 l 433 1097 m 421 894 l 483 894 l 819 0 l 781 0 l 676 278 l 228 278 l 124 0 l 83 0 l 421 894 m 663 313 l 451 872 l 240 313 l 663 313 z "},"Ẫ":{"ha":903,"x_min":83,"x_max":819,"o":"m 279 1158 q 376 1194 313 1194 q 415 1189 399 1194 q 458 1171 432 1183 q 529 1150 497 1150 q 585 1160 561 1150 q 631 1194 608 1169 l 631 1151 q 533 1115 597 1115 q 493 1121 511 1115 q 449 1139 475 1126 q 381 1160 407 1160 q 325 1150 349 1160 q 279 1115 301 1140 l 279 1158 m 431 1097 l 472 1097 l 604 956 l 564 956 l 451 1075 l 339 956 l 299 956 l 431 1097 m 421 894 l 483 894 l 819 0 l 781 0 l 676 278 l 228 278 l 124 0 l 83 0 l 421 894 m 663 313 l 451 872 l 240 313 l 663 313 z "},"Ä":{"ha":903,"x_min":83,"x_max":819,"o":"m 318 1046 l 367 1046 l 367 997 l 318 997 l 318 1046 m 536 1046 l 585 1046 l 585 997 l 536 997 l 536 1046 m 421 894 l 483 894 l 819 0 l 781 0 l 676 278 l 228 278 l 124 0 l 83 0 l 421 894 m 663 313 l 451 872 l 240 313 l 663 313 z "},"Ạ":{"ha":903,"x_min":83,"x_max":819,"o":"m 421 894 l 483 894 l 819 0 l 781 0 l 676 278 l 228 278 l 124 0 l 83 0 l 421 894 m 663 313 l 451 872 l 240 313 l 663 313 m 426 -142 l 478 -142 l 478 -193 l 426 -193 l 426 -142 z "},"À":{"ha":903,"x_min":83,"x_max":819,"o":"m 338 1163 l 379 1163 l 467 956 l 435 956 l 338 1163 m 421 894 l 483 894 l 819 0 l 781 0 l 676 278 l 228 278 l 124 0 l 83 0 l 421 894 m 663 313 l 451 872 l 240 313 l 663 313 z "},"Ả":{"ha":903,"x_min":83,"x_max":819,"o":"m 431 1060 q 515 1074 486 1063 q 553 1103 543 1085 q 563 1153 563 1122 q 534 1215 563 1194 q 442 1236 506 1236 q 391 1231 418 1236 q 346 1219 364 1226 l 346 1254 q 391 1266 361 1261 q 443 1271 421 1271 q 558 1240 519 1271 q 597 1153 597 1210 q 569 1068 597 1097 q 469 1033 540 1039 l 469 956 l 431 956 l 431 1060 m 421 894 l 483 894 l 819 0 l 781 0 l 676 278 l 228 278 l 124 0 l 83 0 l 421 894 m 663 313 l 451 872 l 240 313 l 663 313 z "},"Ā":{"ha":903,"x_min":83,"x_max":819,"o":"m 267 1032 l 638 1032 l 638 997 l 267 997 l 267 1032 m 421 894 l 483 894 l 819 0 l 781 0 l 676 278 l 228 278 l 124 0 l 83 0 l 421 894 m 663 313 l 451 872 l 240 313 l 663 313 z "},"Ą":{"ha":903,"x_min":83,"x_max":860,"o":"m 790 -306 q 706 -278 738 -306 q 675 -187 675 -250 q 706 -81 675 -132 q 781 0 736 -29 l 676 278 l 228 278 l 124 0 l 83 0 l 421 894 l 483 894 l 819 0 q 739 -87 765 -39 q 713 -187 713 -136 q 731 -251 713 -231 q 790 -271 749 -271 q 828 -267 808 -271 q 860 -256 847 -262 l 860 -290 q 790 -306 833 -306 m 663 313 l 451 872 l 240 313 l 663 313 z "},"Å":{"ha":903,"x_min":83,"x_max":819,"o":"m 414 876 q 346 924 372 889 q 319 1004 319 958 q 358 1099 319 1060 q 451 1138 396 1138 q 547 1099 508 1138 q 585 1004 585 1061 q 558 924 585 958 q 489 876 531 889 l 819 0 l 781 0 l 676 278 l 228 278 l 124 0 l 83 0 l 414 876 m 451 907 q 522 935 494 907 q 550 1004 550 963 q 522 1075 550 1047 q 451 1103 494 1103 q 382 1075 410 1103 q 354 1004 354 1047 q 382 935 354 963 q 451 907 410 907 m 663 313 l 451 872 l 240 313 l 663 313 z "},"Ǻ":{"ha":903,"x_min":83,"x_max":819,"o":"m 517 1346 l 558 1346 l 461 1181 l 429 1181 l 517 1346 m 414 876 q 346 924 372 889 q 319 1004 319 958 q 358 1099 319 1060 q 451 1138 396 1138 q 547 1099 508 1138 q 585 1004 585 1061 q 558 924 585 958 q 489 876 531 889 l 819 0 l 781 0 l 676 278 l 228 278 l 124 0 l 83 0 l 414 876 m 451 907 q 522 935 494 907 q 550 1004 550 963 q 522 1075 550 1047 q 451 1103 494 1103 q 382 1075 410 1103 q 354 1004 354 1047 q 382 935 354 963 q 451 907 410 907 m 663 313 l 451 872 l 240 313 l 663 313 z "},"Ã":{"ha":903,"x_min":83,"x_max":819,"o":"m 543 997 q 501 1003 521 997 q 450 1024 482 1010 q 375 1047 400 1047 q 318 1037 343 1047 q 271 1000 293 1026 l 271 1043 q 313 1072 286 1061 q 371 1082 340 1082 q 412 1076 393 1082 q 461 1056 431 1069 q 502 1038 485 1044 q 539 1032 519 1032 q 593 1042 571 1032 q 633 1079 615 1053 l 633 1036 q 543 997 606 997 m 421 894 l 483 894 l 819 0 l 781 0 l 676 278 l 228 278 l 124 0 l 83 0 l 421 894 m 663 313 l 451 872 l 240 313 l 663 313 z "},"Æ":{"ha":1146,"x_min":83,"x_max":1063,"o":"m 421 894 l 1063 894 l 1063 858 l 611 858 l 611 465 l 1014 465 l 1014 429 l 611 429 l 611 35 l 1063 35 l 1063 0 l 572 0 l 572 278 l 228 278 l 124 0 l 83 0 l 421 894 m 572 313 l 572 858 l 447 858 l 242 313 l 572 313 z "},"Ǽ":{"ha":1146,"x_min":83,"x_max":1063,"o":"m 704 1163 l 746 1163 l 649 956 l 617 956 l 704 1163 m 421 894 l 1063 894 l 1063 858 l 611 858 l 611 465 l 1014 465 l 1014 429 l 611 429 l 611 35 l 1063 35 l 1063 0 l 572 0 l 572 278 l 228 278 l 124 0 l 83 0 l 421 894 m 572 313 l 572 858 l 447 858 l 242 313 l 572 313 z "},"B":{"ha":850,"x_min":111,"x_max":767,"o":"m 111 894 l 485 894 q 671 836 613 894 q 729 664 729 778 q 697 539 729 589 q 607 465 665 489 q 725 397 683 450 q 767 251 767 344 q 705 60 767 121 q 514 0 643 0 l 111 0 l 111 894 m 506 482 q 647 531 603 482 q 692 664 692 581 q 646 812 692 764 q 478 860 600 860 l 150 860 l 150 482 l 506 482 m 519 35 q 679 85 629 35 q 729 251 729 136 q 677 399 729 350 q 496 447 625 447 l 150 447 l 150 35 l 519 35 z "},"C":{"ha":811,"x_min":83,"x_max":728,"o":"m 476 -14 q 180 101 276 -14 q 83 418 83 217 q 175 779 83 650 q 476 908 267 908 q 728 869 619 908 l 728 833 q 481 874 615 874 q 202 755 283 874 q 121 418 121 636 q 485 21 121 21 q 611 30 546 21 q 728 56 676 39 l 728 19 q 476 -14 617 -14 z "},"Ć":{"ha":811,"x_min":83,"x_max":728,"o":"m 540 1163 l 582 1163 l 485 956 l 453 956 l 540 1163 m 476 -14 q 180 101 276 -14 q 83 418 83 217 q 175 779 83 650 q 476 908 267 908 q 728 869 619 908 l 728 833 q 481 874 615 874 q 202 755 283 874 q 121 418 121 636 q 485 21 121 21 q 611 30 546 21 q 728 56 676 39 l 728 19 q 476 -14 617 -14 z "},"Č":{"ha":811,"x_min":83,"x_max":728,"o":"m 350 1125 l 390 1125 l 503 981 l 615 1125 l 656 1125 l 524 956 l 482 956 l 350 1125 m 476 -14 q 180 101 276 -14 q 83 418 83 217 q 175 779 83 650 q 476 908 267 908 q 728 869 619 908 l 728 833 q 481 874 615 874 q 202 755 283 874 q 121 418 121 636 q 485 21 121 21 q 611 30 546 21 q 728 56 676 39 l 728 19 q 476 -14 617 -14 z "},"Ç":{"ha":811,"x_min":83,"x_max":728,"o":"m 450 -333 q 363 -322 404 -333 l 363 -287 q 451 -299 403 -299 q 564 -275 528 -299 q 600 -196 600 -251 q 567 -126 600 -147 q 463 -106 533 -106 l 424 -106 l 456 -14 q 175 107 267 -8 q 83 418 83 222 q 175 779 83 650 q 476 908 267 908 q 728 869 619 908 l 728 833 q 481 874 615 874 q 202 755 283 874 q 121 418 121 636 q 485 21 121 21 q 611 30 546 21 q 728 56 676 39 l 728 19 q 494 -14 622 -12 l 474 -74 q 595 -103 553 -74 q 638 -193 638 -133 q 593 -298 638 -262 q 450 -333 549 -333 z "},"Ĉ":{"ha":811,"x_min":83,"x_max":728,"o":"m 451 1125 l 493 1125 l 625 956 l 585 956 l 472 1100 l 360 956 l 319 956 l 451 1125 m 476 -14 q 180 101 276 -14 q 83 418 83 217 q 175 779 83 650 q 476 908 267 908 q 728 869 619 908 l 728 833 q 481 874 615 874 q 202 755 283 874 q 121 418 121 636 q 485 21 121 21 q 611 30 546 21 q 728 56 676 39 l 728 19 q 476 -14 617 -14 z "},"Ċ":{"ha":811,"x_min":83,"x_max":728,"o":"m 460 1046 l 508 1046 l 508 997 l 460 997 l 460 1046 m 476 -14 q 180 101 276 -14 q 83 418 83 217 q 175 779 83 650 q 476 908 267 908 q 728 869 619 908 l 728 833 q 481 874 615 874 q 202 755 283 874 q 121 418 121 636 q 485 21 121 21 q 611 30 546 21 q 728 56 676 39 l 728 19 q 476 -14 617 -14 z "},"D":{"ha":864,"x_min":111,"x_max":781,"o":"m 111 894 l 435 894 q 637 848 561 894 q 747 702 713 801 q 781 440 781 603 q 747 189 781 285 q 638 47 714 93 q 435 0 563 0 l 111 0 l 111 894 m 421 35 q 605 69 536 35 q 708 190 674 103 q 743 440 743 278 q 712 694 743 604 q 611 822 681 785 q 421 860 542 860 l 150 860 l 150 35 l 421 35 z "},"Ð":{"ha":935,"x_min":56,"x_max":851,"o":"m 182 424 l 56 424 l 56 458 l 182 458 l 182 894 l 506 894 q 708 848 632 894 q 817 702 783 801 q 851 440 851 603 q 818 189 851 285 q 709 47 785 93 q 506 0 633 0 l 182 0 l 182 424 m 492 35 q 676 69 607 35 q 779 190 744 103 q 814 440 814 278 q 783 694 814 604 q 682 822 751 785 q 492 858 613 858 l 221 858 l 221 458 l 496 458 l 496 424 l 221 424 l 221 35 l 492 35 z "},"Ď":{"ha":864,"x_min":111,"x_max":781,"o":"m 276 1186 l 317 1186 l 429 1042 l 542 1186 l 582 1186 l 450 1017 l 408 1017 l 276 1186 m 111 894 l 435 894 q 637 848 561 894 q 747 702 713 801 q 781 440 781 603 q 747 189 781 285 q 638 47 714 93 q 435 0 563 0 l 111 0 l 111 894 m 421 35 q 605 69 536 35 q 708 190 674 103 q 743 440 743 278 q 712 694 743 604 q 611 822 681 785 q 421 860 542 860 l 150 860 l 150 35 l 421 35 z "},"Đ":{"ha":921,"x_min":42,"x_max":838,"o":"m 168 424 l 42 424 l 42 458 l 168 458 l 168 894 l 492 894 q 694 848 618 894 q 803 702 769 801 q 838 440 838 603 q 804 189 838 285 q 695 47 771 93 q 492 0 619 0 l 168 0 l 168 424 m 478 35 q 662 69 593 35 q 765 190 731 103 q 800 440 800 278 q 769 694 800 604 q 668 822 738 785 q 478 858 599 858 l 207 858 l 207 458 l 482 458 l 482 424 l 207 424 l 207 35 l 478 35 z "},"Ḍ":{"ha":864,"x_min":111,"x_max":781,"o":"m 111 894 l 435 894 q 637 848 561 894 q 747 702 713 801 q 781 440 781 603 q 747 189 781 285 q 638 47 714 93 q 435 0 563 0 l 111 0 l 111 894 m 421 35 q 605 69 536 35 q 708 190 674 103 q 743 440 743 278 q 712 694 743 604 q 611 822 681 785 q 421 860 542 860 l 150 860 l 150 35 l 421 35 m 439 -142 l 490 -142 l 490 -193 l 439 -193 l 439 -142 z "},"Ḏ":{"ha":864,"x_min":111,"x_max":781,"o":"m 111 894 l 435 894 q 637 848 561 894 q 747 702 713 801 q 781 440 781 603 q 747 189 781 285 q 638 47 714 93 q 435 0 563 0 l 111 0 l 111 894 m 421 35 q 605 69 536 35 q 708 190 674 103 q 743 440 743 278 q 712 694 743 604 q 611 822 681 785 q 421 860 542 860 l 150 860 l 150 35 l 421 35 m 219 -106 l 590 -106 l 590 -140 l 219 -140 l 219 -106 z "},"E":{"ha":747,"x_min":111,"x_max":678,"o":"m 111 894 l 678 894 l 678 860 l 150 860 l 150 465 l 629 465 l 629 431 l 150 431 l 150 35 l 678 35 l 678 0 l 111 0 l 111 894 z "},"É":{"ha":747,"x_min":111,"x_max":678,"o":"m 472 1163 l 514 1163 l 417 956 l 385 956 l 472 1163 m 111 894 l 678 894 l 678 860 l 150 860 l 150 465 l 629 465 l 629 431 l 150 431 l 150 35 l 678 35 l 678 0 l 111 0 l 111 894 z "},"Ĕ":{"ha":747,"x_min":111,"x_max":678,"o":"m 413 956 q 319 994 357 956 q 281 1088 281 1032 l 315 1088 q 343 1018 315 1046 q 413 990 371 990 q 483 1018 456 990 q 511 1088 511 1046 l 546 1088 q 507 994 546 1032 q 413 956 468 956 m 111 894 l 678 894 l 678 860 l 150 860 l 150 465 l 629 465 l 629 431 l 150 431 l 150 35 l 678 35 l 678 0 l 111 0 l 111 894 z "},"Ě":{"ha":747,"x_min":111,"x_max":678,"o":"m 261 1125 l 301 1125 l 414 981 l 526 1125 l 567 1125 l 435 956 l 393 956 l 261 1125 m 111 894 l 678 894 l 678 860 l 150 860 l 150 465 l 629 465 l 629 431 l 150 431 l 150 35 l 678 35 l 678 0 l 111 0 l 111 894 z "},"Ê":{"ha":747,"x_min":111,"x_max":678,"o":"m 371 1125 l 413 1125 l 544 956 l 504 956 l 392 1100 l 279 956 l 239 956 l 371 1125 m 111 894 l 678 894 l 678 860 l 150 860 l 150 465 l 629 465 l 629 431 l 150 431 l 150 35 l 678 35 l 678 0 l 111 0 l 111 894 z "},"Ế":{"ha":747,"x_min":111,"x_max":678,"o":"m 553 1249 l 593 1249 l 504 1097 l 474 1097 l 553 1249 m 371 1097 l 413 1097 l 544 956 l 504 956 l 392 1075 l 279 956 l 239 956 l 371 1097 m 111 894 l 678 894 l 678 860 l 150 860 l 150 465 l 629 465 l 629 431 l 150 431 l 150 35 l 678 35 l 678 0 l 111 0 l 111 894 z "},"Ệ":{"ha":747,"x_min":111,"x_max":678,"o":"m 364 1125 l 406 1125 l 538 956 l 497 956 l 385 1100 l 272 956 l 232 956 l 364 1125 m 111 894 l 678 894 l 678 860 l 150 860 l 150 465 l 629 465 l 629 431 l 150 431 l 150 35 l 678 35 l 678 0 l 111 0 l 111 894 m 360 -142 l 411 -142 l 411 -193 l 360 -193 l 360 -142 z "},"Ề":{"ha":747,"x_min":111,"x_max":678,"o":"m 210 1249 l 250 1249 l 329 1097 l 299 1097 l 210 1249 m 390 1097 l 432 1097 l 564 956 l 524 956 l 411 1075 l 299 956 l 258 956 l 390 1097 m 111 894 l 678 894 l 678 860 l 150 860 l 150 465 l 629 465 l 629 431 l 150 431 l 150 35 l 678 35 l 678 0 l 111 0 l 111 894 z "},"Ể":{"ha":747,"x_min":111,"x_max":678,"o":"m 496 1146 q 590 1165 567 1150 q 614 1215 614 1181 q 536 1278 614 1278 q 453 1260 493 1278 l 453 1294 q 536 1311 490 1311 q 619 1286 589 1311 q 649 1215 649 1261 q 622 1148 649 1171 q 535 1119 594 1125 l 535 1068 l 496 1068 l 496 1146 m 383 1097 l 425 1097 l 557 956 l 517 956 l 404 1075 l 292 956 l 251 956 l 383 1097 m 111 894 l 678 894 l 678 860 l 150 860 l 150 465 l 629 465 l 629 431 l 150 431 l 150 35 l 678 35 l 678 0 l 111 0 l 111 894 z "},"Ễ":{"ha":747,"x_min":111,"x_max":678,"o":"m 235 1158 q 332 1194 268 1194 q 371 1189 354 1194 q 414 1171 388 1183 q 485 1150 453 1150 q 540 1160 517 1150 q 586 1194 564 1169 l 586 1151 q 489 1115 553 1115 q 449 1121 467 1115 q 404 1139 431 1126 q 336 1160 363 1160 q 281 1150 304 1160 q 235 1115 257 1140 l 235 1158 m 386 1097 l 428 1097 l 560 956 l 519 956 l 407 1075 l 294 956 l 254 956 l 386 1097 m 111 894 l 678 894 l 678 860 l 150 860 l 150 465 l 629 465 l 629 431 l 150 431 l 150 35 l 678 35 l 678 0 l 111 0 l 111 894 z "},"Ë":{"ha":747,"x_min":111,"x_max":678,"o":"m 268 1046 l 317 1046 l 317 997 l 268 997 l 268 1046 m 486 1046 l 535 1046 l 535 997 l 486 997 l 486 1046 m 111 894 l 678 894 l 678 860 l 150 860 l 150 465 l 629 465 l 629 431 l 150 431 l 150 35 l 678 35 l 678 0 l 111 0 l 111 894 z "},"Ė":{"ha":747,"x_min":111,"x_max":678,"o":"m 379 1046 l 428 1046 l 428 997 l 379 997 l 379 1046 m 111 894 l 678 894 l 678 860 l 150 860 l 150 465 l 629 465 l 629 431 l 150 431 l 150 35 l 678 35 l 678 0 l 111 0 l 111 894 z "},"Ẹ":{"ha":747,"x_min":111,"x_max":678,"o":"m 111 894 l 678 894 l 678 860 l 150 860 l 150 465 l 629 465 l 629 431 l 150 431 l 150 35 l 678 35 l 678 0 l 111 0 l 111 894 m 374 -142 l 425 -142 l 425 -193 l 374 -193 l 374 -142 z "},"È":{"ha":747,"x_min":111,"x_max":678,"o":"m 300 1163 l 342 1163 l 429 956 l 397 956 l 300 1163 m 111 894 l 678 894 l 678 860 l 150 860 l 150 465 l 629 465 l 629 431 l 150 431 l 150 35 l 678 35 l 678 0 l 111 0 l 111 894 z "},"Ẻ":{"ha":747,"x_min":111,"x_max":678,"o":"m 371 1060 q 455 1074 426 1063 q 493 1103 483 1085 q 503 1153 503 1122 q 474 1215 503 1194 q 382 1236 446 1236 q 331 1231 358 1236 q 286 1219 304 1226 l 286 1254 q 331 1266 301 1261 q 383 1271 361 1271 q 499 1240 460 1271 q 538 1153 538 1210 q 509 1068 538 1097 q 410 1033 481 1039 l 410 956 l 371 956 l 371 1060 m 111 894 l 678 894 l 678 860 l 150 860 l 150 465 l 629 465 l 629 431 l 150 431 l 150 35 l 678 35 l 678 0 l 111 0 l 111 894 z "},"Ē":{"ha":747,"x_min":111,"x_max":678,"o":"m 214 1032 l 585 1032 l 585 997 l 214 997 l 214 1032 m 111 894 l 678 894 l 678 860 l 150 860 l 150 465 l 629 465 l 629 431 l 150 431 l 150 35 l 678 35 l 678 0 l 111 0 l 111 894 z "},"Ę":{"ha":747,"x_min":111,"x_max":678,"o":"m 150 860 l 150 465 l 629 465 l 629 431 l 150 431 l 150 35 l 678 35 l 678 0 l 617 0 q 536 -87 563 -39 q 510 -187 510 -136 q 528 -251 510 -231 q 588 -271 546 -271 q 625 -267 606 -271 q 657 -256 644 -262 l 657 -290 q 588 -306 631 -306 q 503 -278 535 -306 q 472 -187 472 -250 q 503 -81 472 -132 q 578 0 533 -29 l 111 0 l 111 894 l 678 894 l 678 860 l 150 860 z "},"Ẽ":{"ha":747,"x_min":111,"x_max":678,"o":"m 489 997 q 447 1003 467 997 q 396 1024 428 1010 q 321 1047 346 1047 q 264 1037 289 1047 q 217 1000 239 1026 l 217 1043 q 259 1072 232 1061 q 317 1082 286 1082 q 358 1076 339 1082 q 407 1056 376 1069 q 448 1038 431 1044 q 485 1032 465 1032 q 539 1042 517 1032 q 579 1079 561 1053 l 579 1036 q 489 997 551 997 m 111 894 l 678 894 l 678 860 l 150 860 l 150 465 l 629 465 l 629 431 l 150 431 l 150 35 l 678 35 l 678 0 l 111 0 l 111 894 z "},"F":{"ha":708,"x_min":111,"x_max":653,"o":"m 111 894 l 653 894 l 653 860 l 150 860 l 150 465 l 603 465 l 603 431 l 150 431 l 150 0 l 111 0 l 111 894 z "},"G":{"ha":871,"x_min":83,"x_max":788,"o":"m 478 -14 q 181 101 278 -14 q 83 418 83 217 q 476 908 83 908 q 728 875 617 908 l 728 839 q 482 874 613 874 q 203 755 285 874 q 121 418 121 636 q 210 124 121 226 q 486 21 299 21 q 626 33 556 21 q 749 67 697 46 l 749 428 l 479 428 l 479 464 l 788 464 l 788 51 q 669 5 746 24 q 478 -14 593 -14 z "},"Ğ":{"ha":871,"x_min":83,"x_max":788,"o":"m 488 956 q 394 994 432 956 q 356 1088 356 1032 l 390 1088 q 418 1018 390 1046 q 488 990 446 990 q 558 1018 531 990 q 586 1088 586 1046 l 621 1088 q 582 994 621 1032 q 488 956 543 956 m 478 -14 q 181 101 278 -14 q 83 418 83 217 q 476 908 83 908 q 728 875 617 908 l 728 839 q 482 874 613 874 q 203 755 285 874 q 121 418 121 636 q 210 124 121 226 q 486 21 299 21 q 626 33 556 21 q 749 67 697 46 l 749 428 l 479 428 l 479 464 l 788 464 l 788 51 q 669 5 746 24 q 478 -14 593 -14 z "},"Ǧ":{"ha":871,"x_min":83,"x_max":788,"o":"m 339 1125 l 379 1125 l 492 981 l 604 1125 l 644 1125 l 513 956 l 471 956 l 339 1125 m 478 -14 q 181 101 278 -14 q 83 418 83 217 q 476 908 83 908 q 728 875 617 908 l 728 839 q 482 874 613 874 q 203 755 285 874 q 121 418 121 636 q 210 124 121 226 q 486 21 299 21 q 626 33 556 21 q 749 67 697 46 l 749 428 l 479 428 l 479 464 l 788 464 l 788 51 q 669 5 746 24 q 478 -14 593 -14 z "},"Ĝ":{"ha":871,"x_min":83,"x_max":788,"o":"m 468 1125 l 510 1125 l 642 956 l 601 956 l 489 1100 l 376 956 l 336 956 l 468 1125 m 478 -14 q 181 101 278 -14 q 83 418 83 217 q 476 908 83 908 q 728 875 617 908 l 728 839 q 482 874 613 874 q 203 755 285 874 q 121 418 121 636 q 210 124 121 226 q 486 21 299 21 q 626 33 556 21 q 749 67 697 46 l 749 428 l 479 428 l 479 464 l 788 464 l 788 51 q 669 5 746 24 q 478 -14 593 -14 z "},"Ģ":{"ha":871,"x_min":83,"x_max":788,"o":"m 478 -14 q 181 101 278 -14 q 83 418 83 217 q 476 908 83 908 q 728 875 617 908 l 728 839 q 482 874 613 874 q 203 755 285 874 q 121 418 121 636 q 210 124 121 226 q 486 21 299 21 q 626 33 556 21 q 749 67 697 46 l 749 428 l 479 428 l 479 464 l 788 464 l 788 51 q 669 5 746 24 q 478 -14 593 -14 m 475 -51 l 521 -51 l 472 -264 l 442 -264 l 475 -51 z "},"Ġ":{"ha":871,"x_min":83,"x_max":788,"o":"m 463 1046 l 511 1046 l 511 997 l 463 997 l 463 1046 m 478 -14 q 181 101 278 -14 q 83 418 83 217 q 476 908 83 908 q 728 875 617 908 l 728 839 q 482 874 613 874 q 203 755 285 874 q 121 418 121 636 q 210 124 121 226 q 486 21 299 21 q 626 33 556 21 q 749 67 697 46 l 749 428 l 479 428 l 479 464 l 788 464 l 788 51 q 669 5 746 24 q 478 -14 593 -14 z "},"Ḡ":{"ha":871,"x_min":83,"x_max":788,"o":"m 304 1032 l 675 1032 l 675 997 l 304 997 l 304 1032 m 478 -14 q 181 101 278 -14 q 83 418 83 217 q 476 908 83 908 q 728 875 617 908 l 728 839 q 482 874 613 874 q 203 755 285 874 q 121 418 121 636 q 210 124 121 226 q 486 21 299 21 q 626 33 556 21 q 749 67 697 46 l 749 428 l 479 428 l 479 464 l 788 464 l 788 51 q 669 5 746 24 q 478 -14 593 -14 z "},"H":{"ha":857,"x_min":111,"x_max":746,"o":"m 111 894 l 150 894 l 150 465 l 707 465 l 707 894 l 746 894 l 746 0 l 707 0 l 707 431 l 150 431 l 150 0 l 111 0 l 111 894 z "},"Ħ":{"ha":971,"x_min":56,"x_max":915,"o":"m 915 664 l 785 664 l 785 0 l 746 0 l 746 431 l 189 431 l 189 0 l 150 0 l 150 664 l 56 664 l 56 699 l 150 699 l 150 894 l 189 894 l 189 699 l 746 699 l 746 894 l 785 894 l 785 699 l 915 699 l 915 664 m 746 664 l 189 664 l 189 465 l 746 465 l 746 664 z "},"Ḫ":{"ha":857,"x_min":111,"x_max":746,"o":"m 111 894 l 150 894 l 150 465 l 707 465 l 707 894 l 746 894 l 746 0 l 707 0 l 707 431 l 150 431 l 150 0 l 111 0 l 111 894 m 428 -242 q 285 -197 343 -242 q 226 -56 226 -153 l 261 -56 q 307 -170 261 -133 q 428 -207 353 -207 q 549 -170 503 -207 q 594 -56 594 -133 l 629 -56 q 571 -197 629 -153 q 428 -242 513 -242 z "},"Ĥ":{"ha":857,"x_min":111,"x_max":746,"o":"m 407 1125 l 449 1125 l 581 956 l 540 956 l 428 1100 l 315 956 l 275 956 l 407 1125 m 111 894 l 150 894 l 150 465 l 707 465 l 707 894 l 746 894 l 746 0 l 707 0 l 707 431 l 150 431 l 150 0 l 111 0 l 111 894 z "},"Ḥ":{"ha":857,"x_min":111,"x_max":746,"o":"m 111 894 l 150 894 l 150 465 l 707 465 l 707 894 l 746 894 l 746 0 l 707 0 l 707 431 l 150 431 l 150 0 l 111 0 l 111 894 m 403 -142 l 454 -142 l 454 -193 l 403 -193 l 403 -142 z "},"I":{"ha":261,"x_min":111,"x_max":150,"o":"m 111 894 l 150 894 l 150 0 l 111 0 l 111 894 z "},"Ĳ":{"ha":801,"x_min":111,"x_max":697,"o":"m 111 894 l 150 894 l 150 0 l 111 0 l 111 894 m 461 -14 q 286 19 361 -14 l 286 56 q 363 31 318 40 q 456 22 408 22 q 612 67 565 22 q 658 213 658 113 l 658 894 l 697 894 l 697 213 q 640 42 697 99 q 461 -14 582 -14 z "},"Í":{"ha":261,"x_min":111,"x_max":250,"o":"m 208 1163 l 250 1163 l 153 956 l 121 956 l 208 1163 m 111 894 l 150 894 l 150 0 l 111 0 l 111 894 z "},"Ĭ":{"ha":261,"x_min":-1,"x_max":264,"o":"m 131 956 q 37 994 75 956 q -1 1088 -1 1032 l 33 1088 q 61 1018 33 1046 q 131 990 89 990 q 201 1018 174 990 q 229 1088 229 1046 l 264 1088 q 225 994 264 1032 q 131 956 186 956 m 111 894 l 150 894 l 150 0 l 111 0 l 111 894 z "},"Ǐ":{"ha":261,"x_min":-22,"x_max":283,"o":"m -22 1125 l 18 1125 l 131 981 l 243 1125 l 283 1125 l 151 956 l 110 956 l -22 1125 m 111 894 l 150 894 l 150 0 l 111 0 l 111 894 z "},"Î":{"ha":261,"x_min":-22,"x_max":283,"o":"m 110 1125 l 151 1125 l 283 956 l 243 956 l 131 1100 l 18 956 l -22 956 l 110 1125 m 111 894 l 150 894 l 150 0 l 111 0 l 111 894 z "},"Ï":{"ha":261,"x_min":-3,"x_max":264,"o":"m -3 1046 l 46 1046 l 46 997 l -3 997 l -3 1046 m 215 1046 l 264 1046 l 264 997 l 215 997 l 215 1046 m 111 894 l 150 894 l 150 0 l 111 0 l 111 894 z "},"İ":{"ha":261,"x_min":107,"x_max":156,"o":"m 107 1046 l 156 1046 l 156 997 l 107 997 l 107 1046 m 111 894 l 150 894 l 150 0 l 111 0 l 111 894 z "},"Ị":{"ha":261,"x_min":106,"x_max":157,"o":"m 111 894 l 150 894 l 150 0 l 111 0 l 111 894 m 106 -142 l 157 -142 l 157 -193 l 106 -193 l 106 -142 z "},"Ì":{"ha":261,"x_min":15,"x_max":150,"o":"m 15 1163 l 57 1163 l 144 956 l 113 956 l 15 1163 m 111 894 l 150 894 l 150 0 l 111 0 l 111 894 z "},"Ỉ":{"ha":261,"x_min":26,"x_max":278,"o":"m 111 1060 q 195 1074 167 1063 q 233 1103 224 1085 q 243 1153 243 1122 q 215 1215 243 1194 q 122 1236 186 1236 q 72 1231 99 1236 q 26 1219 44 1226 l 26 1254 q 72 1266 42 1261 q 124 1271 101 1271 q 239 1240 200 1271 q 278 1153 278 1210 q 249 1068 278 1097 q 150 1033 221 1039 l 150 956 l 111 956 l 111 1060 m 111 894 l 150 894 l 150 0 l 111 0 l 111 894 z "},"Ī":{"ha":261,"x_min":-54,"x_max":317,"o":"m -54 1032 l 317 1032 l 317 997 l -54 997 l -54 1032 m 111 894 l 150 894 l 150 0 l 111 0 l 111 894 z "},"Į":{"ha":261,"x_min":6,"x_max":190,"o":"m 121 -271 q 158 -267 139 -271 q 190 -256 178 -262 l 190 -290 q 121 -306 164 -306 q 37 -278 68 -306 q 6 -187 6 -250 q 36 -81 6 -132 q 111 0 67 -29 l 111 894 l 150 894 l 150 0 q 69 -87 96 -39 q 43 -187 43 -136 q 61 -251 43 -231 q 121 -271 79 -271 z "},"Ĩ":{"ha":261,"x_min":-50,"x_max":313,"o":"m 222 956 q 181 962 200 956 q 129 982 161 968 q 54 1006 79 1006 q -3 995 22 1006 q -50 958 -28 985 l -50 1001 q -8 1030 -35 1019 q 50 1040 19 1040 q 91 1034 72 1040 q 140 1014 110 1028 q 181 997 164 1003 q 218 990 199 990 q 272 1001 250 990 q 313 1038 294 1011 l 313 994 q 222 956 285 956 m 111 894 l 150 894 l 150 0 l 111 0 l 111 894 z "},"J":{"ha":571,"x_min":56,"x_max":467,"o":"m 231 -14 q 56 19 131 -14 l 56 56 q 133 31 88 40 q 225 22 178 22 q 381 67 335 22 q 428 213 428 113 l 428 894 l 467 894 l 467 213 q 409 42 467 99 q 231 -14 351 -14 z "},"Ĵ":{"ha":571,"x_min":56,"x_max":599,"o":"m 425 1125 l 467 1125 l 599 956 l 558 956 l 446 1100 l 333 956 l 293 956 l 425 1125 m 231 -14 q 56 19 131 -14 l 56 56 q 133 31 88 40 q 225 22 178 22 q 381 67 335 22 q 428 213 428 113 l 428 894 l 467 894 l 467 213 q 409 42 467 99 q 231 -14 351 -14 z "},"K":{"ha":782,"x_min":111,"x_max":699,"o":"m 111 894 l 150 894 l 150 388 l 642 894 l 694 894 l 351 540 l 699 0 l 654 0 l 324 514 l 150 335 l 150 0 l 111 0 l 111 894 z "},"Ķ":{"ha":782,"x_min":111,"x_max":699,"o":"m 111 894 l 150 894 l 150 388 l 642 894 l 694 894 l 351 540 l 699 0 l 654 0 l 324 514 l 150 335 l 150 0 l 111 0 l 111 894 m 360 -51 l 406 -51 l 357 -264 l 326 -264 l 360 -51 z "},"L":{"ha":719,"x_min":111,"x_max":664,"o":"m 111 894 l 150 894 l 150 35 l 664 35 l 664 0 l 111 0 l 111 894 z "},"Ĺ":{"ha":719,"x_min":111,"x_max":664,"o":"m 207 1163 l 249 1163 l 151 956 l 119 956 l 207 1163 m 111 894 l 150 894 l 150 35 l 664 35 l 664 0 l 111 0 l 111 894 z "},"Ľ":{"ha":719,"x_min":111,"x_max":664,"o":"m 425 1008 l 471 1008 l 422 796 l 392 796 l 425 1008 m 111 894 l 150 894 l 150 35 l 664 35 l 664 0 l 111 0 l 111 894 z "},"Ļ":{"ha":719,"x_min":111,"x_max":664,"o":"m 111 894 l 150 894 l 150 35 l 664 35 l 664 0 l 111 0 l 111 894 m 353 -51 l 399 -51 l 350 -264 l 319 -264 l 353 -51 z "},"Ŀ":{"ha":719,"x_min":111,"x_max":664,"o":"m 111 894 l 150 894 l 150 35 l 664 35 l 664 0 l 111 0 l 111 894 m 422 400 l 471 400 l 471 351 l 422 351 l 422 400 z "},"Ḷ":{"ha":719,"x_min":111,"x_max":664,"o":"m 111 894 l 150 894 l 150 35 l 664 35 l 664 0 l 111 0 l 111 894 m 356 -142 l 407 -142 l 407 -193 l 356 -193 l 356 -142 z "},"Ḹ":{"ha":758,"x_min":42,"x_max":703,"o":"m 42 1032 l 413 1032 l 413 997 l 42 997 l 42 1032 m 150 894 l 189 894 l 189 35 l 703 35 l 703 0 l 150 0 l 150 894 m 399 -142 l 450 -142 l 450 -193 l 399 -193 l 399 -142 z "},"Ḻ":{"ha":719,"x_min":111,"x_max":664,"o":"m 111 894 l 150 894 l 150 35 l 664 35 l 664 0 l 111 0 l 111 894 m 201 -106 l 572 -106 l 572 -140 l 201 -140 l 201 -106 z "},"Ł":{"ha":785,"x_min":42,"x_max":729,"o":"m 729 35 l 729 0 l 176 0 l 176 425 l 42 367 l 42 401 l 176 460 l 176 894 l 215 894 l 215 478 l 454 582 l 454 547 l 215 443 l 215 35 l 729 35 z "},"M":{"ha":1024,"x_min":111,"x_max":913,"o":"m 111 894 l 168 894 l 513 190 l 856 894 l 913 894 l 913 0 l 874 0 l 874 851 l 535 157 l 490 157 l 150 851 l 150 0 l 111 0 l 111 894 z "},"Ṃ":{"ha":1024,"x_min":111,"x_max":913,"o":"m 111 894 l 168 894 l 513 190 l 856 894 l 913 894 l 913 0 l 874 0 l 874 851 l 535 157 l 490 157 l 150 851 l 150 0 l 111 0 l 111 894 m 521 -142 l 572 -142 l 572 -193 l 521 -193 l 521 -142 z "},"N":{"ha":901,"x_min":111,"x_max":790,"o":"m 111 894 l 154 894 l 751 53 l 751 894 l 790 894 l 790 0 l 747 0 l 150 842 l 150 0 l 111 0 l 111 894 z "},"Ń":{"ha":901,"x_min":111,"x_max":790,"o":"m 538 1163 l 579 1163 l 482 956 l 450 956 l 538 1163 m 111 894 l 154 894 l 751 53 l 751 894 l 790 894 l 790 0 l 747 0 l 150 842 l 150 0 l 111 0 l 111 894 z "},"Ň":{"ha":901,"x_min":111,"x_max":790,"o":"m 340 1125 l 381 1125 l 493 981 l 606 1125 l 646 1125 l 514 956 l 472 956 l 340 1125 m 111 894 l 154 894 l 751 53 l 751 894 l 790 894 l 790 0 l 747 0 l 150 842 l 150 0 l 111 0 l 111 894 z "},"Ņ":{"ha":901,"x_min":111,"x_max":790,"o":"m 111 894 l 154 894 l 751 53 l 751 894 l 790 894 l 790 0 l 747 0 l 150 842 l 150 0 l 111 0 l 111 894 m 424 -51 l 469 -51 l 421 -264 l 390 -264 l 424 -51 z "},"Ṅ":{"ha":901,"x_min":111,"x_max":790,"o":"m 451 1046 l 500 1046 l 500 997 l 451 997 l 451 1046 m 111 894 l 154 894 l 751 53 l 751 894 l 790 894 l 790 0 l 747 0 l 150 842 l 150 0 l 111 0 l 111 894 z "},"Ṇ":{"ha":901,"x_min":111,"x_max":790,"o":"m 111 894 l 154 894 l 751 53 l 751 894 l 790 894 l 790 0 l 747 0 l 150 842 l 150 0 l 111 0 l 111 894 m 421 -142 l 472 -142 l 472 -193 l 421 -193 l 421 -142 z "},"Ŋ":{"ha":901,"x_min":111,"x_max":790,"o":"m 617 -325 q 519 -311 564 -325 l 519 -275 q 604 -290 564 -290 q 717 -256 682 -290 q 751 -153 751 -221 l 751 -6 l 150 842 l 150 0 l 111 0 l 111 894 l 154 894 l 751 53 l 751 894 l 790 894 l 790 -153 q 744 -279 790 -233 q 617 -325 697 -325 z "},"Ṉ":{"ha":901,"x_min":111,"x_max":790,"o":"m 111 894 l 154 894 l 751 53 l 751 894 l 790 894 l 790 0 l 747 0 l 150 842 l 150 0 l 111 0 l 111 894 m 276 -106 l 647 -106 l 647 -140 l 276 -140 l 276 -106 z "},"Ñ":{"ha":901,"x_min":111,"x_max":790,"o":"m 556 997 q 514 1003 533 997 q 463 1024 494 1010 q 388 1047 413 1047 q 331 1037 356 1047 q 283 1000 306 1026 l 283 1043 q 326 1072 299 1061 q 383 1082 353 1082 q 424 1076 406 1082 q 474 1056 443 1069 q 515 1038 497 1044 q 551 1032 532 1032 q 606 1042 583 1032 q 646 1079 628 1053 l 646 1036 q 556 997 618 997 m 111 894 l 154 894 l 751 53 l 751 894 l 790 894 l 790 0 l 747 0 l 150 842 l 150 0 l 111 0 l 111 894 z "},"O":{"ha":947,"x_min":83,"x_max":864,"o":"m 474 -14 q 179 105 275 -14 q 83 439 83 224 q 177 794 83 681 q 474 908 271 908 q 770 794 676 908 q 864 439 864 681 q 767 106 864 225 q 474 -14 671 -14 m 474 21 q 738 127 650 21 q 826 439 826 233 q 788 692 826 597 q 672 831 749 788 q 474 874 594 874 q 274 831 351 874 q 159 692 197 788 q 121 439 121 597 q 209 127 121 233 q 474 21 297 21 z "},"Ó":{"ha":947,"x_min":83,"x_max":864,"o":"m 551 1163 l 593 1163 l 496 956 l 464 956 l 551 1163 m 474 -14 q 179 105 275 -14 q 83 439 83 224 q 177 794 83 681 q 474 908 271 908 q 770 794 676 908 q 864 439 864 681 q 767 106 864 225 q 474 -14 671 -14 m 474 21 q 738 127 650 21 q 826 439 826 233 q 788 692 826 597 q 672 831 749 788 q 474 874 594 874 q 274 831 351 874 q 159 692 197 788 q 121 439 121 597 q 209 127 121 233 q 474 21 297 21 z "},"Ŏ":{"ha":947,"x_min":83,"x_max":864,"o":"m 474 956 q 380 994 418 956 q 342 1088 342 1032 l 376 1088 q 404 1018 376 1046 q 474 990 432 990 q 544 1018 517 990 q 572 1088 572 1046 l 607 1088 q 568 994 607 1032 q 474 956 529 956 m 474 -14 q 179 105 275 -14 q 83 439 83 224 q 177 794 83 681 q 474 908 271 908 q 770 794 676 908 q 864 439 864 681 q 767 106 864 225 q 474 -14 671 -14 m 474 21 q 738 127 650 21 q 826 439 826 233 q 788 692 826 597 q 672 831 749 788 q 474 874 594 874 q 274 831 351 874 q 159 692 197 788 q 121 439 121 597 q 209 127 121 233 q 474 21 297 21 z "},"Ǒ":{"ha":947,"x_min":83,"x_max":864,"o":"m 321 1125 l 361 1125 l 474 981 l 586 1125 l 626 1125 l 494 956 l 453 956 l 321 1125 m 474 -14 q 179 105 275 -14 q 83 439 83 224 q 177 794 83 681 q 474 908 271 908 q 770 794 676 908 q 864 439 864 681 q 767 106 864 225 q 474 -14 671 -14 m 474 21 q 738 127 650 21 q 826 439 826 233 q 788 692 826 597 q 672 831 749 788 q 474 874 594 874 q 274 831 351 874 q 159 692 197 788 q 121 439 121 597 q 209 127 121 233 q 474 21 297 21 z "},"Ô":{"ha":947,"x_min":83,"x_max":864,"o":"m 453 1125 l 494 1125 l 626 956 l 586 956 l 474 1100 l 361 956 l 321 956 l 453 1125 m 474 -14 q 179 105 275 -14 q 83 439 83 224 q 177 794 83 681 q 474 908 271 908 q 770 794 676 908 q 864 439 864 681 q 767 106 864 225 q 474 -14 671 -14 m 474 21 q 738 127 650 21 q 826 439 826 233 q 788 692 826 597 q 672 831 749 788 q 474 874 594 874 q 274 831 351 874 q 159 692 197 788 q 121 439 121 597 q 209 127 121 233 q 474 21 297 21 z "},"Ố":{"ha":947,"x_min":83,"x_max":864,"o":"m 643 1249 l 683 1249 l 594 1097 l 564 1097 l 643 1249 m 461 1097 l 503 1097 l 635 956 l 594 956 l 482 1075 l 369 956 l 329 956 l 461 1097 m 474 -14 q 179 105 275 -14 q 83 439 83 224 q 177 794 83 681 q 474 908 271 908 q 770 794 676 908 q 864 439 864 681 q 767 106 864 225 q 474 -14 671 -14 m 474 21 q 738 127 650 21 q 826 439 826 233 q 788 692 826 597 q 672 831 749 788 q 474 874 594 874 q 274 831 351 874 q 159 692 197 788 q 121 439 121 597 q 209 127 121 233 q 474 21 297 21 z "},"Ộ":{"ha":947,"x_min":83,"x_max":864,"o":"m 453 1153 l 494 1153 l 626 983 l 586 983 l 474 1128 l 361 983 l 321 983 l 453 1153 m 474 -14 q 179 105 275 -14 q 83 439 83 224 q 177 794 83 681 q 474 908 271 908 q 770 794 676 908 q 864 439 864 681 q 767 106 864 225 q 474 -14 671 -14 m 474 21 q 738 127 650 21 q 826 439 826 233 q 788 692 826 597 q 672 831 749 788 q 474 874 594 874 q 274 831 351 874 q 159 692 197 788 q 121 439 121 597 q 209 127 121 233 q 474 21 297 21 m 449 -142 l 500 -142 l 500 -193 l 449 -193 l 449 -142 z "},"Ồ":{"ha":947,"x_min":83,"x_max":864,"o":"m 276 1249 l 317 1249 l 396 1097 l 365 1097 l 276 1249 m 457 1097 l 499 1097 l 631 956 l 590 956 l 478 1075 l 365 956 l 325 956 l 457 1097 m 474 -14 q 179 105 275 -14 q 83 439 83 224 q 177 794 83 681 q 474 908 271 908 q 770 794 676 908 q 864 439 864 681 q 767 106 864 225 q 474 -14 671 -14 m 474 21 q 738 127 650 21 q 826 439 826 233 q 788 692 826 597 q 672 831 749 788 q 474 874 594 874 q 274 831 351 874 q 159 692 197 788 q 121 439 121 597 q 209 127 121 233 q 474 21 297 21 z "},"Ổ":{"ha":947,"x_min":83,"x_max":864,"o":"m 568 1146 q 663 1165 639 1150 q 686 1215 686 1181 q 608 1278 686 1278 q 525 1260 565 1278 l 525 1294 q 608 1311 563 1311 q 691 1286 661 1311 q 721 1215 721 1261 q 694 1148 721 1171 q 607 1119 667 1125 l 607 1068 l 568 1068 l 568 1146 m 456 1097 l 497 1097 l 629 956 l 589 956 l 476 1075 l 364 956 l 324 956 l 456 1097 m 474 -14 q 179 105 275 -14 q 83 439 83 224 q 177 794 83 681 q 474 908 271 908 q 770 794 676 908 q 864 439 864 681 q 767 106 864 225 q 474 -14 671 -14 m 474 21 q 738 127 650 21 q 826 439 826 233 q 788 692 826 597 q 672 831 749 788 q 474 874 594 874 q 274 831 351 874 q 159 692 197 788 q 121 439 121 597 q 209 127 121 233 q 474 21 297 21 z "},"Ỗ":{"ha":947,"x_min":83,"x_max":864,"o":"m 296 1221 q 393 1257 329 1257 q 432 1251 415 1257 q 475 1233 449 1246 q 546 1213 514 1213 q 601 1222 578 1213 q 647 1257 625 1232 l 647 1214 q 550 1178 614 1178 q 510 1183 528 1178 q 465 1201 492 1189 q 397 1222 424 1222 q 342 1213 365 1222 q 296 1178 318 1203 l 296 1221 m 474 956 q 344 997 396 956 q 293 1128 293 1039 l 328 1128 q 367 1024 328 1058 q 474 990 407 990 q 580 1024 540 990 q 619 1128 619 1058 l 654 1128 q 603 997 654 1039 q 474 956 551 956 m 474 -14 q 179 105 275 -14 q 83 439 83 224 q 177 794 83 681 q 474 908 271 908 q 770 794 676 908 q 864 439 864 681 q 767 106 864 225 q 474 -14 671 -14 m 474 21 q 738 127 650 21 q 826 439 826 233 q 788 692 826 597 q 672 831 749 788 q 474 874 594 874 q 274 831 351 874 q 159 692 197 788 q 121 439 121 597 q 209 127 121 233 q 474 21 297 21 z "},"Ö":{"ha":947,"x_min":83,"x_max":864,"o":"m 340 1046 l 389 1046 l 389 997 l 340 997 l 340 1046 m 558 1046 l 607 1046 l 607 997 l 558 997 l 558 1046 m 474 -14 q 179 105 275 -14 q 83 439 83 224 q 177 794 83 681 q 474 908 271 908 q 770 794 676 908 q 864 439 864 681 q 767 106 864 225 q 474 -14 671 -14 m 474 21 q 738 127 650 21 q 826 439 826 233 q 788 692 826 597 q 672 831 749 788 q 474 874 594 874 q 274 831 351 874 q 159 692 197 788 q 121 439 121 597 q 209 127 121 233 q 474 21 297 21 z "},"Ọ":{"ha":947,"x_min":83,"x_max":864,"o":"m 474 -14 q 179 105 275 -14 q 83 439 83 224 q 177 794 83 681 q 474 908 271 908 q 770 794 676 908 q 864 439 864 681 q 767 106 864 225 q 474 -14 671 -14 m 474 21 q 738 127 650 21 q 826 439 826 233 q 788 692 826 597 q 672 831 749 788 q 474 874 594 874 q 274 831 351 874 q 159 692 197 788 q 121 439 121 597 q 209 127 121 233 q 474 21 297 21 m 449 -142 l 500 -142 l 500 -193 l 449 -193 l 449 -142 z "},"Ò":{"ha":947,"x_min":83,"x_max":864,"o":"m 368 1163 l 410 1163 l 497 956 l 465 956 l 368 1163 m 474 -14 q 179 105 275 -14 q 83 439 83 224 q 177 794 83 681 q 474 908 271 908 q 770 794 676 908 q 864 439 864 681 q 767 106 864 225 q 474 -14 671 -14 m 474 21 q 738 127 650 21 q 826 439 826 233 q 788 692 826 597 q 672 831 749 788 q 474 874 594 874 q 274 831 351 874 q 159 692 197 788 q 121 439 121 597 q 209 127 121 233 q 474 21 297 21 z "},"Ỏ":{"ha":947,"x_min":83,"x_max":864,"o":"m 460 1060 q 544 1074 515 1063 q 582 1103 572 1085 q 592 1153 592 1122 q 563 1215 592 1194 q 471 1236 535 1236 q 420 1231 447 1236 q 375 1219 393 1226 l 375 1254 q 420 1266 390 1261 q 472 1271 450 1271 q 588 1240 549 1271 q 626 1153 626 1210 q 598 1068 626 1097 q 499 1033 569 1039 l 499 956 l 460 956 l 460 1060 m 474 -14 q 179 105 275 -14 q 83 439 83 224 q 177 794 83 681 q 474 908 271 908 q 770 794 676 908 q 864 439 864 681 q 767 106 864 225 q 474 -14 671 -14 m 474 21 q 738 127 650 21 q 826 439 826 233 q 788 692 826 597 q 672 831 749 788 q 474 874 594 874 q 274 831 351 874 q 159 692 197 788 q 121 439 121 597 q 209 127 121 233 q 474 21 297 21 z "},"Ơ":{"ha":1026,"x_min":83,"x_max":985,"o":"m 474 -14 q 179 105 275 -14 q 83 439 83 224 q 177 794 83 681 q 474 908 271 908 q 659 876 583 908 q 783 776 735 843 q 913 815 875 776 q 950 956 950 854 l 985 956 q 940 794 985 842 q 804 742 896 747 q 864 439 864 631 q 767 106 864 225 q 474 -14 671 -14 m 474 21 q 738 127 650 21 q 826 439 826 233 q 788 692 826 597 q 672 831 749 788 q 474 874 594 874 q 274 831 351 874 q 159 692 197 788 q 121 439 121 597 q 209 127 121 233 q 474 21 297 21 z "},"Ớ":{"ha":1026,"x_min":83,"x_max":985,"o":"m 564 1163 l 606 1163 l 508 956 l 476 956 l 564 1163 m 474 -14 q 179 105 275 -14 q 83 439 83 224 q 177 794 83 681 q 474 908 271 908 q 659 876 583 908 q 783 776 735 843 q 913 815 875 776 q 950 956 950 854 l 985 956 q 940 794 985 842 q 804 742 896 747 q 864 439 864 631 q 767 106 864 225 q 474 -14 671 -14 m 474 21 q 738 127 650 21 q 826 439 826 233 q 788 692 826 597 q 672 831 749 788 q 474 874 594 874 q 274 831 351 874 q 159 692 197 788 q 121 439 121 597 q 209 127 121 233 q 474 21 297 21 z "},"Ợ":{"ha":1026,"x_min":83,"x_max":985,"o":"m 474 -14 q 179 105 275 -14 q 83 439 83 224 q 177 794 83 681 q 474 908 271 908 q 659 876 583 908 q 783 776 735 843 q 913 815 875 776 q 950 956 950 854 l 985 956 q 940 794 985 842 q 804 742 896 747 q 864 439 864 631 q 767 106 864 225 q 474 -14 671 -14 m 474 21 q 738 127 650 21 q 826 439 826 233 q 788 692 826 597 q 672 831 749 788 q 474 874 594 874 q 274 831 351 874 q 159 692 197 788 q 121 439 121 597 q 209 127 121 233 q 474 21 297 21 m 454 -142 l 506 -142 l 506 -193 l 454 -193 l 454 -142 z "},"Ờ":{"ha":1026,"x_min":83,"x_max":985,"o":"m 404 1163 l 446 1163 l 533 956 l 501 956 l 404 1163 m 474 -14 q 179 105 275 -14 q 83 439 83 224 q 177 794 83 681 q 474 908 271 908 q 659 876 583 908 q 783 776 735 843 q 913 815 875 776 q 950 956 950 854 l 985 956 q 940 794 985 842 q 804 742 896 747 q 864 439 864 631 q 767 106 864 225 q 474 -14 671 -14 m 474 21 q 738 127 650 21 q 826 439 826 233 q 788 692 826 597 q 672 831 749 788 q 474 874 594 874 q 274 831 351 874 q 159 692 197 788 q 121 439 121 597 q 209 127 121 233 q 474 21 297 21 z "},"Ở":{"ha":1026,"x_min":83,"x_max":985,"o":"m 469 1060 q 553 1074 525 1063 q 592 1103 582 1085 q 601 1153 601 1122 q 573 1215 601 1194 q 481 1236 544 1236 q 430 1231 457 1236 q 385 1219 403 1226 l 385 1254 q 430 1266 400 1261 q 482 1271 460 1271 q 597 1240 558 1271 q 636 1153 636 1210 q 608 1068 636 1097 q 508 1033 579 1039 l 508 956 l 469 956 l 469 1060 m 474 -14 q 179 105 275 -14 q 83 439 83 224 q 177 794 83 681 q 474 908 271 908 q 659 876 583 908 q 783 776 735 843 q 913 815 875 776 q 950 956 950 854 l 985 956 q 940 794 985 842 q 804 742 896 747 q 864 439 864 631 q 767 106 864 225 q 474 -14 671 -14 m 474 21 q 738 127 650 21 q 826 439 826 233 q 788 692 826 597 q 672 831 749 788 q 474 874 594 874 q 274 831 351 874 q 159 692 197 788 q 121 439 121 597 q 209 127 121 233 q 474 21 297 21 z "},"Ỡ":{"ha":1026,"x_min":83,"x_max":985,"o":"m 593 997 q 551 1003 571 997 q 500 1024 532 1010 q 425 1047 450 1047 q 368 1037 393 1047 q 321 1000 343 1026 l 321 1043 q 363 1072 336 1061 q 421 1082 390 1082 q 462 1076 443 1082 q 511 1056 481 1069 q 552 1038 535 1044 q 589 1032 569 1032 q 643 1042 621 1032 q 683 1079 665 1053 l 683 1036 q 593 997 656 997 m 474 -14 q 179 105 275 -14 q 83 439 83 224 q 177 794 83 681 q 474 908 271 908 q 659 876 583 908 q 783 776 735 843 q 913 815 875 776 q 950 956 950 854 l 985 956 q 940 794 985 842 q 804 742 896 747 q 864 439 864 631 q 767 106 864 225 q 474 -14 671 -14 m 474 21 q 738 127 650 21 q 826 439 826 233 q 788 692 826 597 q 672 831 749 788 q 474 874 594 874 q 274 831 351 874 q 159 692 197 788 q 121 439 121 597 q 209 127 121 233 q 474 21 297 21 z "},"Ő":{"ha":947,"x_min":83,"x_max":864,"o":"m 390 1135 l 431 1135 l 333 956 l 303 956 l 390 1135 m 657 1135 l 697 1135 l 600 956 l 569 956 l 657 1135 m 474 -14 q 179 105 275 -14 q 83 439 83 224 q 177 794 83 681 q 474 908 271 908 q 770 794 676 908 q 864 439 864 681 q 767 106 864 225 q 474 -14 671 -14 m 474 21 q 738 127 650 21 q 826 439 826 233 q 788 692 826 597 q 672 831 749 788 q 474 874 594 874 q 274 831 351 874 q 159 692 197 788 q 121 439 121 597 q 209 127 121 233 q 474 21 297 21 z "},"Ō":{"ha":947,"x_min":83,"x_max":864,"o":"m 289 1032 l 660 1032 l 660 997 l 289 997 l 289 1032 m 474 -14 q 179 105 275 -14 q 83 439 83 224 q 177 794 83 681 q 474 908 271 908 q 770 794 676 908 q 864 439 864 681 q 767 106 864 225 q 474 -14 671 -14 m 474 21 q 738 127 650 21 q 826 439 826 233 q 788 692 826 597 q 672 831 749 788 q 474 874 594 874 q 274 831 351 874 q 159 692 197 788 q 121 439 121 597 q 209 127 121 233 q 474 21 297 21 z "},"Ø":{"ha":947,"x_min":83,"x_max":864,"o":"m 285 24 q 133 178 183 71 q 83 439 83 285 q 177 794 83 681 q 474 908 271 908 q 593 896 539 908 l 617 963 l 654 963 l 628 888 q 806 738 749 849 q 864 439 864 628 q 767 106 864 225 q 474 -14 671 -14 q 317 10 388 -14 l 288 -74 l 250 -74 l 285 24 m 582 863 q 474 874 529 874 q 274 831 351 874 q 159 692 197 788 q 121 439 121 597 q 296 57 121 146 l 582 863 m 474 21 q 738 127 650 21 q 826 439 826 233 q 774 721 826 621 q 615 854 722 821 l 329 43 q 474 21 390 21 z "},"Ǿ":{"ha":947,"x_min":83,"x_max":864,"o":"m 547 1163 l 589 1163 l 492 956 l 460 956 l 547 1163 m 285 24 q 133 178 183 71 q 83 439 83 285 q 177 794 83 681 q 474 908 271 908 q 593 896 539 908 l 617 963 l 654 963 l 628 888 q 806 738 749 849 q 864 439 864 628 q 767 106 864 225 q 474 -14 671 -14 q 317 10 388 -14 l 288 -74 l 250 -74 l 285 24 m 582 863 q 474 874 529 874 q 274 831 351 874 q 159 692 197 788 q 121 439 121 597 q 296 57 121 146 l 582 863 m 474 21 q 738 127 650 21 q 826 439 826 233 q 774 721 826 621 q 615 854 722 821 l 329 43 q 474 21 390 21 z "},"Õ":{"ha":947,"x_min":83,"x_max":864,"o":"m 565 997 q 524 1003 543 997 q 472 1024 504 1010 q 397 1047 422 1047 q 340 1037 365 1047 q 293 1000 315 1026 l 293 1043 q 335 1072 308 1061 q 393 1082 363 1082 q 434 1076 415 1082 q 483 1056 453 1069 q 524 1038 507 1044 q 561 1032 542 1032 q 615 1042 593 1032 q 656 1079 638 1053 l 656 1036 q 565 997 628 997 m 474 -14 q 179 105 275 -14 q 83 439 83 224 q 177 794 83 681 q 474 908 271 908 q 770 794 676 908 q 864 439 864 681 q 767 106 864 225 q 474 -14 671 -14 m 474 21 q 738 127 650 21 q 826 439 826 233 q 788 692 826 597 q 672 831 749 788 q 474 874 594 874 q 274 831 351 874 q 159 692 197 788 q 121 439 121 597 q 209 127 121 233 q 474 21 297 21 z "},"Œ":{"ha":1476,"x_min":83,"x_max":1393,"o":"m 474 -14 q 179 105 275 -14 q 83 439 83 224 q 177 794 83 681 q 474 908 271 908 q 699 856 613 908 q 826 693 786 803 l 826 894 l 1393 894 l 1393 860 l 865 860 l 865 465 l 1344 465 l 1344 431 l 865 431 l 865 35 l 1393 35 l 1393 0 l 826 0 l 826 207 q 697 43 785 100 q 474 -14 610 -14 m 474 21 q 738 127 650 21 q 826 439 826 233 l 826 463 q 736 778 822 683 q 474 874 650 874 q 274 831 351 874 q 159 692 197 788 q 121 439 121 597 q 209 127 121 233 q 474 21 297 21 z "},"P":{"ha":778,"x_min":111,"x_max":722,"o":"m 111 894 l 446 894 q 653 824 585 894 q 722 626 722 753 q 647 432 722 501 q 440 363 572 363 l 150 363 l 150 0 l 111 0 l 111 894 m 443 397 q 623 458 561 397 q 685 626 685 519 q 626 800 685 740 q 450 860 567 860 l 150 860 l 150 397 l 443 397 z "},"Þ":{"ha":778,"x_min":111,"x_max":722,"o":"m 111 894 l 150 894 l 150 713 l 446 713 q 653 642 585 713 q 722 444 722 571 q 647 250 722 319 q 440 181 572 181 l 150 181 l 150 0 l 111 0 l 111 894 m 443 215 q 623 276 561 215 q 685 444 685 338 q 626 617 685 558 q 450 676 567 676 l 150 676 l 150 215 l 443 215 z "},"Q":{"ha":947,"x_min":83,"x_max":864,"o":"m 608 -239 q 481 -183 515 -239 q 444 -12 446 -128 q 172 115 261 -3 q 83 439 83 232 q 177 794 83 681 q 474 908 271 908 q 770 794 676 908 q 864 439 864 681 q 769 108 864 226 q 482 -14 675 -11 q 509 -160 482 -117 q 608 -203 536 -203 q 658 -199 629 -203 q 707 -189 686 -194 l 707 -225 q 608 -239 661 -239 m 474 21 q 738 127 650 21 q 826 439 826 233 q 788 692 826 597 q 672 831 749 788 q 474 874 594 874 q 274 831 351 874 q 159 692 197 788 q 121 439 121 597 q 209 127 121 233 q 474 21 297 21 z "},"R":{"ha":808,"x_min":111,"x_max":725,"o":"m 111 894 l 467 894 q 660 828 597 894 q 722 639 722 761 q 671 465 722 531 q 518 386 619 400 q 566 351 550 372 q 601 289 582 331 l 725 0 l 686 0 l 564 281 q 528 340 547 319 q 476 369 510 360 q 382 379 442 379 l 150 379 l 150 0 l 111 0 l 111 894 m 453 414 q 685 639 685 414 q 471 860 685 860 l 150 860 l 150 414 l 453 414 z "},"Ŕ":{"ha":808,"x_min":111,"x_max":725,"o":"m 474 1163 l 515 1163 l 418 956 l 386 956 l 474 1163 m 111 894 l 467 894 q 660 828 597 894 q 722 639 722 761 q 671 465 722 531 q 518 386 619 400 q 566 351 550 372 q 601 289 582 331 l 725 0 l 686 0 l 564 281 q 528 340 547 319 q 476 369 510 360 q 382 379 442 379 l 150 379 l 150 0 l 111 0 l 111 894 m 453 414 q 685 639 685 414 q 471 860 685 860 l 150 860 l 150 414 l 453 414 z "},"Ř":{"ha":808,"x_min":111,"x_max":725,"o":"m 261 1125 l 301 1125 l 414 981 l 526 1125 l 567 1125 l 435 956 l 393 956 l 261 1125 m 111 894 l 467 894 q 660 828 597 894 q 722 639 722 761 q 671 465 722 531 q 518 386 619 400 q 566 351 550 372 q 601 289 582 331 l 725 0 l 686 0 l 564 281 q 528 340 547 319 q 476 369 510 360 q 382 379 442 379 l 150 379 l 150 0 l 111 0 l 111 894 m 453 414 q 685 639 685 414 q 471 860 685 860 l 150 860 l 150 414 l 453 414 z "},"Ŗ":{"ha":808,"x_min":111,"x_max":725,"o":"m 111 894 l 467 894 q 660 828 597 894 q 722 639 722 761 q 671 465 722 531 q 518 386 619 400 q 566 351 550 372 q 601 289 582 331 l 725 0 l 686 0 l 564 281 q 528 340 547 319 q 476 369 510 360 q 382 379 442 379 l 150 379 l 150 0 l 111 0 l 111 894 m 453 414 q 685 639 685 414 q 471 860 685 860 l 150 860 l 150 414 l 453 414 m 351 -51 l 397 -51 l 349 -264 l 318 -264 l 351 -51 z "},"Ṛ":{"ha":808,"x_min":111,"x_max":725,"o":"m 111 894 l 467 894 q 660 828 597 894 q 722 639 722 761 q 671 465 722 531 q 518 386 619 400 q 566 351 550 372 q 601 289 582 331 l 725 0 l 686 0 l 564 281 q 528 340 547 319 q 476 369 510 360 q 382 379 442 379 l 150 379 l 150 0 l 111 0 l 111 894 m 453 414 q 685 639 685 414 q 471 860 685 860 l 150 860 l 150 414 l 453 414 m 374 -142 l 425 -142 l 425 -193 l 374 -193 l 374 -142 z "},"Ṝ":{"ha":808,"x_min":111,"x_max":725,"o":"m 219 1032 l 590 1032 l 590 997 l 219 997 l 219 1032 m 111 894 l 467 894 q 660 828 597 894 q 722 639 722 761 q 671 465 722 531 q 518 386 619 400 q 566 351 550 372 q 601 289 582 331 l 725 0 l 686 0 l 564 281 q 528 340 547 319 q 476 369 510 360 q 382 379 442 379 l 150 379 l 150 0 l 111 0 l 111 894 m 453 414 q 685 639 685 414 q 471 860 685 860 l 150 860 l 150 414 l 453 414 m 375 -142 l 426 -142 l 426 -193 l 375 -193 l 375 -142 z "},"Ṟ":{"ha":808,"x_min":111,"x_max":725,"o":"m 111 894 l 467 894 q 660 828 597 894 q 722 639 722 761 q 671 465 722 531 q 518 386 619 400 q 566 351 550 372 q 601 289 582 331 l 725 0 l 686 0 l 564 281 q 528 340 547 319 q 476 369 510 360 q 382 379 442 379 l 150 379 l 150 0 l 111 0 l 111 894 m 453 414 q 685 639 685 414 q 471 860 685 860 l 150 860 l 150 414 l 453 414 m 210 -106 l 581 -106 l 581 -140 l 210 -140 l 210 -106 z "},"S":{"ha":765,"x_min":83,"x_max":682,"o":"m 357 -14 q 108 22 206 -14 l 108 57 q 357 19 219 19 q 572 69 500 19 q 644 222 644 118 q 616 326 644 286 q 527 393 588 367 q 363 442 467 419 q 146 528 208 475 q 83 674 83 581 q 160 845 83 782 q 394 908 238 908 q 526 899 461 908 q 626 876 590 889 l 626 842 q 406 874 528 874 q 192 824 264 874 q 121 674 121 775 q 145 580 121 615 q 227 519 169 544 q 392 469 285 494 q 563 412 500 444 q 654 334 626 379 q 682 222 682 289 q 357 -14 682 -14 z "},"Ś":{"ha":765,"x_min":83,"x_max":682,"o":"m 443 1179 l 485 1179 l 388 972 l 356 972 l 443 1179 m 357 -14 q 108 22 206 -14 l 108 57 q 357 19 219 19 q 572 69 500 19 q 644 222 644 118 q 616 326 644 286 q 527 393 588 367 q 363 442 467 419 q 146 528 208 475 q 83 674 83 581 q 160 845 83 782 q 394 908 238 908 q 526 899 461 908 q 626 876 590 889 l 626 842 q 406 874 528 874 q 192 824 264 874 q 121 674 121 775 q 145 580 121 615 q 227 519 169 544 q 392 469 285 494 q 563 412 500 444 q 654 334 626 379 q 682 222 682 289 q 357 -14 682 -14 z "},"Š":{"ha":765,"x_min":83,"x_max":682,"o":"m 246 1125 l 286 1125 l 399 981 l 511 1125 l 551 1125 l 419 956 l 378 956 l 246 1125 m 357 -14 q 108 22 206 -14 l 108 57 q 357 19 219 19 q 572 69 500 19 q 644 222 644 118 q 616 326 644 286 q 527 393 588 367 q 363 442 467 419 q 146 528 208 475 q 83 674 83 581 q 160 845 83 782 q 394 908 238 908 q 526 899 461 908 q 626 876 590 889 l 626 842 q 406 874 528 874 q 192 824 264 874 q 121 674 121 775 q 145 580 121 615 q 227 519 169 544 q 392 469 285 494 q 563 412 500 444 q 654 334 626 379 q 682 222 682 289 q 357 -14 682 -14 z "},"Ş":{"ha":765,"x_min":83,"x_max":682,"o":"m 682 222 q 401 -12 682 3 l 379 -74 q 501 -103 458 -74 q 543 -193 543 -133 q 499 -298 543 -262 q 356 -333 454 -333 q 268 -322 310 -333 l 268 -287 q 357 -299 308 -299 q 469 -275 433 -299 q 506 -196 506 -251 q 472 -126 506 -147 q 368 -106 439 -106 l 329 -106 l 361 -14 l 357 -14 q 108 22 206 -14 l 108 57 q 357 19 219 19 q 572 69 500 19 q 644 222 644 118 q 616 326 644 286 q 527 393 588 367 q 363 442 467 419 q 146 528 208 475 q 83 674 83 581 q 160 845 83 782 q 394 908 238 908 q 526 899 461 908 q 626 876 590 889 l 626 842 q 406 874 528 874 q 192 824 264 874 q 121 674 121 775 q 145 580 121 615 q 227 519 169 544 q 392 469 285 494 q 563 412 500 444 q 654 334 626 379 q 682 222 682 289 z "},"Ŝ":{"ha":765,"x_min":83,"x_max":682,"o":"m 357 1169 l 399 1169 l 531 1000 l 490 1000 l 378 1144 l 265 1000 l 225 1000 l 357 1169 m 357 -14 q 108 22 206 -14 l 108 57 q 357 19 219 19 q 572 69 500 19 q 644 222 644 118 q 616 326 644 286 q 527 393 588 367 q 363 442 467 419 q 146 528 208 475 q 83 674 83 581 q 160 845 83 782 q 394 908 238 908 q 526 899 461 908 q 626 876 590 889 l 626 842 q 406 874 528 874 q 192 824 264 874 q 121 674 121 775 q 145 580 121 615 q 227 519 169 544 q 392 469 285 494 q 563 412 500 444 q 654 334 626 379 q 682 222 682 289 q 357 -14 682 -14 z "},"Ș":{"ha":765,"x_min":83,"x_max":682,"o":"m 357 -14 q 108 22 206 -14 l 108 57 q 357 19 219 19 q 572 69 500 19 q 644 222 644 118 q 616 326 644 286 q 527 393 588 367 q 363 442 467 419 q 146 528 208 475 q 83 674 83 581 q 160 845 83 782 q 394 908 238 908 q 526 899 461 908 q 626 876 590 889 l 626 842 q 406 874 528 874 q 192 824 264 874 q 121 674 121 775 q 145 580 121 615 q 227 519 169 544 q 392 469 285 494 q 563 412 500 444 q 654 334 626 379 q 682 222 682 289 q 357 -14 682 -14 m 361 -79 l 407 -79 l 358 -292 l 328 -292 l 361 -79 z "},"Ṡ":{"ha":765,"x_min":83,"x_max":682,"o":"m 350 1046 l 399 1046 l 399 997 l 350 997 l 350 1046 m 357 -14 q 108 22 206 -14 l 108 57 q 357 19 219 19 q 572 69 500 19 q 644 222 644 118 q 616 326 644 286 q 527 393 588 367 q 363 442 467 419 q 146 528 208 475 q 83 674 83 581 q 160 845 83 782 q 394 908 238 908 q 526 899 461 908 q 626 876 590 889 l 626 842 q 406 874 528 874 q 192 824 264 874 q 121 674 121 775 q 145 580 121 615 q 227 519 169 544 q 392 469 285 494 q 563 412 500 444 q 654 334 626 379 q 682 222 682 289 q 357 -14 682 -14 z "},"Ṣ":{"ha":765,"x_min":83,"x_max":682,"o":"m 357 -14 q 108 22 206 -14 l 108 57 q 357 19 219 19 q 572 69 500 19 q 644 222 644 118 q 616 326 644 286 q 527 393 588 367 q 363 442 467 419 q 146 528 208 475 q 83 674 83 581 q 160 845 83 782 q 394 908 238 908 q 526 899 461 908 q 626 876 590 889 l 626 842 q 406 874 528 874 q 192 824 264 874 q 121 674 121 775 q 145 580 121 615 q 227 519 169 544 q 392 469 285 494 q 563 412 500 444 q 654 334 626 379 q 682 222 682 289 q 357 -14 682 -14 m 354 -142 l 406 -142 l 406 -193 l 354 -193 l 354 -142 z "},"ẞ":{"ha":851,"x_min":104,"x_max":768,"o":"m 501 -14 q 301 17 376 -14 l 301 53 q 501 21 376 21 q 731 247 731 21 q 681 399 731 350 q 513 447 631 447 l 371 447 l 371 488 l 678 678 q 418 872 678 872 q 211 813 279 872 q 143 624 143 753 l 143 0 l 104 0 l 104 629 q 185 838 104 768 q 418 908 267 908 q 644 842 571 908 q 717 663 717 776 l 425 482 l 521 482 q 707 422 646 482 q 768 247 768 361 q 501 -14 768 -14 z "},"Ə":{"ha":910,"x_min":83,"x_max":826,"o":"m 431 -14 q 169 83 254 -14 q 83 335 83 179 l 83 476 l 789 476 q 747 698 786 611 q 617 829 707 785 q 374 874 526 874 q 143 826 260 874 l 143 864 q 259 897 196 885 q 382 908 322 908 q 640 859 543 908 q 782 707 738 810 q 826 440 826 604 q 732 103 826 219 q 431 -14 638 -14 m 431 21 q 703 127 617 21 q 789 440 789 233 l 122 440 l 122 338 q 201 103 122 185 q 431 21 279 21 z "},"T":{"ha":790,"x_min":56,"x_max":735,"o":"m 376 860 l 56 860 l 56 894 l 735 894 l 735 860 l 415 860 l 415 0 l 376 0 l 376 860 z "},"Ŧ":{"ha":790,"x_min":56,"x_max":735,"o":"m 415 860 l 415 517 l 638 517 l 638 482 l 415 482 l 415 0 l 376 0 l 376 482 l 146 482 l 146 517 l 376 517 l 376 860 l 56 860 l 56 894 l 735 894 l 735 860 l 415 860 z "},"Ť":{"ha":790,"x_min":56,"x_max":735,"o":"m 242 1169 l 282 1169 l 394 1025 l 507 1169 l 547 1169 l 415 1000 l 374 1000 l 242 1169 m 376 860 l 56 860 l 56 894 l 735 894 l 735 860 l 415 860 l 415 0 l 376 0 l 376 860 z "},"Ţ":{"ha":790,"x_min":56,"x_max":735,"o":"m 415 0 l 389 -74 q 510 -103 468 -74 q 553 -193 553 -133 q 508 -298 553 -262 q 365 -333 464 -333 q 278 -322 319 -333 l 278 -287 q 367 -299 318 -299 q 479 -275 443 -299 q 515 -196 515 -251 q 482 -126 515 -147 q 378 -106 449 -106 l 339 -106 l 376 0 l 376 860 l 56 860 l 56 894 l 735 894 l 735 860 l 415 860 l 415 0 z "},"Ț":{"ha":790,"x_min":56,"x_max":735,"o":"m 376 860 l 56 860 l 56 894 l 735 894 l 735 860 l 415 860 l 415 0 l 376 0 l 376 860 m 371 -51 l 417 -51 l 368 -264 l 338 -264 l 371 -51 z "},"Ṭ":{"ha":790,"x_min":56,"x_max":735,"o":"m 376 860 l 56 860 l 56 894 l 735 894 l 735 860 l 415 860 l 415 0 l 376 0 l 376 860 m 369 -142 l 421 -142 l 421 -193 l 369 -193 l 369 -142 z "},"Ṯ":{"ha":790,"x_min":56,"x_max":735,"o":"m 376 860 l 56 860 l 56 894 l 735 894 l 735 860 l 415 860 l 415 0 l 376 0 l 376 860 m 210 -106 l 581 -106 l 581 -140 l 210 -140 l 210 -106 z "},"U":{"ha":911,"x_min":104,"x_max":807,"o":"m 456 -14 q 104 321 104 -14 l 104 894 l 143 894 l 143 304 q 224 93 143 164 q 456 22 306 22 q 687 93 606 22 q 768 304 768 164 l 768 894 l 807 894 l 807 321 q 456 -14 807 -14 z "},"Ú":{"ha":911,"x_min":104,"x_max":807,"o":"m 517 1163 l 558 1163 l 461 956 l 429 956 l 517 1163 m 456 -14 q 104 321 104 -14 l 104 894 l 143 894 l 143 304 q 224 93 143 164 q 456 22 306 22 q 687 93 606 22 q 768 304 768 164 l 768 894 l 807 894 l 807 321 q 456 -14 807 -14 z "},"Ŭ":{"ha":911,"x_min":104,"x_max":807,"o":"m 442 956 q 348 994 386 956 q 310 1088 310 1032 l 344 1088 q 372 1018 344 1046 q 442 990 400 990 q 513 1018 485 990 q 540 1088 540 1046 l 575 1088 q 536 994 575 1032 q 442 956 497 956 m 456 -14 q 104 321 104 -14 l 104 894 l 143 894 l 143 304 q 224 93 143 164 q 456 22 306 22 q 687 93 606 22 q 768 304 768 164 l 768 894 l 807 894 l 807 321 q 456 -14 807 -14 z "},"Ǔ":{"ha":911,"x_min":104,"x_max":807,"o":"m 303 1125 l 343 1125 l 456 981 l 568 1125 l 608 1125 l 476 956 l 435 956 l 303 1125 m 456 -14 q 104 321 104 -14 l 104 894 l 143 894 l 143 304 q 224 93 143 164 q 456 22 306 22 q 687 93 606 22 q 768 304 768 164 l 768 894 l 807 894 l 807 321 q 456 -14 807 -14 z "},"Û":{"ha":911,"x_min":104,"x_max":807,"o":"m 435 1125 l 476 1125 l 608 956 l 568 956 l 456 1100 l 343 956 l 303 956 l 435 1125 m 456 -14 q 104 321 104 -14 l 104 894 l 143 894 l 143 304 q 224 93 143 164 q 456 22 306 22 q 687 93 606 22 q 768 304 768 164 l 768 894 l 807 894 l 807 321 q 456 -14 807 -14 z "},"Ü":{"ha":911,"x_min":104,"x_max":807,"o":"m 322 1046 l 371 1046 l 371 997 l 322 997 l 322 1046 m 540 1046 l 589 1046 l 589 997 l 540 997 l 540 1046 m 456 -14 q 104 321 104 -14 l 104 894 l 143 894 l 143 304 q 224 93 143 164 q 456 22 306 22 q 687 93 606 22 q 768 304 768 164 l 768 894 l 807 894 l 807 321 q 456 -14 807 -14 z "},"Ǘ":{"ha":911,"x_min":104,"x_max":807,"o":"m 511 1204 l 551 1204 l 463 1053 l 432 1053 l 511 1204 m 322 1004 l 371 1004 l 371 956 l 322 956 l 322 1004 m 540 1004 l 589 1004 l 589 956 l 540 956 l 540 1004 m 456 -14 q 104 321 104 -14 l 104 894 l 143 894 l 143 304 q 224 93 143 164 q 456 22 306 22 q 687 93 606 22 q 768 304 768 164 l 768 894 l 807 894 l 807 321 q 456 -14 807 -14 z "},"Ǚ":{"ha":911,"x_min":104,"x_max":807,"o":"m 303 1194 l 343 1194 l 456 1075 l 568 1194 l 608 1194 l 476 1053 l 435 1053 l 303 1194 m 322 1004 l 371 1004 l 371 956 l 322 956 l 322 1004 m 540 1004 l 589 1004 l 589 956 l 540 956 l 540 1004 m 456 -14 q 104 321 104 -14 l 104 894 l 143 894 l 143 304 q 224 93 143 164 q 456 22 306 22 q 687 93 606 22 q 768 304 768 164 l 768 894 l 807 894 l 807 321 q 456 -14 807 -14 z "},"Ǜ":{"ha":911,"x_min":104,"x_max":807,"o":"m 360 1204 l 400 1204 l 479 1053 l 449 1053 l 360 1204 m 322 1004 l 371 1004 l 371 956 l 322 956 l 322 1004 m 540 1004 l 589 1004 l 589 956 l 540 956 l 540 1004 m 456 -14 q 104 321 104 -14 l 104 894 l 143 894 l 143 304 q 224 93 143 164 q 456 22 306 22 q 687 93 606 22 q 768 304 768 164 l 768 894 l 807 894 l 807 321 q 456 -14 807 -14 z "},"Ǖ":{"ha":911,"x_min":104,"x_max":807,"o":"m 271 1192 l 642 1192 l 642 1157 l 271 1157 l 271 1192 m 322 1046 l 371 1046 l 371 997 l 322 997 l 322 1046 m 540 1046 l 589 1046 l 589 997 l 540 997 l 540 1046 m 456 -14 q 104 321 104 -14 l 104 894 l 143 894 l 143 304 q 224 93 143 164 q 456 22 306 22 q 687 93 606 22 q 768 304 768 164 l 768 894 l 807 894 l 807 321 q 456 -14 807 -14 z "},"Ụ":{"ha":911,"x_min":104,"x_max":807,"o":"m 456 -14 q 104 321 104 -14 l 104 894 l 143 894 l 143 304 q 224 93 143 164 q 456 22 306 22 q 687 93 606 22 q 768 304 768 164 l 768 894 l 807 894 l 807 321 q 456 -14 807 -14 m 431 -142 l 482 -142 l 482 -193 l 431 -193 l 431 -142 z "},"Ù":{"ha":911,"x_min":104,"x_max":807,"o":"m 375 1163 l 417 1163 l 504 956 l 472 956 l 375 1163 m 456 -14 q 104 321 104 -14 l 104 894 l 143 894 l 143 304 q 224 93 143 164 q 456 22 306 22 q 687 93 606 22 q 768 304 768 164 l 768 894 l 807 894 l 807 321 q 456 -14 807 -14 z "},"Ủ":{"ha":911,"x_min":104,"x_max":807,"o":"m 432 1060 q 516 1074 488 1063 q 554 1103 544 1085 q 564 1153 564 1122 q 535 1215 564 1194 q 443 1236 507 1236 q 392 1231 419 1236 q 347 1219 365 1226 l 347 1254 q 392 1266 363 1261 q 444 1271 422 1271 q 560 1240 521 1271 q 599 1153 599 1210 q 570 1068 599 1097 q 471 1033 542 1039 l 471 956 l 432 956 l 432 1060 m 456 -14 q 104 321 104 -14 l 104 894 l 143 894 l 143 304 q 224 93 143 164 q 456 22 306 22 q 687 93 606 22 q 768 304 768 164 l 768 894 l 807 894 l 807 321 q 456 -14 807 -14 z "},"Ư":{"ha":1064,"x_min":104,"x_max":1008,"o":"m 456 -14 q 104 321 104 -14 l 104 894 l 143 894 l 143 304 q 224 93 143 164 q 456 22 306 22 q 687 93 606 22 q 768 304 768 164 l 768 894 l 807 894 l 807 776 q 936 815 899 776 q 974 956 974 854 l 1008 956 q 958 789 1008 835 q 807 742 908 743 l 807 321 q 456 -14 807 -14 z "},"Ứ":{"ha":1064,"x_min":104,"x_max":1008,"o":"m 543 1163 l 585 1163 l 488 956 l 456 956 l 543 1163 m 456 -14 q 104 321 104 -14 l 104 894 l 143 894 l 143 304 q 224 93 143 164 q 456 22 306 22 q 687 93 606 22 q 768 304 768 164 l 768 894 l 807 894 l 807 776 q 936 815 899 776 q 974 956 974 854 l 1008 956 q 958 789 1008 835 q 807 742 908 743 l 807 321 q 456 -14 807 -14 z "},"Ự":{"ha":1064,"x_min":104,"x_max":1008,"o":"m 456 -14 q 104 321 104 -14 l 104 894 l 143 894 l 143 304 q 224 93 143 164 q 456 22 306 22 q 687 93 606 22 q 768 304 768 164 l 768 894 l 807 894 l 807 776 q 936 815 899 776 q 974 956 974 854 l 1008 956 q 958 789 1008 835 q 807 742 908 743 l 807 321 q 456 -14 807 -14 m 425 -142 l 476 -142 l 476 -193 l 425 -193 l 425 -142 z "},"Ừ":{"ha":1064,"x_min":104,"x_max":1008,"o":"m 357 1163 l 399 1163 l 486 956 l 454 956 l 357 1163 m 456 -14 q 104 321 104 -14 l 104 894 l 143 894 l 143 304 q 224 93 143 164 q 456 22 306 22 q 687 93 606 22 q 768 304 768 164 l 768 894 l 807 894 l 807 776 q 936 815 899 776 q 974 956 974 854 l 1008 956 q 958 789 1008 835 q 807 742 908 743 l 807 321 q 456 -14 807 -14 z "},"Ử":{"ha":1064,"x_min":104,"x_max":1008,"o":"m 447 1060 q 531 1074 503 1063 q 569 1103 560 1085 q 579 1153 579 1122 q 551 1215 579 1194 q 458 1236 522 1236 q 408 1231 435 1236 q 363 1219 381 1226 l 363 1254 q 408 1266 378 1261 q 460 1271 438 1271 q 575 1240 536 1271 q 614 1153 614 1210 q 585 1068 614 1097 q 486 1033 557 1039 l 486 956 l 447 956 l 447 1060 m 456 -14 q 104 321 104 -14 l 104 894 l 143 894 l 143 304 q 224 93 143 164 q 456 22 306 22 q 687 93 606 22 q 768 304 768 164 l 768 894 l 807 894 l 807 776 q 936 815 899 776 q 974 956 974 854 l 1008 956 q 958 789 1008 835 q 807 742 908 743 l 807 321 q 456 -14 807 -14 z "},"Ữ":{"ha":1064,"x_min":104,"x_max":1008,"o":"m 543 997 q 501 1003 521 997 q 450 1024 482 1010 q 375 1047 400 1047 q 318 1037 343 1047 q 271 1000 293 1026 l 271 1043 q 313 1072 286 1061 q 371 1082 340 1082 q 412 1076 393 1082 q 461 1056 431 1069 q 502 1038 485 1044 q 539 1032 519 1032 q 593 1042 571 1032 q 633 1079 615 1053 l 633 1036 q 543 997 606 997 m 456 -14 q 104 321 104 -14 l 104 894 l 143 894 l 143 304 q 224 93 143 164 q 456 22 306 22 q 687 93 606 22 q 768 304 768 164 l 768 894 l 807 894 l 807 776 q 936 815 899 776 q 974 956 974 854 l 1008 956 q 958 789 1008 835 q 807 742 908 743 l 807 321 q 456 -14 807 -14 z "},"Ű":{"ha":911,"x_min":104,"x_max":807,"o":"m 353 1135 l 393 1135 l 296 956 l 265 956 l 353 1135 m 619 1135 l 660 1135 l 563 956 l 532 956 l 619 1135 m 456 -14 q 104 321 104 -14 l 104 894 l 143 894 l 143 304 q 224 93 143 164 q 456 22 306 22 q 687 93 606 22 q 768 304 768 164 l 768 894 l 807 894 l 807 321 q 456 -14 807 -14 z "},"Ū":{"ha":911,"x_min":104,"x_max":807,"o":"m 271 1032 l 642 1032 l 642 997 l 271 997 l 271 1032 m 456 -14 q 104 321 104 -14 l 104 894 l 143 894 l 143 304 q 224 93 143 164 q 456 22 306 22 q 687 93 606 22 q 768 304 768 164 l 768 894 l 807 894 l 807 321 q 456 -14 807 -14 z "},"Ų":{"ha":911,"x_min":104,"x_max":807,"o":"m 807 894 l 807 321 q 483 -14 807 0 q 415 -97 438 -51 q 393 -187 393 -142 q 411 -251 393 -231 q 471 -271 429 -271 q 508 -267 489 -271 q 540 -256 528 -262 l 540 -290 q 471 -306 514 -306 q 387 -278 418 -306 q 356 -187 356 -250 q 380 -92 356 -139 q 443 -14 404 -46 q 104 321 104 -8 l 104 894 l 143 894 l 143 304 q 224 93 143 164 q 456 22 306 22 q 687 93 606 22 q 768 304 768 164 l 768 894 l 807 894 z "},"Ů":{"ha":911,"x_min":104,"x_max":807,"o":"m 456 956 q 362 994 400 956 q 324 1088 324 1032 q 362 1182 324 1143 q 456 1221 400 1221 q 551 1183 513 1221 q 589 1088 589 1144 q 550 994 589 1032 q 456 956 511 956 m 456 990 q 526 1018 499 990 q 554 1088 554 1046 q 526 1158 554 1131 q 456 1186 499 1186 q 386 1158 414 1186 q 358 1088 358 1131 q 386 1018 358 1046 q 456 990 414 990 m 456 -14 q 104 321 104 -14 l 104 894 l 143 894 l 143 304 q 224 93 143 164 q 456 22 306 22 q 687 93 606 22 q 768 304 768 164 l 768 894 l 807 894 l 807 321 q 456 -14 807 -14 z "},"Ũ":{"ha":911,"x_min":104,"x_max":807,"o":"m 547 997 q 506 1003 525 997 q 454 1024 486 1010 q 379 1047 404 1047 q 322 1037 347 1047 q 275 1000 297 1026 l 275 1043 q 317 1072 290 1061 q 375 1082 344 1082 q 416 1076 397 1082 q 465 1056 435 1069 q 506 1038 489 1044 q 543 1032 524 1032 q 597 1042 575 1032 q 638 1079 619 1053 l 638 1036 q 547 997 610 997 m 456 -14 q 104 321 104 -14 l 104 894 l 143 894 l 143 304 q 224 93 143 164 q 456 22 306 22 q 687 93 606 22 q 768 304 768 164 l 768 894 l 807 894 l 807 321 q 456 -14 807 -14 z "},"V":{"ha":903,"x_min":83,"x_max":819,"o":"m 83 894 l 124 894 l 451 22 l 779 894 l 819 894 l 483 0 l 421 0 l 83 894 z "},"W":{"ha":1167,"x_min":83,"x_max":1083,"o":"m 83 894 l 124 894 l 325 28 l 565 814 l 565 894 l 599 894 l 843 28 l 1044 894 l 1083 894 l 876 0 l 814 0 l 593 792 l 356 0 l 292 0 l 83 894 z "},"Ẃ":{"ha":1167,"x_min":83,"x_max":1083,"o":"m 672 1163 l 714 1163 l 617 956 l 585 956 l 672 1163 m 83 894 l 124 894 l 325 28 l 565 814 l 565 894 l 599 894 l 843 28 l 1044 894 l 1083 894 l 876 0 l 814 0 l 593 792 l 356 0 l 292 0 l 83 894 z "},"Ŵ":{"ha":1167,"x_min":83,"x_max":1083,"o":"m 572 1125 l 614 1125 l 746 956 l 706 956 l 593 1100 l 481 956 l 440 956 l 572 1125 m 83 894 l 124 894 l 325 28 l 565 814 l 565 894 l 599 894 l 843 28 l 1044 894 l 1083 894 l 876 0 l 814 0 l 593 792 l 356 0 l 292 0 l 83 894 z "},"Ẅ":{"ha":1167,"x_min":83,"x_max":1083,"o":"m 460 1046 l 508 1046 l 508 997 l 460 997 l 460 1046 m 678 1046 l 726 1046 l 726 997 l 678 997 l 678 1046 m 83 894 l 124 894 l 325 28 l 565 814 l 565 894 l 599 894 l 843 28 l 1044 894 l 1083 894 l 876 0 l 814 0 l 593 792 l 356 0 l 292 0 l 83 894 z "},"Ẁ":{"ha":1167,"x_min":83,"x_max":1083,"o":"m 471 1163 l 513 1163 l 600 956 l 568 956 l 471 1163 m 83 894 l 124 894 l 325 28 l 565 814 l 565 894 l 599 894 l 843 28 l 1044 894 l 1083 894 l 876 0 l 814 0 l 593 792 l 356 0 l 292 0 l 83 894 z "},"X":{"ha":828,"x_min":83,"x_max":744,"o":"m 390 440 l 83 894 l 124 894 l 414 463 l 704 894 l 744 894 l 436 440 l 744 0 l 704 0 l 414 415 l 124 0 l 83 0 l 390 440 z "},"Y":{"ha":842,"x_min":83,"x_max":758,"o":"m 401 336 l 83 894 l 124 894 l 421 372 l 718 894 l 758 894 l 440 336 l 440 0 l 401 0 l 401 336 z "},"Ý":{"ha":842,"x_min":83,"x_max":758,"o":"m 472 1163 l 514 1163 l 417 956 l 385 956 l 472 1163 m 401 336 l 83 894 l 124 894 l 421 372 l 718 894 l 758 894 l 440 336 l 440 0 l 401 0 l 401 336 z "},"Ŷ":{"ha":842,"x_min":83,"x_max":758,"o":"m 400 1125 l 442 1125 l 574 956 l 533 956 l 421 1100 l 308 956 l 268 956 l 400 1125 m 401 336 l 83 894 l 124 894 l 421 372 l 718 894 l 758 894 l 440 336 l 440 0 l 401 0 l 401 336 z "},"Ÿ":{"ha":842,"x_min":83,"x_max":758,"o":"m 288 1046 l 336 1046 l 336 997 l 288 997 l 288 1046 m 506 1046 l 554 1046 l 554 997 l 506 997 l 506 1046 m 401 336 l 83 894 l 124 894 l 421 372 l 718 894 l 758 894 l 440 336 l 440 0 l 401 0 l 401 336 z "},"Ẏ":{"ha":842,"x_min":83,"x_max":758,"o":"m 397 1046 l 446 1046 l 446 997 l 397 997 l 397 1046 m 401 336 l 83 894 l 124 894 l 421 372 l 718 894 l 758 894 l 440 336 l 440 0 l 401 0 l 401 336 z "},"Ỵ":{"ha":842,"x_min":83,"x_max":758,"o":"m 401 336 l 83 894 l 124 894 l 421 372 l 718 894 l 758 894 l 440 336 l 440 0 l 401 0 l 401 336 m 396 -114 l 447 -114 l 447 -165 l 396 -165 l 396 -114 z "},"Ỳ":{"ha":842,"x_min":83,"x_max":758,"o":"m 329 1163 l 371 1163 l 458 956 l 426 956 l 329 1163 m 401 336 l 83 894 l 124 894 l 421 372 l 718 894 l 758 894 l 440 336 l 440 0 l 401 0 l 401 336 z "},"Ỷ":{"ha":842,"x_min":83,"x_max":758,"o":"m 383 1060 q 467 1074 439 1063 q 506 1103 496 1085 q 515 1153 515 1122 q 487 1215 515 1194 q 394 1236 458 1236 q 344 1231 371 1236 q 299 1219 317 1226 l 299 1254 q 344 1266 314 1261 q 396 1271 374 1271 q 511 1240 472 1271 q 550 1153 550 1210 q 522 1068 550 1097 q 422 1033 493 1039 l 422 956 l 383 956 l 383 1060 m 401 336 l 83 894 l 124 894 l 421 372 l 718 894 l 758 894 l 440 336 l 440 0 l 401 0 l 401 336 z "},"Ỹ":{"ha":842,"x_min":83,"x_max":758,"o":"m 513 997 q 471 1003 490 997 q 419 1024 451 1010 q 344 1047 369 1047 q 288 1037 313 1047 q 240 1000 263 1026 l 240 1043 q 283 1072 256 1061 q 340 1082 310 1082 q 381 1076 363 1082 q 431 1056 400 1069 q 472 1038 454 1044 q 508 1032 489 1032 q 563 1042 540 1032 q 603 1079 585 1053 l 603 1036 q 513 997 575 997 m 401 336 l 83 894 l 124 894 l 421 372 l 718 894 l 758 894 l 440 336 l 440 0 l 401 0 l 401 336 z "},"Z":{"ha":783,"x_min":83,"x_max":707,"o":"m 83 31 l 656 860 l 107 860 l 107 894 l 700 894 l 700 858 l 132 35 l 707 35 l 707 0 l 83 0 l 83 31 z "},"Ź":{"ha":783,"x_min":83,"x_max":707,"o":"m 504 1163 l 546 1163 l 449 956 l 417 956 l 504 1163 m 83 31 l 656 860 l 107 860 l 107 894 l 700 894 l 700 858 l 132 35 l 707 35 l 707 0 l 83 0 l 83 31 z "},"Ž":{"ha":783,"x_min":83,"x_max":707,"o":"m 282 1125 l 322 1125 l 435 981 l 547 1125 l 588 1125 l 456 956 l 414 956 l 282 1125 m 83 31 l 656 860 l 107 860 l 107 894 l 700 894 l 700 858 l 132 35 l 707 35 l 707 0 l 83 0 l 83 31 z "},"Ż":{"ha":783,"x_min":83,"x_max":707,"o":"m 400 1046 l 449 1046 l 449 997 l 400 997 l 400 1046 m 83 31 l 656 860 l 107 860 l 107 894 l 700 894 l 700 858 l 132 35 l 707 35 l 707 0 l 83 0 l 83 31 z "},"Ẓ":{"ha":783,"x_min":83,"x_max":707,"o":"m 83 31 l 656 860 l 107 860 l 107 894 l 700 894 l 700 858 l 132 35 l 707 35 l 707 0 l 83 0 l 83 31 m 399 -142 l 450 -142 l 450 -193 l 399 -193 l 399 -142 z "},"a":{"ha":725,"x_min":83,"x_max":621,"o":"m 311 -14 q 147 30 210 -14 q 83 167 83 74 q 138 306 83 257 q 319 356 193 356 l 582 356 l 582 440 q 563 556 582 514 q 497 618 544 599 q 358 638 449 638 q 157 603 253 638 l 157 639 q 371 672 240 672 q 562 619 503 672 q 621 443 621 565 l 621 0 l 590 0 l 585 90 q 471 11 536 36 q 311 -14 406 -14 m 321 21 q 471 47 408 21 q 582 132 533 74 l 582 319 l 322 319 q 165 282 210 319 q 121 167 121 244 q 321 21 121 21 z "},"á":{"ha":725,"x_min":83,"x_max":621,"o":"m 450 932 l 492 932 l 394 725 l 363 725 l 450 932 m 311 -14 q 147 30 210 -14 q 83 167 83 74 q 138 306 83 257 q 319 356 193 356 l 582 356 l 582 440 q 563 556 582 514 q 497 618 544 599 q 358 638 449 638 q 157 603 253 638 l 157 639 q 371 672 240 672 q 562 619 503 672 q 621 443 621 565 l 621 0 l 590 0 l 585 90 q 471 11 536 36 q 311 -14 406 -14 m 321 21 q 471 47 408 21 q 582 132 533 74 l 582 319 l 322 319 q 165 282 210 319 q 121 167 121 244 q 321 21 121 21 z "},"ă":{"ha":725,"x_min":83,"x_max":621,"o":"m 400 725 q 306 763 344 725 q 268 857 268 801 l 303 857 q 331 788 303 815 q 400 760 358 760 q 471 788 443 760 q 499 857 499 815 l 533 857 q 494 763 533 801 q 400 725 456 725 m 311 -14 q 147 30 210 -14 q 83 167 83 74 q 138 306 83 257 q 319 356 193 356 l 582 356 l 582 440 q 563 556 582 514 q 497 618 544 599 q 358 638 449 638 q 157 603 253 638 l 157 639 q 371 672 240 672 q 562 619 503 672 q 621 443 621 565 l 621 0 l 590 0 l 585 90 q 471 11 536 36 q 311 -14 406 -14 m 321 21 q 471 47 408 21 q 582 132 533 74 l 582 319 l 322 319 q 165 282 210 319 q 121 167 121 244 q 321 21 121 21 z "},"ắ":{"ha":725,"x_min":83,"x_max":621,"o":"m 443 1004 l 483 1004 l 394 853 l 364 853 l 443 1004 m 397 725 q 268 767 319 725 q 217 897 217 808 l 251 897 q 291 794 251 828 q 397 760 331 760 q 503 794 464 760 q 543 897 543 828 l 578 897 q 526 767 578 808 q 397 725 475 725 m 311 -14 q 147 30 210 -14 q 83 167 83 74 q 138 306 83 257 q 319 356 193 356 l 582 356 l 582 440 q 563 556 582 514 q 497 618 544 599 q 358 638 449 638 q 157 603 253 638 l 157 639 q 371 672 240 672 q 562 619 503 672 q 621 443 621 565 l 621 0 l 590 0 l 585 90 q 471 11 536 36 q 311 -14 406 -14 m 321 21 q 471 47 408 21 q 582 132 533 74 l 582 319 l 322 319 q 165 282 210 319 q 121 167 121 244 q 321 21 121 21 z "},"ặ":{"ha":725,"x_min":83,"x_max":621,"o":"m 389 725 q 295 763 333 725 q 257 857 257 801 l 292 857 q 319 788 292 815 q 389 760 347 760 q 460 788 432 760 q 488 857 488 815 l 522 857 q 483 763 522 801 q 389 725 444 725 m 311 -14 q 147 30 210 -14 q 83 167 83 74 q 138 306 83 257 q 319 356 193 356 l 582 356 l 582 440 q 563 556 582 514 q 497 618 544 599 q 358 638 449 638 q 157 603 253 638 l 157 639 q 371 672 240 672 q 562 619 503 672 q 621 443 621 565 l 621 0 l 590 0 l 585 90 q 471 11 536 36 q 311 -14 406 -14 m 321 21 q 471 47 408 21 q 582 132 533 74 l 582 319 l 322 319 q 165 282 210 319 q 121 167 121 244 q 321 21 121 21 m 365 -142 l 417 -142 l 417 -193 l 365 -193 l 365 -142 z "},"ằ":{"ha":725,"x_min":83,"x_max":621,"o":"m 292 1004 l 332 1004 l 411 853 l 381 853 l 292 1004 m 378 725 q 249 767 300 725 q 197 897 197 808 l 232 897 q 272 794 232 828 q 378 760 311 760 q 484 794 444 760 q 524 897 524 828 l 558 897 q 507 767 558 808 q 378 725 456 725 m 311 -14 q 147 30 210 -14 q 83 167 83 74 q 138 306 83 257 q 319 356 193 356 l 582 356 l 582 440 q 563 556 582 514 q 497 618 544 599 q 358 638 449 638 q 157 603 253 638 l 157 639 q 371 672 240 672 q 562 619 503 672 q 621 443 621 565 l 621 0 l 590 0 l 585 90 q 471 11 536 36 q 311 -14 406 -14 m 321 21 q 471 47 408 21 q 582 132 533 74 l 582 319 l 322 319 q 165 282 210 319 q 121 167 121 244 q 321 21 121 21 z "},"ẳ":{"ha":725,"x_min":83,"x_max":621,"o":"m 328 901 q 422 921 399 906 q 446 971 446 936 q 368 1033 446 1033 q 285 1015 325 1033 l 285 1050 q 368 1067 322 1067 q 451 1042 421 1067 q 481 971 481 1017 q 453 903 481 926 q 367 875 426 881 l 367 824 l 328 824 l 328 901 m 372 725 q 243 767 294 725 q 192 897 192 808 l 226 897 q 266 794 226 828 q 372 760 306 760 q 478 794 439 760 q 518 897 518 828 l 553 897 q 501 767 553 808 q 372 725 450 725 m 311 -14 q 147 30 210 -14 q 83 167 83 74 q 138 306 83 257 q 319 356 193 356 l 582 356 l 582 440 q 563 556 582 514 q 497 618 544 599 q 358 638 449 638 q 157 603 253 638 l 157 639 q 371 672 240 672 q 562 619 503 672 q 621 443 621 565 l 621 0 l 590 0 l 585 90 q 471 11 536 36 q 311 -14 406 -14 m 321 21 q 471 47 408 21 q 582 132 533 74 l 582 319 l 322 319 q 165 282 210 319 q 121 167 121 244 q 321 21 121 21 z "},"ẵ":{"ha":725,"x_min":83,"x_max":621,"o":"m 199 990 q 296 1026 232 1026 q 335 1021 318 1026 q 378 1003 351 1015 q 449 982 417 982 q 504 992 481 982 q 550 1026 528 1001 l 550 983 q 453 947 517 947 q 413 953 431 947 q 368 971 394 958 q 300 992 326 992 q 244 982 268 992 q 199 947 221 972 l 199 990 m 376 725 q 247 767 299 725 q 196 897 196 808 l 231 897 q 270 794 231 828 q 376 760 310 760 q 483 794 443 760 q 522 897 522 828 l 557 897 q 506 767 557 808 q 376 725 454 725 m 311 -14 q 147 30 210 -14 q 83 167 83 74 q 138 306 83 257 q 319 356 193 356 l 582 356 l 582 440 q 563 556 582 514 q 497 618 544 599 q 358 638 449 638 q 157 603 253 638 l 157 639 q 371 672 240 672 q 562 619 503 672 q 621 443 621 565 l 621 0 l 590 0 l 585 90 q 471 11 536 36 q 311 -14 406 -14 m 321 21 q 471 47 408 21 q 582 132 533 74 l 582 319 l 322 319 q 165 282 210 319 q 121 167 121 244 q 321 21 121 21 z "},"ǎ":{"ha":725,"x_min":83,"x_max":621,"o":"m 228 894 l 268 894 l 381 750 l 493 894 l 533 894 l 401 725 l 360 725 l 228 894 m 311 -14 q 147 30 210 -14 q 83 167 83 74 q 138 306 83 257 q 319 356 193 356 l 582 356 l 582 440 q 563 556 582 514 q 497 618 544 599 q 358 638 449 638 q 157 603 253 638 l 157 639 q 371 672 240 672 q 562 619 503 672 q 621 443 621 565 l 621 0 l 590 0 l 585 90 q 471 11 536 36 q 311 -14 406 -14 m 321 21 q 471 47 408 21 q 582 132 533 74 l 582 319 l 322 319 q 165 282 210 319 q 121 167 121 244 q 321 21 121 21 z "},"â":{"ha":725,"x_min":83,"x_max":621,"o":"m 361 894 l 403 894 l 535 725 l 494 725 l 382 869 l 269 725 l 229 725 l 361 894 m 311 -14 q 147 30 210 -14 q 83 167 83 74 q 138 306 83 257 q 319 356 193 356 l 582 356 l 582 440 q 563 556 582 514 q 497 618 544 599 q 358 638 449 638 q 157 603 253 638 l 157 639 q 371 672 240 672 q 562 619 503 672 q 621 443 621 565 l 621 0 l 590 0 l 585 90 q 471 11 536 36 q 311 -14 406 -14 m 321 21 q 471 47 408 21 q 582 132 533 74 l 582 319 l 322 319 q 165 282 210 319 q 121 167 121 244 q 321 21 121 21 z "},"ấ":{"ha":725,"x_min":83,"x_max":621,"o":"m 554 1018 l 594 1018 l 506 867 l 475 867 l 554 1018 m 372 867 l 414 867 l 546 725 l 506 725 l 393 844 l 281 725 l 240 725 l 372 867 m 311 -14 q 147 30 210 -14 q 83 167 83 74 q 138 306 83 257 q 319 356 193 356 l 582 356 l 582 440 q 563 556 582 514 q 497 618 544 599 q 358 638 449 638 q 157 603 253 638 l 157 639 q 371 672 240 672 q 562 619 503 672 q 621 443 621 565 l 621 0 l 590 0 l 585 90 q 471 11 536 36 q 311 -14 406 -14 m 321 21 q 471 47 408 21 q 582 132 533 74 l 582 319 l 322 319 q 165 282 210 319 q 121 167 121 244 q 321 21 121 21 z "},"ậ":{"ha":725,"x_min":83,"x_max":621,"o":"m 365 894 l 407 894 l 539 725 l 499 725 l 386 869 l 274 725 l 233 725 l 365 894 m 311 -14 q 147 30 210 -14 q 83 167 83 74 q 138 306 83 257 q 319 356 193 356 l 582 356 l 582 440 q 563 556 582 514 q 497 618 544 599 q 358 638 449 638 q 157 603 253 638 l 157 639 q 371 672 240 672 q 562 619 503 672 q 621 443 621 565 l 621 0 l 590 0 l 585 90 q 471 11 536 36 q 311 -14 406 -14 m 321 21 q 471 47 408 21 q 582 132 533 74 l 582 319 l 322 319 q 165 282 210 319 q 121 167 121 244 q 321 21 121 21 m 363 -142 l 414 -142 l 414 -193 l 363 -193 l 363 -142 z "},"ầ":{"ha":725,"x_min":83,"x_max":621,"o":"m 190 1018 l 231 1018 l 310 867 l 279 867 l 190 1018 m 371 867 l 413 867 l 544 725 l 504 725 l 392 844 l 279 725 l 239 725 l 371 867 m 311 -14 q 147 30 210 -14 q 83 167 83 74 q 138 306 83 257 q 319 356 193 356 l 582 356 l 582 440 q 563 556 582 514 q 497 618 544 599 q 358 638 449 638 q 157 603 253 638 l 157 639 q 371 672 240 672 q 562 619 503 672 q 621 443 621 565 l 621 0 l 590 0 l 585 90 q 471 11 536 36 q 311 -14 406 -14 m 321 21 q 471 47 408 21 q 582 132 533 74 l 582 319 l 322 319 q 165 282 210 319 q 121 167 121 244 q 321 21 121 21 z "},"ẩ":{"ha":725,"x_min":83,"x_max":629,"o":"m 476 915 q 571 935 547 919 q 594 985 594 950 q 517 1047 594 1047 q 433 1029 474 1047 l 433 1064 q 517 1081 471 1081 q 599 1056 569 1081 q 629 985 629 1031 q 602 917 629 940 q 515 889 575 894 l 515 838 l 476 838 l 476 915 m 364 867 l 406 867 l 538 725 l 497 725 l 385 844 l 272 725 l 232 725 l 364 867 m 311 -14 q 147 30 210 -14 q 83 167 83 74 q 138 306 83 257 q 319 356 193 356 l 582 356 l 582 440 q 563 556 582 514 q 497 618 544 599 q 358 638 449 638 q 157 603 253 638 l 157 639 q 371 672 240 672 q 562 619 503 672 q 621 443 621 565 l 621 0 l 590 0 l 585 90 q 471 11 536 36 q 311 -14 406 -14 m 321 21 q 471 47 408 21 q 582 132 533 74 l 582 319 l 322 319 q 165 282 210 319 q 121 167 121 244 q 321 21 121 21 z "},"ẫ":{"ha":725,"x_min":83,"x_max":621,"o":"m 218 928 q 315 964 251 964 q 354 958 338 964 q 397 940 371 953 q 468 919 436 919 q 524 929 500 919 q 569 964 547 939 l 569 921 q 472 885 536 885 q 432 890 450 885 q 388 908 414 896 q 319 929 346 929 q 264 919 288 929 q 218 885 240 910 l 218 928 m 369 867 l 411 867 l 543 725 l 503 725 l 390 844 l 278 725 l 238 725 l 369 867 m 311 -14 q 147 30 210 -14 q 83 167 83 74 q 138 306 83 257 q 319 356 193 356 l 582 356 l 582 440 q 563 556 582 514 q 497 618 544 599 q 358 638 449 638 q 157 603 253 638 l 157 639 q 371 672 240 672 q 562 619 503 672 q 621 443 621 565 l 621 0 l 590 0 l 585 90 q 471 11 536 36 q 311 -14 406 -14 m 321 21 q 471 47 408 21 q 582 132 533 74 l 582 319 l 322 319 q 165 282 210 319 q 121 167 121 244 q 321 21 121 21 z "},"ä":{"ha":725,"x_min":83,"x_max":621,"o":"m 254 815 l 303 815 l 303 767 l 254 767 l 254 815 m 472 815 l 521 815 l 521 767 l 472 767 l 472 815 m 311 -14 q 147 30 210 -14 q 83 167 83 74 q 138 306 83 257 q 319 356 193 356 l 582 356 l 582 440 q 563 556 582 514 q 497 618 544 599 q 358 638 449 638 q 157 603 253 638 l 157 639 q 371 672 240 672 q 562 619 503 672 q 621 443 621 565 l 621 0 l 590 0 l 585 90 q 471 11 536 36 q 311 -14 406 -14 m 321 21 q 471 47 408 21 q 582 132 533 74 l 582 319 l 322 319 q 165 282 210 319 q 121 167 121 244 q 321 21 121 21 z "},"ạ":{"ha":725,"x_min":83,"x_max":621,"o":"m 311 -14 q 147 30 210 -14 q 83 167 83 74 q 138 306 83 257 q 319 356 193 356 l 582 356 l 582 440 q 563 556 582 514 q 497 618 544 599 q 358 638 449 638 q 157 603 253 638 l 157 639 q 371 672 240 672 q 562 619 503 672 q 621 443 621 565 l 621 0 l 590 0 l 585 90 q 471 11 536 36 q 311 -14 406 -14 m 321 21 q 471 47 408 21 q 582 132 533 74 l 582 319 l 322 319 q 165 282 210 319 q 121 167 121 244 q 321 21 121 21 m 363 -142 l 414 -142 l 414 -193 l 363 -193 l 363 -142 z "},"à":{"ha":725,"x_min":83,"x_max":621,"o":"m 288 932 l 329 932 l 417 725 l 385 725 l 288 932 m 311 -14 q 147 30 210 -14 q 83 167 83 74 q 138 306 83 257 q 319 356 193 356 l 582 356 l 582 440 q 563 556 582 514 q 497 618 544 599 q 358 638 449 638 q 157 603 253 638 l 157 639 q 371 672 240 672 q 562 619 503 672 q 621 443 621 565 l 621 0 l 590 0 l 585 90 q 471 11 536 36 q 311 -14 406 -14 m 321 21 q 471 47 408 21 q 582 132 533 74 l 582 319 l 322 319 q 165 282 210 319 q 121 167 121 244 q 321 21 121 21 z "},"ả":{"ha":725,"x_min":83,"x_max":621,"o":"m 350 815 q 434 829 406 818 q 472 859 463 840 q 482 908 482 878 q 453 971 482 950 q 361 992 425 992 q 310 987 338 992 q 265 975 283 982 l 265 1010 q 310 1022 281 1017 q 363 1026 340 1026 q 478 996 439 1026 q 517 908 517 965 q 488 824 517 853 q 389 789 460 794 l 389 711 l 350 711 l 350 815 m 311 -14 q 147 30 210 -14 q 83 167 83 74 q 138 306 83 257 q 319 356 193 356 l 582 356 l 582 440 q 563 556 582 514 q 497 618 544 599 q 358 638 449 638 q 157 603 253 638 l 157 639 q 371 672 240 672 q 562 619 503 672 q 621 443 621 565 l 621 0 l 590 0 l 585 90 q 471 11 536 36 q 311 -14 406 -14 m 321 21 q 471 47 408 21 q 582 132 533 74 l 582 319 l 322 319 q 165 282 210 319 q 121 167 121 244 q 321 21 121 21 z "},"ɑ":{"ha":769,"x_min":83,"x_max":658,"o":"m 376 -14 q 164 68 244 -14 q 83 321 83 150 q 165 584 83 496 q 388 672 246 672 q 513 656 461 672 q 619 597 565 639 l 619 658 l 658 658 l 658 0 l 626 0 l 621 79 q 513 8 572 31 q 376 -14 454 -14 m 383 21 q 513 44 456 21 q 619 119 571 68 l 619 557 q 522 617 572 597 q 400 638 471 638 q 192 558 264 638 q 121 321 121 479 q 188 96 121 171 q 383 21 256 21 z "},"ā":{"ha":725,"x_min":83,"x_max":621,"o":"m 199 801 l 569 801 l 569 767 l 199 767 l 199 801 m 311 -14 q 147 30 210 -14 q 83 167 83 74 q 138 306 83 257 q 319 356 193 356 l 582 356 l 582 440 q 563 556 582 514 q 497 618 544 599 q 358 638 449 638 q 157 603 253 638 l 157 639 q 371 672 240 672 q 562 619 503 672 q 621 443 621 565 l 621 0 l 590 0 l 585 90 q 471 11 536 36 q 311 -14 406 -14 m 321 21 q 471 47 408 21 q 582 132 533 74 l 582 319 l 322 319 q 165 282 210 319 q 121 167 121 244 q 321 21 121 21 z "},"ą":{"ha":779,"x_min":83,"x_max":661,"o":"m 592 -306 q 508 -278 539 -306 q 476 -187 476 -250 q 508 -82 476 -133 q 586 0 540 -31 l 585 90 q 471 11 536 36 q 311 -14 406 -14 q 147 30 210 -14 q 83 167 83 74 q 138 306 83 257 q 319 356 193 356 l 582 356 l 582 440 q 563 556 582 514 q 497 618 544 599 q 358 638 449 638 q 157 603 253 638 l 157 639 q 371 672 240 672 q 562 619 503 672 q 621 443 621 565 l 621 0 q 540 -87 567 -39 q 514 -187 514 -136 q 532 -251 514 -231 q 592 -271 550 -271 q 629 -267 610 -271 q 661 -256 649 -262 l 661 -290 q 592 -306 635 -306 m 321 21 q 471 47 408 21 q 582 132 533 74 l 582 319 l 322 319 q 165 282 210 319 q 121 167 121 244 q 321 21 121 21 z "},"å":{"ha":725,"x_min":83,"x_max":621,"o":"m 396 725 q 302 763 340 725 q 264 857 264 801 q 302 951 264 913 q 396 990 340 990 q 491 952 453 990 q 529 857 529 914 q 490 763 529 801 q 396 725 451 725 m 396 760 q 467 788 439 760 q 494 857 494 815 q 467 928 494 900 q 396 956 439 956 q 326 928 354 956 q 299 857 299 900 q 326 788 299 815 q 396 760 354 760 m 311 -14 q 147 30 210 -14 q 83 167 83 74 q 138 306 83 257 q 319 356 193 356 l 582 356 l 582 440 q 563 556 582 514 q 497 618 544 599 q 358 638 449 638 q 157 603 253 638 l 157 639 q 371 672 240 672 q 562 619 503 672 q 621 443 621 565 l 621 0 l 590 0 l 585 90 q 471 11 536 36 q 311 -14 406 -14 m 321 21 q 471 47 408 21 q 582 132 533 74 l 582 319 l 322 319 q 165 282 210 319 q 121 167 121 244 q 321 21 121 21 z "},"ǻ":{"ha":725,"x_min":83,"x_max":621,"o":"m 458 1249 l 500 1249 l 403 1083 l 371 1083 l 458 1249 m 392 725 q 298 763 336 725 q 260 857 260 801 q 298 951 260 913 q 392 990 336 990 q 487 952 449 990 q 525 857 525 914 q 486 763 525 801 q 392 725 447 725 m 392 760 q 463 788 435 760 q 490 857 490 815 q 463 928 490 900 q 392 956 435 956 q 322 928 350 956 q 294 857 294 900 q 322 788 294 815 q 392 760 350 760 m 311 -14 q 147 30 210 -14 q 83 167 83 74 q 138 306 83 257 q 319 356 193 356 l 582 356 l 582 440 q 563 556 582 514 q 497 618 544 599 q 358 638 449 638 q 157 603 253 638 l 157 639 q 371 672 240 672 q 562 619 503 672 q 621 443 621 565 l 621 0 l 590 0 l 585 90 q 471 11 536 36 q 311 -14 406 -14 m 321 21 q 471 47 408 21 q 582 132 533 74 l 582 319 l 322 319 q 165 282 210 319 q 121 167 121 244 q 321 21 121 21 z "},"ã":{"ha":725,"x_min":83,"x_max":621,"o":"m 478 767 q 436 773 456 767 q 385 793 417 779 q 310 817 335 817 q 253 806 278 817 q 206 769 228 796 l 206 813 q 248 841 221 831 q 306 851 275 851 q 347 845 328 851 q 396 825 365 839 q 437 808 419 814 q 474 801 454 801 q 528 812 506 801 q 568 849 550 822 l 568 806 q 478 767 540 767 m 311 -14 q 147 30 210 -14 q 83 167 83 74 q 138 306 83 257 q 319 356 193 356 l 582 356 l 582 440 q 563 556 582 514 q 497 618 544 599 q 358 638 449 638 q 157 603 253 638 l 157 639 q 371 672 240 672 q 562 619 503 672 q 621 443 621 565 l 621 0 l 590 0 l 585 90 q 471 11 536 36 q 311 -14 406 -14 m 321 21 q 471 47 408 21 q 582 132 533 74 l 582 319 l 322 319 q 165 282 210 319 q 121 167 121 244 q 321 21 121 21 z "},"æ":{"ha":1218,"x_min":83,"x_max":1135,"o":"m 311 -14 q 147 30 210 -14 q 83 167 83 74 q 138 306 83 257 q 319 356 193 356 l 582 356 l 582 440 q 564 556 582 514 q 499 618 546 599 q 363 638 451 638 q 157 603 253 638 l 157 639 q 371 672 240 672 q 538 636 479 672 q 613 518 597 600 q 876 672 678 672 q 1071 601 1007 672 q 1135 417 1135 529 l 1135 303 l 621 303 q 650 140 621 201 q 744 49 679 78 q 919 21 808 21 q 1090 56 1004 21 l 1090 19 q 913 -14 1006 -14 q 711 25 785 -14 q 607 150 638 64 q 494 27 571 68 q 311 -14 417 -14 m 1096 339 l 1096 411 q 1042 578 1096 518 q 876 638 989 638 q 680 561 739 638 q 621 339 621 485 l 1096 339 m 321 21 q 450 44 390 21 q 546 112 510 68 q 582 214 582 156 l 582 319 l 322 319 q 165 282 210 319 q 121 167 121 244 q 321 21 121 21 z "},"ǽ":{"ha":1218,"x_min":83,"x_max":1135,"o":"m 703 932 l 744 932 l 647 725 l 615 725 l 703 932 m 311 -14 q 147 30 210 -14 q 83 167 83 74 q 138 306 83 257 q 319 356 193 356 l 582 356 l 582 440 q 564 556 582 514 q 499 618 546 599 q 363 638 451 638 q 157 603 253 638 l 157 639 q 371 672 240 672 q 538 636 479 672 q 613 518 597 600 q 876 672 678 672 q 1071 601 1007 672 q 1135 417 1135 529 l 1135 303 l 621 303 q 650 140 621 201 q 744 49 679 78 q 919 21 808 21 q 1090 56 1004 21 l 1090 19 q 913 -14 1006 -14 q 711 25 785 -14 q 607 150 638 64 q 494 27 571 68 q 311 -14 417 -14 m 1096 339 l 1096 411 q 1042 578 1096 518 q 876 638 989 638 q 680 561 739 638 q 621 339 621 485 l 1096 339 m 321 21 q 450 44 390 21 q 546 112 510 68 q 582 214 582 156 l 582 319 l 322 319 q 165 282 210 319 q 121 167 121 244 q 321 21 121 21 z "},"b":{"ha":769,"x_min":111,"x_max":686,"o":"m 393 -14 q 256 8 315 -14 q 149 79 197 31 l 143 0 l 111 0 l 111 936 l 150 936 l 150 597 q 263 654 204 636 q 396 672 322 672 q 612 591 538 672 q 686 335 686 510 q 610 72 686 158 q 393 -14 535 -14 m 386 21 q 586 99 524 21 q 649 335 649 178 q 584 565 649 493 q 383 638 519 638 q 150 557 250 638 l 150 119 q 256 44 199 68 q 386 21 314 21 z "},"c":{"ha":661,"x_min":83,"x_max":578,"o":"m 397 -14 q 158 74 233 -14 q 83 329 83 163 q 169 585 83 499 q 411 672 256 672 q 505 665 468 672 q 578 639 542 657 l 578 603 q 499 629 538 621 q 415 638 461 638 q 197 560 272 638 q 121 329 121 483 q 188 95 121 169 q 407 21 254 21 q 578 56 494 21 l 578 19 q 397 -14 500 -14 z "},"ć":{"ha":661,"x_min":83,"x_max":578,"o":"m 444 932 l 486 932 l 389 725 l 357 725 l 444 932 m 397 -14 q 158 74 233 -14 q 83 329 83 163 q 169 585 83 499 q 411 672 256 672 q 505 665 468 672 q 578 639 542 657 l 578 603 q 499 629 538 621 q 415 638 461 638 q 197 560 272 638 q 121 329 121 483 q 188 95 121 169 q 407 21 254 21 q 578 56 494 21 l 578 19 q 397 -14 500 -14 z "},"č":{"ha":661,"x_min":83,"x_max":578,"o":"m 232 894 l 272 894 l 385 750 l 497 894 l 538 894 l 406 725 l 364 725 l 232 894 m 397 -14 q 158 74 233 -14 q 83 329 83 163 q 169 585 83 499 q 411 672 256 672 q 505 665 468 672 q 578 639 542 657 l 578 603 q 499 629 538 621 q 415 638 461 638 q 197 560 272 638 q 121 329 121 483 q 188 95 121 169 q 407 21 254 21 q 578 56 494 21 l 578 19 q 397 -14 500 -14 z "},"ç":{"ha":661,"x_min":83,"x_max":578,"o":"m 338 -333 q 250 -322 292 -333 l 250 -287 q 339 -299 290 -299 q 451 -275 415 -299 q 488 -196 488 -251 q 454 -126 488 -147 q 350 -106 421 -106 l 311 -106 l 344 -11 q 146 90 208 3 q 83 329 83 176 q 169 585 83 499 q 411 672 256 672 q 505 665 468 672 q 578 639 542 657 l 578 603 q 499 629 538 621 q 415 638 461 638 q 197 560 272 638 q 121 329 121 483 q 188 95 121 169 q 407 21 254 21 q 578 56 494 21 l 578 19 q 397 -14 500 -14 l 382 -14 l 361 -74 q 483 -103 440 -74 q 525 -193 525 -133 q 481 -298 525 -262 q 338 -333 436 -333 z "},"ĉ":{"ha":661,"x_min":83,"x_max":578,"o":"m 371 894 l 413 894 l 544 725 l 504 725 l 392 869 l 279 725 l 239 725 l 371 894 m 397 -14 q 158 74 233 -14 q 83 329 83 163 q 169 585 83 499 q 411 672 256 672 q 505 665 468 672 q 578 639 542 657 l 578 603 q 499 629 538 621 q 415 638 461 638 q 197 560 272 638 q 121 329 121 483 q 188 95 121 169 q 407 21 254 21 q 578 56 494 21 l 578 19 q 397 -14 500 -14 z "},"ċ":{"ha":661,"x_min":83,"x_max":578,"o":"m 369 815 l 418 815 l 418 767 l 369 767 l 369 815 m 397 -14 q 158 74 233 -14 q 83 329 83 163 q 169 585 83 499 q 411 672 256 672 q 505 665 468 672 q 578 639 542 657 l 578 603 q 499 629 538 621 q 415 638 461 638 q 197 560 272 638 q 121 329 121 483 q 188 95 121 169 q 407 21 254 21 q 578 56 494 21 l 578 19 q 397 -14 500 -14 z "},"d":{"ha":769,"x_min":83,"x_max":658,"o":"m 376 -14 q 164 68 244 -14 q 83 321 83 150 q 165 584 83 496 q 388 672 246 672 q 513 656 461 672 q 619 597 565 639 l 619 936 l 658 936 l 658 0 l 626 0 l 621 79 q 513 8 572 31 q 376 -14 454 -14 m 383 21 q 513 44 456 21 q 619 119 571 68 l 619 557 q 522 617 572 597 q 400 638 471 638 q 192 558 264 638 q 121 321 121 479 q 188 96 121 171 q 383 21 256 21 z "},"ð":{"ha":789,"x_min":83,"x_max":740,"o":"m 383 -14 q 162 62 240 -14 q 83 269 83 138 q 160 478 83 406 q 383 550 236 550 q 515 527 446 550 q 646 458 585 504 l 646 550 q 589 789 646 710 l 399 706 l 399 740 l 568 814 q 400 874 506 874 q 207 847 283 874 l 207 883 q 400 908 292 908 q 601 829 529 908 l 740 890 l 740 856 l 622 803 q 685 546 685 713 l 685 317 q 609 65 685 143 q 383 -14 533 -14 m 385 21 q 646 289 646 21 l 646 422 q 522 490 590 464 q 388 515 453 515 q 184 451 247 515 q 121 269 121 388 q 188 88 121 154 q 385 21 256 21 z "},"ď":{"ha":933,"x_min":83,"x_max":892,"o":"m 850 992 l 892 992 l 794 785 l 763 785 l 850 992 m 376 -14 q 164 68 244 -14 q 83 321 83 150 q 165 584 83 496 q 388 672 246 672 q 513 656 461 672 q 619 597 565 639 l 619 936 l 658 936 l 658 0 l 626 0 l 621 79 q 513 8 572 31 q 376 -14 454 -14 m 383 21 q 513 44 456 21 q 619 119 571 68 l 619 557 q 522 617 572 597 q 400 638 471 638 q 192 558 264 638 q 121 321 121 479 q 188 96 121 171 q 383 21 256 21 z "},"đ":{"ha":796,"x_min":83,"x_max":754,"o":"m 376 -14 q 164 68 244 -14 q 83 321 83 150 q 165 584 83 496 q 388 672 246 672 q 513 656 461 672 q 619 597 565 639 l 619 789 l 388 789 l 388 824 l 619 824 l 619 958 l 658 958 l 658 824 l 754 824 l 754 789 l 658 789 l 658 0 l 626 0 l 621 79 q 513 8 572 31 q 376 -14 454 -14 m 383 21 q 513 44 456 21 q 619 119 571 68 l 619 557 q 522 617 572 597 q 400 638 471 638 q 192 558 264 638 q 121 321 121 479 q 188 96 121 171 q 383 21 256 21 z "},"ḍ":{"ha":769,"x_min":83,"x_max":658,"o":"m 376 -14 q 164 68 244 -14 q 83 321 83 150 q 165 584 83 496 q 388 672 246 672 q 513 656 461 672 q 619 597 565 639 l 619 936 l 658 936 l 658 0 l 626 0 l 621 79 q 513 8 572 31 q 376 -14 454 -14 m 383 21 q 513 44 456 21 q 619 119 571 68 l 619 557 q 522 617 572 597 q 400 638 471 638 q 192 558 264 638 q 121 321 121 479 q 188 96 121 171 q 383 21 256 21 m 363 -142 l 414 -142 l 414 -193 l 363 -193 l 363 -142 z "},"ḏ":{"ha":769,"x_min":83,"x_max":658,"o":"m 376 -14 q 164 68 244 -14 q 83 321 83 150 q 165 584 83 496 q 388 672 246 672 q 513 656 461 672 q 619 597 565 639 l 619 936 l 658 936 l 658 0 l 626 0 l 621 79 q 513 8 572 31 q 376 -14 454 -14 m 383 21 q 513 44 456 21 q 619 119 571 68 l 619 557 q 522 617 572 597 q 400 638 471 638 q 192 558 264 638 q 121 321 121 479 q 188 96 121 171 q 383 21 256 21 m 214 -106 l 585 -106 l 585 -140 l 214 -140 l 214 -106 z "},"e":{"ha":719,"x_min":83,"x_max":636,"o":"m 414 -14 q 160 69 236 -14 q 83 335 83 151 q 153 586 83 500 q 378 672 224 672 q 572 601 508 672 q 636 417 636 529 l 636 303 l 122 303 q 153 142 125 203 q 247 51 182 81 q 421 21 311 21 q 592 56 506 21 l 592 19 q 414 -14 507 -14 m 597 339 l 597 411 q 544 578 597 518 q 378 638 490 638 q 181 561 240 638 q 122 339 122 485 l 597 339 z "},"é":{"ha":719,"x_min":83,"x_max":636,"o":"m 438 932 l 479 932 l 382 725 l 350 725 l 438 932 m 414 -14 q 160 69 236 -14 q 83 335 83 151 q 153 586 83 500 q 378 672 224 672 q 572 601 508 672 q 636 417 636 529 l 636 303 l 122 303 q 153 142 125 203 q 247 51 182 81 q 421 21 311 21 q 592 56 506 21 l 592 19 q 414 -14 507 -14 m 597 339 l 597 411 q 544 578 597 518 q 378 638 490 638 q 181 561 240 638 q 122 339 122 485 l 597 339 z "},"ĕ":{"ha":719,"x_min":83,"x_max":636,"o":"m 383 725 q 290 763 328 725 q 251 857 251 801 l 286 857 q 314 788 286 815 q 383 760 342 760 q 454 788 426 760 q 482 857 482 815 l 517 857 q 478 763 517 801 q 383 725 439 725 m 414 -14 q 160 69 236 -14 q 83 335 83 151 q 153 586 83 500 q 378 672 224 672 q 572 601 508 672 q 636 417 636 529 l 636 303 l 122 303 q 153 142 125 203 q 247 51 182 81 q 421 21 311 21 q 592 56 506 21 l 592 19 q 414 -14 507 -14 m 597 339 l 597 411 q 544 578 597 518 q 378 638 490 638 q 181 561 240 638 q 122 339 122 485 l 597 339 z "},"ě":{"ha":719,"x_min":83,"x_max":636,"o":"m 239 894 l 279 894 l 392 750 l 504 894 l 544 894 l 413 725 l 371 725 l 239 894 m 414 -14 q 160 69 236 -14 q 83 335 83 151 q 153 586 83 500 q 378 672 224 672 q 572 601 508 672 q 636 417 636 529 l 636 303 l 122 303 q 153 142 125 203 q 247 51 182 81 q 421 21 311 21 q 592 56 506 21 l 592 19 q 414 -14 507 -14 m 597 339 l 597 411 q 544 578 597 518 q 378 638 490 638 q 181 561 240 638 q 122 339 122 485 l 597 339 z "},"ê":{"ha":719,"x_min":83,"x_max":636,"o":"m 357 894 l 399 894 l 531 725 l 490 725 l 378 869 l 265 725 l 225 725 l 357 894 m 414 -14 q 160 69 236 -14 q 83 335 83 151 q 153 586 83 500 q 378 672 224 672 q 572 601 508 672 q 636 417 636 529 l 636 303 l 122 303 q 153 142 125 203 q 247 51 182 81 q 421 21 311 21 q 592 56 506 21 l 592 19 q 414 -14 507 -14 m 597 339 l 597 411 q 544 578 597 518 q 378 638 490 638 q 181 561 240 638 q 122 339 122 485 l 597 339 z "},"ế":{"ha":719,"x_min":83,"x_max":636,"o":"m 540 1018 l 581 1018 l 492 867 l 461 867 l 540 1018 m 358 867 l 400 867 l 532 725 l 492 725 l 379 844 l 267 725 l 226 725 l 358 867 m 414 -14 q 160 69 236 -14 q 83 335 83 151 q 153 586 83 500 q 378 672 224 672 q 572 601 508 672 q 636 417 636 529 l 636 303 l 122 303 q 153 142 125 203 q 247 51 182 81 q 421 21 311 21 q 592 56 506 21 l 592 19 q 414 -14 507 -14 m 597 339 l 597 411 q 544 578 597 518 q 378 638 490 638 q 181 561 240 638 q 122 339 122 485 l 597 339 z "},"ệ":{"ha":719,"x_min":83,"x_max":636,"o":"m 368 894 l 410 894 l 542 725 l 501 725 l 389 869 l 276 725 l 236 725 l 368 894 m 414 -14 q 160 69 236 -14 q 83 335 83 151 q 153 586 83 500 q 378 672 224 672 q 572 601 508 672 q 636 417 636 529 l 636 303 l 122 303 q 153 142 125 203 q 247 51 182 81 q 421 21 311 21 q 592 56 506 21 l 592 19 q 414 -14 507 -14 m 597 339 l 597 411 q 544 578 597 518 q 378 638 490 638 q 181 561 240 638 q 122 339 122 485 l 597 339 m 364 -142 l 415 -142 l 415 -193 l 364 -193 l 364 -142 z "},"ề":{"ha":719,"x_min":83,"x_max":636,"o":"m 190 1046 l 231 1046 l 310 894 l 279 894 l 190 1046 m 371 894 l 413 894 l 544 753 l 504 753 l 392 872 l 279 753 l 239 753 l 371 894 m 414 -14 q 160 69 236 -14 q 83 335 83 151 q 153 586 83 500 q 378 672 224 672 q 572 601 508 672 q 636 417 636 529 l 636 303 l 122 303 q 153 142 125 203 q 247 51 182 81 q 421 21 311 21 q 592 56 506 21 l 592 19 q 414 -14 507 -14 m 597 339 l 597 411 q 544 578 597 518 q 378 638 490 638 q 181 561 240 638 q 122 339 122 485 l 597 339 z "},"ể":{"ha":719,"x_min":83,"x_max":636,"o":"m 471 915 q 565 935 542 919 q 589 985 589 950 q 511 1047 589 1047 q 428 1029 468 1047 l 428 1064 q 511 1081 465 1081 q 594 1056 564 1081 q 624 985 624 1031 q 597 917 624 940 q 510 889 569 894 l 510 838 l 471 838 l 471 915 m 358 867 l 400 867 l 532 725 l 492 725 l 379 844 l 267 725 l 226 725 l 358 867 m 414 -14 q 160 69 236 -14 q 83 335 83 151 q 153 586 83 500 q 378 672 224 672 q 572 601 508 672 q 636 417 636 529 l 636 303 l 122 303 q 153 142 125 203 q 247 51 182 81 q 421 21 311 21 q 592 56 506 21 l 592 19 q 414 -14 507 -14 m 597 339 l 597 411 q 544 578 597 518 q 378 638 490 638 q 181 561 240 638 q 122 339 122 485 l 597 339 z "},"ễ":{"ha":719,"x_min":83,"x_max":636,"o":"m 215 928 q 313 964 249 964 q 351 958 335 964 q 394 940 368 953 q 465 919 433 919 q 521 929 497 919 q 567 964 544 939 l 567 921 q 469 885 533 885 q 429 890 447 885 q 385 908 411 896 q 317 929 343 929 q 261 919 285 929 q 215 885 238 910 l 215 928 m 367 867 l 408 867 l 540 725 l 500 725 l 388 844 l 275 725 l 235 725 l 367 867 m 414 -14 q 160 69 236 -14 q 83 335 83 151 q 153 586 83 500 q 378 672 224 672 q 572 601 508 672 q 636 417 636 529 l 636 303 l 122 303 q 153 142 125 203 q 247 51 182 81 q 421 21 311 21 q 592 56 506 21 l 592 19 q 414 -14 507 -14 m 597 339 l 597 411 q 544 578 597 518 q 378 638 490 638 q 181 561 240 638 q 122 339 122 485 l 597 339 z "},"ë":{"ha":719,"x_min":83,"x_max":636,"o":"m 243 815 l 292 815 l 292 767 l 243 767 l 243 815 m 461 815 l 510 815 l 510 767 l 461 767 l 461 815 m 414 -14 q 160 69 236 -14 q 83 335 83 151 q 153 586 83 500 q 378 672 224 672 q 572 601 508 672 q 636 417 636 529 l 636 303 l 122 303 q 153 142 125 203 q 247 51 182 81 q 421 21 311 21 q 592 56 506 21 l 592 19 q 414 -14 507 -14 m 597 339 l 597 411 q 544 578 597 518 q 378 638 490 638 q 181 561 240 638 q 122 339 122 485 l 597 339 z "},"ė":{"ha":719,"x_min":83,"x_max":636,"o":"m 357 815 l 406 815 l 406 767 l 357 767 l 357 815 m 414 -14 q 160 69 236 -14 q 83 335 83 151 q 153 586 83 500 q 378 672 224 672 q 572 601 508 672 q 636 417 636 529 l 636 303 l 122 303 q 153 142 125 203 q 247 51 182 81 q 421 21 311 21 q 592 56 506 21 l 592 19 q 414 -14 507 -14 m 597 339 l 597 411 q 544 578 597 518 q 378 638 490 638 q 181 561 240 638 q 122 339 122 485 l 597 339 z "},"ẹ":{"ha":719,"x_min":83,"x_max":636,"o":"m 414 -14 q 160 69 236 -14 q 83 335 83 151 q 153 586 83 500 q 378 672 224 672 q 572 601 508 672 q 636 417 636 529 l 636 303 l 122 303 q 153 142 125 203 q 247 51 182 81 q 421 21 311 21 q 592 56 506 21 l 592 19 q 414 -14 507 -14 m 597 339 l 597 411 q 544 578 597 518 q 378 638 490 638 q 181 561 240 638 q 122 339 122 485 l 597 339 m 350 -142 l 401 -142 l 401 -193 l 350 -193 l 350 -142 z "},"è":{"ha":719,"x_min":83,"x_max":636,"o":"m 267 932 l 308 932 l 396 725 l 364 725 l 267 932 m 414 -14 q 160 69 236 -14 q 83 335 83 151 q 153 586 83 500 q 378 672 224 672 q 572 601 508 672 q 636 417 636 529 l 636 303 l 122 303 q 153 142 125 203 q 247 51 182 81 q 421 21 311 21 q 592 56 506 21 l 592 19 q 414 -14 507 -14 m 597 339 l 597 411 q 544 578 597 518 q 378 638 490 638 q 181 561 240 638 q 122 339 122 485 l 597 339 z "},"ẻ":{"ha":719,"x_min":83,"x_max":636,"o":"m 364 829 q 448 843 419 832 q 486 873 476 854 q 496 922 496 892 q 467 985 496 964 q 375 1006 439 1006 q 324 1001 351 1006 q 279 989 297 996 l 279 1024 q 324 1035 294 1031 q 376 1040 354 1040 q 492 1010 453 1040 q 531 922 531 979 q 502 838 531 867 q 403 803 474 808 l 403 725 l 364 725 l 364 829 m 414 -14 q 160 69 236 -14 q 83 335 83 151 q 153 586 83 500 q 378 672 224 672 q 572 601 508 672 q 636 417 636 529 l 636 303 l 122 303 q 153 142 125 203 q 247 51 182 81 q 421 21 311 21 q 592 56 506 21 l 592 19 q 414 -14 507 -14 m 597 339 l 597 411 q 544 578 597 518 q 378 638 490 638 q 181 561 240 638 q 122 339 122 485 l 597 339 z "},"ē":{"ha":719,"x_min":83,"x_max":636,"o":"m 221 801 l 592 801 l 592 767 l 221 767 l 221 801 m 414 -14 q 160 69 236 -14 q 83 335 83 151 q 153 586 83 500 q 378 672 224 672 q 572 601 508 672 q 636 417 636 529 l 636 303 l 122 303 q 153 142 125 203 q 247 51 182 81 q 421 21 311 21 q 592 56 506 21 l 592 19 q 414 -14 507 -14 m 597 339 l 597 411 q 544 578 597 518 q 378 638 490 638 q 181 561 240 638 q 122 339 122 485 l 597 339 z "},"ę":{"ha":719,"x_min":83,"x_max":636,"o":"m 636 303 l 122 303 q 153 142 125 203 q 247 51 182 81 q 421 21 311 21 q 592 56 506 21 l 592 19 q 529 0 571 10 q 449 -87 475 -39 q 422 -187 422 -136 q 440 -251 422 -231 q 500 -271 458 -271 q 538 -267 518 -271 q 569 -256 557 -262 l 569 -290 q 500 -306 543 -306 q 416 -278 447 -306 q 385 -187 385 -250 q 411 -88 385 -136 q 476 -10 438 -40 q 414 -14 446 -14 q 160 69 236 -14 q 83 335 83 151 q 153 586 83 500 q 378 672 224 672 q 572 601 508 672 q 636 417 636 529 l 636 303 m 597 411 q 544 578 597 518 q 378 638 490 638 q 181 561 240 638 q 122 339 122 485 l 597 339 l 597 411 z "},"ẽ":{"ha":719,"x_min":83,"x_max":636,"o":"m 469 767 q 428 773 447 767 q 376 793 408 779 q 301 817 326 817 q 244 806 269 817 q 197 769 219 796 l 197 813 q 240 841 213 831 q 297 851 267 851 q 338 845 319 851 q 388 825 357 839 q 428 808 411 814 q 465 801 446 801 q 519 812 497 801 q 560 849 542 822 l 560 806 q 469 767 532 767 m 414 -14 q 160 69 236 -14 q 83 335 83 151 q 153 586 83 500 q 378 672 224 672 q 572 601 508 672 q 636 417 636 529 l 636 303 l 122 303 q 153 142 125 203 q 247 51 182 81 q 421 21 311 21 q 592 56 506 21 l 592 19 q 414 -14 507 -14 m 597 339 l 597 411 q 544 578 597 518 q 378 638 490 638 q 181 561 240 638 q 122 339 122 485 l 597 339 z "},"f":{"ha":463,"x_min":56,"x_max":435,"o":"m 160 622 l 56 622 l 56 658 l 160 658 l 160 785 q 206 914 160 869 q 340 958 253 958 q 435 944 390 958 l 435 908 q 351 924 392 924 q 234 891 269 924 q 199 788 199 858 l 199 658 l 389 658 l 386 622 l 199 622 l 199 0 l 160 0 l 160 622 z "},"g":{"ha":747,"x_min":83,"x_max":685,"o":"m 357 -244 q 110 -211 200 -244 l 110 -175 q 357 -210 214 -210 q 542 -187 483 -210 q 600 -94 600 -164 q 567 -14 600 -36 q 442 8 533 8 l 258 8 q 125 34 167 8 q 83 115 83 60 q 117 189 83 157 q 210 233 150 221 q 90 438 90 275 q 154 615 90 558 q 357 672 218 672 q 458 658 396 672 l 685 658 l 682 622 l 546 622 q 624 438 624 560 q 560 263 624 319 q 357 206 496 206 q 260 215 313 206 q 158 182 196 207 q 121 115 121 157 q 151 61 121 78 q 260 44 181 44 l 449 44 q 591 12 544 44 q 638 -92 638 -21 q 569 -213 638 -182 q 357 -244 501 -244 m 357 240 q 493 260 443 240 q 565 322 543 279 q 586 438 586 365 q 533 590 586 543 q 357 638 479 638 q 181 592 233 638 q 128 438 128 546 q 179 287 128 333 q 357 240 231 240 z "},"ğ":{"ha":747,"x_min":83,"x_max":685,"o":"m 363 725 q 269 763 307 725 q 231 857 231 801 l 265 857 q 293 788 265 815 q 363 760 321 760 q 433 788 406 760 q 461 857 461 815 l 496 857 q 457 763 496 801 q 363 725 418 725 m 357 -244 q 110 -211 200 -244 l 110 -175 q 357 -210 214 -210 q 542 -187 483 -210 q 600 -94 600 -164 q 567 -14 600 -36 q 442 8 533 8 l 258 8 q 125 34 167 8 q 83 115 83 60 q 117 189 83 157 q 210 233 150 221 q 90 438 90 275 q 154 615 90 558 q 357 672 218 672 q 458 658 396 672 l 685 658 l 682 622 l 546 622 q 624 438 624 560 q 560 263 624 319 q 357 206 496 206 q 260 215 313 206 q 158 182 196 207 q 121 115 121 157 q 151 61 121 78 q 260 44 181 44 l 449 44 q 591 12 544 44 q 638 -92 638 -21 q 569 -213 638 -182 q 357 -244 501 -244 m 357 240 q 493 260 443 240 q 565 322 543 279 q 586 438 586 365 q 533 590 586 543 q 357 638 479 638 q 181 592 233 638 q 128 438 128 546 q 179 287 128 333 q 357 240 231 240 z "},"ǧ":{"ha":747,"x_min":83,"x_max":685,"o":"m 218 894 l 258 894 l 371 750 l 483 894 l 524 894 l 392 725 l 350 725 l 218 894 m 357 -244 q 110 -211 200 -244 l 110 -175 q 357 -210 214 -210 q 542 -187 483 -210 q 600 -94 600 -164 q 567 -14 600 -36 q 442 8 533 8 l 258 8 q 125 34 167 8 q 83 115 83 60 q 117 189 83 157 q 210 233 150 221 q 90 438 90 275 q 154 615 90 558 q 357 672 218 672 q 458 658 396 672 l 685 658 l 682 622 l 546 622 q 624 438 624 560 q 560 263 624 319 q 357 206 496 206 q 260 215 313 206 q 158 182 196 207 q 121 115 121 157 q 151 61 121 78 q 260 44 181 44 l 449 44 q 591 12 544 44 q 638 -92 638 -21 q 569 -213 638 -182 q 357 -244 501 -244 m 357 240 q 493 260 443 240 q 565 322 543 279 q 586 438 586 365 q 533 590 586 543 q 357 638 479 638 q 181 592 233 638 q 128 438 128 546 q 179 287 128 333 q 357 240 231 240 z "},"ĝ":{"ha":747,"x_min":83,"x_max":685,"o":"m 346 894 l 388 894 l 519 725 l 479 725 l 367 869 l 254 725 l 214 725 l 346 894 m 357 -244 q 110 -211 200 -244 l 110 -175 q 357 -210 214 -210 q 542 -187 483 -210 q 600 -94 600 -164 q 567 -14 600 -36 q 442 8 533 8 l 258 8 q 125 34 167 8 q 83 115 83 60 q 117 189 83 157 q 210 233 150 221 q 90 438 90 275 q 154 615 90 558 q 357 672 218 672 q 458 658 396 672 l 685 658 l 682 622 l 546 622 q 624 438 624 560 q 560 263 624 319 q 357 206 496 206 q 260 215 313 206 q 158 182 196 207 q 121 115 121 157 q 151 61 121 78 q 260 44 181 44 l 449 44 q 591 12 544 44 q 638 -92 638 -21 q 569 -213 638 -182 q 357 -244 501 -244 m 357 240 q 493 260 443 240 q 565 322 543 279 q 586 438 586 365 q 533 590 586 543 q 357 638 479 638 q 181 592 233 638 q 128 438 128 546 q 179 287 128 333 q 357 240 231 240 z "},"ģ":{"ha":747,"x_min":83,"x_max":685,"o":"m 382 938 l 413 938 l 379 725 l 333 725 l 382 938 m 357 -244 q 110 -211 200 -244 l 110 -175 q 357 -210 214 -210 q 542 -187 483 -210 q 600 -94 600 -164 q 567 -14 600 -36 q 442 8 533 8 l 258 8 q 125 34 167 8 q 83 115 83 60 q 117 189 83 157 q 210 233 150 221 q 90 438 90 275 q 154 615 90 558 q 357 672 218 672 q 458 658 396 672 l 685 658 l 682 622 l 546 622 q 624 438 624 560 q 560 263 624 319 q 357 206 496 206 q 260 215 313 206 q 158 182 196 207 q 121 115 121 157 q 151 61 121 78 q 260 44 181 44 l 449 44 q 591 12 544 44 q 638 -92 638 -21 q 569 -213 638 -182 q 357 -244 501 -244 m 357 240 q 493 260 443 240 q 565 322 543 279 q 586 438 586 365 q 533 590 586 543 q 357 638 479 638 q 181 592 233 638 q 128 438 128 546 q 179 287 128 333 q 357 240 231 240 z "},"ġ":{"ha":747,"x_min":83,"x_max":685,"o":"m 361 815 l 410 815 l 410 767 l 361 767 l 361 815 m 357 -244 q 110 -211 200 -244 l 110 -175 q 357 -210 214 -210 q 542 -187 483 -210 q 600 -94 600 -164 q 567 -14 600 -36 q 442 8 533 8 l 258 8 q 125 34 167 8 q 83 115 83 60 q 117 189 83 157 q 210 233 150 221 q 90 438 90 275 q 154 615 90 558 q 357 672 218 672 q 458 658 396 672 l 685 658 l 682 622 l 546 622 q 624 438 624 560 q 560 263 624 319 q 357 206 496 206 q 260 215 313 206 q 158 182 196 207 q 121 115 121 157 q 151 61 121 78 q 260 44 181 44 l 449 44 q 591 12 544 44 q 638 -92 638 -21 q 569 -213 638 -182 q 357 -244 501 -244 m 357 240 q 493 260 443 240 q 565 322 543 279 q 586 438 586 365 q 533 590 586 543 q 357 638 479 638 q 181 592 233 638 q 128 438 128 546 q 179 287 128 333 q 357 240 231 240 z "},"ḡ":{"ha":747,"x_min":83,"x_max":685,"o":"m 186 801 l 557 801 l 557 767 l 186 767 l 186 801 m 357 -244 q 110 -211 200 -244 l 110 -175 q 357 -210 214 -210 q 542 -187 483 -210 q 600 -94 600 -164 q 567 -14 600 -36 q 442 8 533 8 l 258 8 q 125 34 167 8 q 83 115 83 60 q 117 189 83 157 q 210 233 150 221 q 90 438 90 275 q 154 615 90 558 q 357 672 218 672 q 458 658 396 672 l 685 658 l 682 622 l 546 622 q 624 438 624 560 q 560 263 624 319 q 357 206 496 206 q 260 215 313 206 q 158 182 196 207 q 121 115 121 157 q 151 61 121 78 q 260 44 181 44 l 449 44 q 591 12 544 44 q 638 -92 638 -21 q 569 -213 638 -182 q 357 -244 501 -244 m 357 240 q 493 260 443 240 q 565 322 543 279 q 586 438 586 365 q 533 590 586 543 q 357 638 479 638 q 181 592 233 638 q 128 438 128 546 q 179 287 128 333 q 357 240 231 240 z "},"h":{"ha":761,"x_min":111,"x_max":657,"o":"m 111 936 l 150 936 l 150 572 q 272 647 206 621 q 428 672 338 672 q 602 617 547 672 q 657 440 657 561 l 657 0 l 618 0 l 618 440 q 599 556 618 514 q 535 618 581 599 q 407 638 489 638 q 267 608 332 638 q 150 529 203 579 l 150 0 l 111 0 l 111 936 z "},"ħ":{"ha":800,"x_min":56,"x_max":696,"o":"m 467 672 q 641 617 586 672 q 696 440 696 561 l 696 0 l 657 0 l 657 440 q 638 556 657 514 q 574 618 619 599 q 446 638 528 638 q 306 608 371 638 q 189 529 242 579 l 189 0 l 150 0 l 150 768 l 56 768 l 56 803 l 150 803 l 150 936 l 189 936 l 189 803 l 443 803 l 443 768 l 189 768 l 189 572 q 310 647 244 621 q 467 672 376 672 z "},"ḫ":{"ha":761,"x_min":111,"x_max":657,"o":"m 111 936 l 150 936 l 150 572 q 272 647 206 621 q 428 672 338 672 q 602 617 547 672 q 657 440 657 561 l 657 0 l 618 0 l 618 440 q 599 556 618 514 q 535 618 581 599 q 407 638 489 638 q 267 608 332 638 q 150 529 203 579 l 150 0 l 111 0 l 111 936 m 386 -242 q 243 -197 301 -242 q 185 -56 185 -153 l 219 -56 q 265 -170 219 -133 q 386 -207 311 -207 q 507 -170 461 -207 q 553 -56 553 -133 l 588 -56 q 529 -197 588 -153 q 386 -242 471 -242 z "},"ĥ":{"ha":761,"x_min":111,"x_max":657,"o":"m 244 1139 l 286 1139 l 418 969 l 378 969 l 265 1114 l 153 969 l 113 969 l 244 1139 m 111 936 l 150 936 l 150 572 q 272 647 206 621 q 428 672 338 672 q 602 617 547 672 q 657 440 657 561 l 657 0 l 618 0 l 618 440 q 599 556 618 514 q 535 618 581 599 q 407 638 489 638 q 267 608 332 638 q 150 529 203 579 l 150 0 l 111 0 l 111 936 z "},"ḥ":{"ha":761,"x_min":111,"x_max":657,"o":"m 111 936 l 150 936 l 150 572 q 272 647 206 621 q 428 672 338 672 q 602 617 547 672 q 657 440 657 561 l 657 0 l 618 0 l 618 440 q 599 556 618 514 q 535 618 581 599 q 407 638 489 638 q 267 608 332 638 q 150 529 203 579 l 150 0 l 111 0 l 111 936 m 361 -142 l 413 -142 l 413 -193 l 361 -193 l 361 -142 z "},"i":{"ha":368,"x_min":111,"x_max":257,"o":"m 208 908 l 257 908 l 257 847 l 208 847 l 208 908 m 218 622 l 111 622 l 111 658 l 257 658 l 257 0 l 218 0 l 218 622 z "},"ı":{"ha":368,"x_min":111,"x_max":257,"o":"m 218 622 l 111 622 l 111 658 l 257 658 l 257 0 l 218 0 l 218 622 z "},"í":{"ha":368,"x_min":111,"x_max":333,"o":"m 292 932 l 333 932 l 236 725 l 204 725 l 292 932 m 218 622 l 111 622 l 111 658 l 257 658 l 257 0 l 218 0 l 218 622 z "},"ĭ":{"ha":368,"x_min":58,"x_max":324,"o":"m 190 725 q 97 763 135 725 q 58 857 58 801 l 93 857 q 121 788 93 815 q 190 760 149 760 q 261 788 233 760 q 289 857 289 815 l 324 857 q 285 763 324 801 q 190 725 246 725 m 218 622 l 111 622 l 111 658 l 257 658 l 257 0 l 218 0 l 218 622 z "},"ǐ":{"ha":368,"x_min":49,"x_max":354,"o":"m 49 894 l 89 894 l 201 750 l 314 894 l 354 894 l 222 725 l 181 725 l 49 894 m 218 622 l 111 622 l 111 658 l 257 658 l 257 0 l 218 0 l 218 622 z "},"î":{"ha":368,"x_min":39,"x_max":344,"o":"m 171 894 l 213 894 l 344 725 l 304 725 l 192 869 l 79 725 l 39 725 l 171 894 m 218 622 l 111 622 l 111 658 l 257 658 l 257 0 l 218 0 l 218 622 z "},"ï":{"ha":368,"x_min":51,"x_max":318,"o":"m 51 815 l 100 815 l 100 767 l 51 767 l 51 815 m 269 815 l 318 815 l 318 767 l 269 767 l 269 815 m 218 622 l 111 622 l 111 658 l 257 658 l 257 0 l 218 0 l 218 622 z "},"ị":{"ha":368,"x_min":111,"x_max":264,"o":"m 208 908 l 257 908 l 257 847 l 208 847 l 208 908 m 218 622 l 111 622 l 111 658 l 257 658 l 257 0 l 218 0 l 218 622 m 213 -142 l 264 -142 l 264 -193 l 213 -193 l 213 -142 z "},"ì":{"ha":368,"x_min":111,"x_max":257,"o":"m 119 932 l 161 932 l 249 725 l 217 725 l 119 932 m 218 622 l 111 622 l 111 658 l 257 658 l 257 0 l 218 0 l 218 622 z "},"ỉ":{"ha":368,"x_min":89,"x_max":340,"o":"m 174 829 q 258 843 229 832 q 296 873 286 854 q 306 922 306 892 q 277 985 306 964 q 185 1006 249 1006 q 134 1001 161 1006 q 89 989 107 996 l 89 1024 q 134 1035 104 1031 q 186 1040 164 1040 q 301 1010 263 1040 q 340 922 340 979 q 312 838 340 867 q 213 803 283 808 l 213 725 l 174 725 l 174 829 m 218 622 l 111 622 l 111 658 l 257 658 l 257 0 l 218 0 l 218 622 z "},"ĳ":{"ha":628,"x_min":111,"x_max":517,"o":"m 208 908 l 257 908 l 257 847 l 208 847 l 208 908 m 468 908 l 517 908 l 517 847 l 468 847 l 468 908 m 218 622 l 111 622 l 111 658 l 257 658 l 257 0 l 218 0 l 218 622 m 342 -325 q 244 -311 289 -325 l 244 -275 q 329 -290 289 -290 q 442 -256 407 -290 q 476 -153 476 -221 l 476 622 l 371 622 l 371 658 l 515 658 l 515 -153 q 469 -279 515 -233 q 342 -325 422 -325 z "},"ī":{"ha":368,"x_min":-1,"x_max":369,"o":"m -1 801 l 369 801 l 369 767 l -1 767 l -1 801 m 218 622 l 111 622 l 111 658 l 257 658 l 257 0 l 218 0 l 218 622 z "},"į":{"ha":368,"x_min":111,"x_max":296,"o":"m 257 847 l 208 847 l 208 908 l 257 908 l 257 847 m 226 -271 q 264 -267 244 -271 q 296 -256 283 -262 l 296 -290 q 226 -306 269 -306 q 142 -278 174 -306 q 111 -187 111 -250 q 142 -81 111 -132 q 217 0 172 -29 l 217 622 l 111 622 l 111 658 l 256 658 l 256 0 q 175 -87 201 -39 q 149 -187 149 -136 q 167 -251 149 -231 q 226 -271 185 -271 z "},"ĩ":{"ha":368,"x_min":1,"x_max":364,"o":"m 274 725 q 232 731 251 725 q 181 751 213 738 q 106 775 131 775 q 49 765 74 775 q 1 728 24 754 l 1 771 q 44 799 17 789 q 101 810 71 810 q 142 803 124 810 q 192 783 161 797 q 233 766 215 772 q 269 760 250 760 q 324 770 301 760 q 364 807 346 781 l 364 764 q 274 725 336 725 m 218 622 l 111 622 l 111 658 l 257 658 l 257 0 l 218 0 l 218 622 z "},"j":{"ha":369,"x_min":-14,"x_max":258,"o":"m 210 908 l 258 908 l 258 847 l 210 847 l 210 908 m 83 -325 q -14 -311 31 -325 l -14 -275 q 71 -290 31 -290 q 183 -256 149 -290 q 218 -153 218 -221 l 218 622 l 113 622 l 113 658 l 257 658 l 257 -153 q 210 -279 257 -233 q 83 -325 164 -325 z "},"ȷ":{"ha":369,"x_min":-14,"x_max":257,"o":"m 83 -325 q -14 -311 31 -325 l -14 -275 q 71 -290 31 -290 q 183 -256 149 -290 q 218 -153 218 -221 l 218 622 l 113 622 l 113 658 l 257 658 l 257 -153 q 210 -279 257 -233 q 83 -325 164 -325 z "},"ĵ":{"ha":369,"x_min":-14,"x_max":347,"o":"m 174 894 l 215 894 l 347 725 l 307 725 l 194 869 l 82 725 l 42 725 l 174 894 m 83 -325 q -14 -311 31 -325 l -14 -275 q 71 -290 31 -290 q 183 -256 149 -290 q 218 -153 218 -221 l 218 622 l 113 622 l 113 658 l 257 658 l 257 -153 q 210 -279 257 -233 q 83 -325 164 -325 z "},"k":{"ha":671,"x_min":111,"x_max":588,"o":"m 111 936 l 150 936 l 150 317 l 521 658 l 571 658 l 299 406 l 588 0 l 546 0 l 272 382 l 150 269 l 150 0 l 111 0 l 111 936 z "},"ķ":{"ha":671,"x_min":111,"x_max":588,"o":"m 111 936 l 150 936 l 150 317 l 521 658 l 571 658 l 299 406 l 588 0 l 546 0 l 272 382 l 150 269 l 150 0 l 111 0 l 111 936 m 307 -51 l 353 -51 l 304 -264 l 274 -264 l 307 -51 z "},"ĸ":{"ha":671,"x_min":111,"x_max":588,"o":"m 111 658 l 150 658 l 150 285 l 521 658 l 571 658 l 299 385 l 588 0 l 546 0 l 274 360 l 150 235 l 150 0 l 111 0 l 111 658 z "},"l":{"ha":318,"x_min":111,"x_max":269,"o":"m 213 -14 q 137 14 163 -14 q 111 111 111 42 l 111 936 l 150 936 l 150 106 q 164 40 150 58 q 210 22 178 22 q 269 29 246 22 l 269 -7 q 213 -14 246 -14 z "},"ĺ":{"ha":318,"x_min":111,"x_max":269,"o":"m 207 1206 l 249 1206 l 151 999 l 119 999 l 207 1206 m 213 -14 q 137 14 163 -14 q 111 111 111 42 l 111 936 l 150 936 l 150 106 q 164 40 150 58 q 210 22 178 22 q 269 29 246 22 l 269 -7 q 213 -14 246 -14 z "},"ľ":{"ha":371,"x_min":111,"x_max":322,"o":"m 276 1072 l 322 1072 l 274 860 l 243 860 l 276 1072 m 213 -14 q 137 14 163 -14 q 111 111 111 42 l 111 936 l 150 936 l 150 106 q 164 40 150 58 q 210 22 178 22 q 269 29 246 22 l 269 -7 q 213 -14 246 -14 z "},"ļ":{"ha":318,"x_min":111,"x_max":269,"o":"m 213 -14 q 137 14 163 -14 q 111 111 111 42 l 111 936 l 150 936 l 150 106 q 164 40 150 58 q 210 22 178 22 q 269 29 246 22 l 269 -7 q 213 -14 246 -14 m 189 -51 l 235 -51 l 186 -264 l 156 -264 l 189 -51 z "},"ŀ":{"ha":318,"x_min":111,"x_max":299,"o":"m 213 -14 q 137 14 163 -14 q 111 111 111 42 l 111 936 l 150 936 l 150 106 q 164 40 150 58 q 210 22 178 22 q 269 29 246 22 l 269 -7 q 213 -14 246 -14 m 250 413 l 299 413 l 299 364 l 250 364 l 250 413 z "},"ḷ":{"ha":318,"x_min":111,"x_max":269,"o":"m 213 -14 q 137 14 163 -14 q 111 111 111 42 l 111 936 l 150 936 l 150 106 q 164 40 150 58 q 210 22 178 22 q 269 29 246 22 l 269 -7 q 213 -14 246 -14 m 146 -142 l 197 -142 l 197 -193 l 146 -193 l 146 -142 z "},"ḹ":{"ha":318,"x_min":-54,"x_max":317,"o":"m -54 1033 l 317 1033 l 317 999 l -54 999 l -54 1033 m 213 -14 q 137 14 163 -14 q 111 111 111 42 l 111 936 l 150 936 l 150 106 q 164 40 150 58 q 210 22 178 22 q 269 29 246 22 l 269 -7 q 213 -14 246 -14 m 140 -142 l 178 -142 l 178 -179 l 140 -179 l 140 -142 z "},"ḻ":{"ha":318,"x_min":-26,"x_max":344,"o":"m 213 -14 q 137 14 163 -14 q 111 111 111 42 l 111 936 l 150 936 l 150 106 q 164 40 150 58 q 210 22 178 22 q 269 29 246 22 l 269 -7 q 213 -14 246 -14 m -26 -106 l 344 -106 l 344 -140 l -26 -140 l -26 -106 z "},"ł":{"ha":318,"x_min":-39,"x_max":314,"o":"m 150 449 l 150 106 q 164 40 150 58 q 210 22 178 22 q 269 29 246 22 l 269 -7 q 213 -14 246 -14 q 137 14 163 -14 q 111 111 111 42 l 111 432 l -39 367 l -39 401 l 111 467 l 111 936 l 150 936 l 150 483 l 314 554 l 314 519 l 150 449 z "},"m":{"ha":1175,"x_min":111,"x_max":1071,"o":"m 111 658 l 143 658 l 150 572 q 401 672 268 672 q 522 647 478 672 q 586 574 565 622 q 850 672 697 672 q 1016 616 961 672 q 1071 443 1071 560 l 1071 0 l 1032 0 l 1032 442 q 986 593 1032 549 q 838 638 940 638 q 706 613 768 638 q 600 540 643 588 q 611 435 611 496 l 611 0 l 572 0 l 572 435 q 535 591 572 544 q 399 638 497 638 q 267 607 333 638 q 150 529 201 576 l 150 0 l 111 0 l 111 658 z "},"ṃ":{"ha":1175,"x_min":111,"x_max":1071,"o":"m 111 658 l 143 658 l 150 572 q 401 672 268 672 q 522 647 478 672 q 586 574 565 622 q 850 672 697 672 q 1016 616 961 672 q 1071 443 1071 560 l 1071 0 l 1032 0 l 1032 442 q 986 593 1032 549 q 838 638 940 638 q 706 613 768 638 q 600 540 643 588 q 611 435 611 496 l 611 0 l 572 0 l 572 435 q 535 591 572 544 q 399 638 497 638 q 267 607 333 638 q 150 529 201 576 l 150 0 l 111 0 l 111 658 m 588 -142 l 639 -142 l 639 -193 l 588 -193 l 588 -142 z "},"n":{"ha":761,"x_min":111,"x_max":657,"o":"m 111 658 l 143 658 l 150 572 q 272 647 206 621 q 428 672 338 672 q 602 617 547 672 q 657 440 657 561 l 657 0 l 618 0 l 618 440 q 599 556 618 514 q 535 618 581 599 q 407 638 489 638 q 267 608 332 638 q 150 529 203 579 l 150 0 l 111 0 l 111 658 z "},"ń":{"ha":761,"x_min":111,"x_max":657,"o":"m 467 932 l 508 932 l 411 725 l 379 725 l 467 932 m 111 658 l 143 658 l 150 572 q 272 647 206 621 q 428 672 338 672 q 602 617 547 672 q 657 440 657 561 l 657 0 l 618 0 l 618 440 q 599 556 618 514 q 535 618 581 599 q 407 638 489 638 q 267 608 332 638 q 150 529 203 579 l 150 0 l 111 0 l 111 658 z "},"ŉ":{"ha":824,"x_min":43,"x_max":719,"o":"m 76 906 l 122 906 l 74 693 l 43 693 l 76 906 m 174 658 l 206 658 l 213 572 q 334 647 268 621 q 490 672 400 672 q 665 617 610 672 q 719 440 719 561 l 719 0 l 681 0 l 681 440 q 662 556 681 514 q 597 618 643 599 q 469 638 551 638 q 330 608 394 638 q 213 529 265 579 l 213 0 l 174 0 l 174 658 z "},"ň":{"ha":761,"x_min":111,"x_max":657,"o":"m 239 894 l 279 894 l 392 750 l 504 894 l 544 894 l 413 725 l 371 725 l 239 894 m 111 658 l 143 658 l 150 572 q 272 647 206 621 q 428 672 338 672 q 602 617 547 672 q 657 440 657 561 l 657 0 l 618 0 l 618 440 q 599 556 618 514 q 535 618 581 599 q 407 638 489 638 q 267 608 332 638 q 150 529 203 579 l 150 0 l 111 0 l 111 658 z "},"ņ":{"ha":761,"x_min":111,"x_max":657,"o":"m 111 658 l 143 658 l 150 572 q 272 647 206 621 q 428 672 338 672 q 602 617 547 672 q 657 440 657 561 l 657 0 l 618 0 l 618 440 q 599 556 618 514 q 535 618 581 599 q 407 638 489 638 q 267 608 332 638 q 150 529 203 579 l 150 0 l 111 0 l 111 658 m 374 -51 l 419 -51 l 371 -264 l 340 -264 l 374 -51 z "},"ṅ":{"ha":761,"x_min":111,"x_max":657,"o":"m 376 815 l 425 815 l 425 767 l 376 767 l 376 815 m 111 658 l 143 658 l 150 572 q 272 647 206 621 q 428 672 338 672 q 602 617 547 672 q 657 440 657 561 l 657 0 l 618 0 l 618 440 q 599 556 618 514 q 535 618 581 599 q 407 638 489 638 q 267 608 332 638 q 150 529 203 579 l 150 0 l 111 0 l 111 658 z "},"ṇ":{"ha":761,"x_min":111,"x_max":657,"o":"m 111 658 l 143 658 l 150 572 q 272 647 206 621 q 428 672 338 672 q 602 617 547 672 q 657 440 657 561 l 657 0 l 618 0 l 618 440 q 599 556 618 514 q 535 618 581 599 q 407 638 489 638 q 267 608 332 638 q 150 529 203 579 l 150 0 l 111 0 l 111 658 m 379 -142 l 431 -142 l 431 -193 l 379 -193 l 379 -142 z "},"ŋ":{"ha":761,"x_min":111,"x_max":657,"o":"m 483 -325 q 386 -311 431 -325 l 386 -275 q 471 -290 431 -290 q 583 -256 549 -290 q 618 -153 618 -221 l 618 440 q 599 556 618 514 q 535 618 581 599 q 407 638 489 638 q 267 608 332 638 q 150 529 203 579 l 150 0 l 111 0 l 111 658 l 143 658 l 150 572 q 272 647 206 621 q 428 672 338 672 q 602 617 547 672 q 657 440 657 561 l 657 -153 q 610 -279 657 -233 q 483 -325 564 -325 z "},"ṉ":{"ha":761,"x_min":111,"x_max":657,"o":"m 111 658 l 143 658 l 150 572 q 272 647 206 621 q 428 672 338 672 q 602 617 547 672 q 657 440 657 561 l 657 0 l 618 0 l 618 440 q 599 556 618 514 q 535 618 581 599 q 407 638 489 638 q 267 608 332 638 q 150 529 203 579 l 150 0 l 111 0 l 111 658 m 213 -106 l 583 -106 l 583 -140 l 213 -140 l 213 -106 z "},"ñ":{"ha":761,"x_min":111,"x_max":657,"o":"m 494 767 q 453 773 472 767 q 401 793 433 779 q 326 817 351 817 q 269 806 294 817 q 222 769 244 796 l 222 813 q 265 841 238 831 q 322 851 292 851 q 363 845 344 851 q 413 825 382 839 q 453 808 436 814 q 490 801 471 801 q 544 812 522 801 q 585 849 567 822 l 585 806 q 494 767 557 767 m 111 658 l 143 658 l 150 572 q 272 647 206 621 q 428 672 338 672 q 602 617 547 672 q 657 440 657 561 l 657 0 l 618 0 l 618 440 q 599 556 618 514 q 535 618 581 599 q 407 638 489 638 q 267 608 332 638 q 150 529 203 579 l 150 0 l 111 0 l 111 658 z "},"o":{"ha":767,"x_min":83,"x_max":683,"o":"m 383 -14 q 155 72 226 -14 q 83 329 83 157 q 156 586 83 500 q 383 672 228 672 q 611 586 539 672 q 683 329 683 500 q 612 72 683 157 q 383 -14 540 -14 m 383 21 q 585 96 525 21 q 646 329 646 171 q 585 563 646 488 q 383 638 524 638 q 182 563 243 638 q 121 329 121 488 q 181 96 121 171 q 383 21 242 21 z "},"ó":{"ha":767,"x_min":83,"x_max":683,"o":"m 464 932 l 506 932 l 408 725 l 376 725 l 464 932 m 383 -14 q 155 72 226 -14 q 83 329 83 157 q 156 586 83 500 q 383 672 228 672 q 611 586 539 672 q 683 329 683 500 q 612 72 683 157 q 383 -14 540 -14 m 383 21 q 585 96 525 21 q 646 329 646 171 q 585 563 646 488 q 383 638 524 638 q 182 563 243 638 q 121 329 121 488 q 181 96 121 171 q 383 21 242 21 z "},"ŏ":{"ha":767,"x_min":83,"x_max":683,"o":"m 383 725 q 290 763 328 725 q 251 857 251 801 l 286 857 q 314 788 286 815 q 383 760 342 760 q 454 788 426 760 q 482 857 482 815 l 517 857 q 478 763 517 801 q 383 725 439 725 m 383 -14 q 155 72 226 -14 q 83 329 83 157 q 156 586 83 500 q 383 672 228 672 q 611 586 539 672 q 683 329 683 500 q 612 72 683 157 q 383 -14 540 -14 m 383 21 q 585 96 525 21 q 646 329 646 171 q 585 563 646 488 q 383 638 524 638 q 182 563 243 638 q 121 329 121 488 q 181 96 121 171 q 383 21 242 21 z "},"ǒ":{"ha":767,"x_min":83,"x_max":683,"o":"m 231 894 l 271 894 l 383 750 l 496 894 l 536 894 l 404 725 l 363 725 l 231 894 m 383 -14 q 155 72 226 -14 q 83 329 83 157 q 156 586 83 500 q 383 672 228 672 q 611 586 539 672 q 683 329 683 500 q 612 72 683 157 q 383 -14 540 -14 m 383 21 q 585 96 525 21 q 646 329 646 171 q 585 563 646 488 q 383 638 524 638 q 182 563 243 638 q 121 329 121 488 q 181 96 121 171 q 383 21 242 21 z "},"ô":{"ha":767,"x_min":83,"x_max":683,"o":"m 356 894 l 397 894 l 529 725 l 489 725 l 376 869 l 264 725 l 224 725 l 356 894 m 383 -14 q 155 72 226 -14 q 83 329 83 157 q 156 586 83 500 q 383 672 228 672 q 611 586 539 672 q 683 329 683 500 q 612 72 683 157 q 383 -14 540 -14 m 383 21 q 585 96 525 21 q 646 329 646 171 q 585 563 646 488 q 383 638 524 638 q 182 563 243 638 q 121 329 121 488 q 181 96 121 171 q 383 21 242 21 z "},"ố":{"ha":767,"x_min":83,"x_max":683,"o":"m 547 1018 l 588 1018 l 499 867 l 468 867 l 547 1018 m 365 867 l 407 867 l 539 725 l 499 725 l 386 844 l 274 725 l 233 725 l 365 867 m 383 -14 q 155 72 226 -14 q 83 329 83 157 q 156 586 83 500 q 383 672 228 672 q 611 586 539 672 q 683 329 683 500 q 612 72 683 157 q 383 -14 540 -14 m 383 21 q 585 96 525 21 q 646 329 646 171 q 585 563 646 488 q 383 638 524 638 q 182 563 243 638 q 121 329 121 488 q 181 96 121 171 q 383 21 242 21 z "},"ộ":{"ha":767,"x_min":83,"x_max":683,"o":"m 363 894 l 404 894 l 536 725 l 496 725 l 383 869 l 271 725 l 231 725 l 363 894 m 383 -14 q 155 72 226 -14 q 83 329 83 157 q 156 586 83 500 q 383 672 228 672 q 611 586 539 672 q 683 329 683 500 q 612 72 683 157 q 383 -14 540 -14 m 383 21 q 585 96 525 21 q 646 329 646 171 q 585 563 646 488 q 383 638 524 638 q 182 563 243 638 q 121 329 121 488 q 181 96 121 171 q 383 21 242 21 m 358 -142 l 410 -142 l 410 -193 l 358 -193 l 358 -142 z "},"ồ":{"ha":767,"x_min":83,"x_max":683,"o":"m 183 1018 l 224 1018 l 303 867 l 272 867 l 183 1018 m 364 867 l 406 867 l 538 725 l 497 725 l 385 844 l 272 725 l 232 725 l 364 867 m 383 -14 q 155 72 226 -14 q 83 329 83 157 q 156 586 83 500 q 383 672 228 672 q 611 586 539 672 q 683 329 683 500 q 612 72 683 157 q 383 -14 540 -14 m 383 21 q 585 96 525 21 q 646 329 646 171 q 585 563 646 488 q 383 638 524 638 q 182 563 243 638 q 121 329 121 488 q 181 96 121 171 q 383 21 242 21 z "},"ổ":{"ha":767,"x_min":83,"x_max":683,"o":"m 481 915 q 575 935 551 919 q 599 985 599 950 q 521 1047 599 1047 q 438 1029 478 1047 l 438 1064 q 521 1081 475 1081 q 603 1056 574 1081 q 633 985 633 1031 q 606 917 633 940 q 519 889 579 894 l 519 838 l 481 838 l 481 915 m 368 867 l 410 867 l 542 725 l 501 725 l 389 844 l 276 725 l 236 725 l 368 867 m 383 -14 q 155 72 226 -14 q 83 329 83 157 q 156 586 83 500 q 383 672 228 672 q 611 586 539 672 q 683 329 683 500 q 612 72 683 157 q 383 -14 540 -14 m 383 21 q 585 96 525 21 q 646 329 646 171 q 585 563 646 488 q 383 638 524 638 q 182 563 243 638 q 121 329 121 488 q 181 96 121 171 q 383 21 242 21 z "},"ỗ":{"ha":767,"x_min":83,"x_max":683,"o":"m 206 990 q 303 1026 239 1026 q 342 1021 325 1026 q 385 1003 358 1015 q 456 982 424 982 q 511 992 488 982 q 557 1026 535 1001 l 557 983 q 460 947 524 947 q 419 953 438 947 q 375 971 401 958 q 307 992 333 992 q 251 982 275 992 q 206 947 228 972 l 206 990 m 383 725 q 254 767 306 725 q 203 897 203 808 l 238 897 q 277 794 238 828 q 383 760 317 760 q 490 794 450 760 q 529 897 529 828 l 564 897 q 513 767 564 808 q 383 725 461 725 m 383 -14 q 155 72 226 -14 q 83 329 83 157 q 156 586 83 500 q 383 672 228 672 q 611 586 539 672 q 683 329 683 500 q 612 72 683 157 q 383 -14 540 -14 m 383 21 q 585 96 525 21 q 646 329 646 171 q 585 563 646 488 q 383 638 524 638 q 182 563 243 638 q 121 329 121 488 q 181 96 121 171 q 383 21 242 21 z "},"ö":{"ha":767,"x_min":83,"x_max":683,"o":"m 250 815 l 299 815 l 299 767 l 250 767 l 250 815 m 468 815 l 517 815 l 517 767 l 468 767 l 468 815 m 383 -14 q 155 72 226 -14 q 83 329 83 157 q 156 586 83 500 q 383 672 228 672 q 611 586 539 672 q 683 329 683 500 q 612 72 683 157 q 383 -14 540 -14 m 383 21 q 585 96 525 21 q 646 329 646 171 q 585 563 646 488 q 383 638 524 638 q 182 563 243 638 q 121 329 121 488 q 181 96 121 171 q 383 21 242 21 z "},"ọ":{"ha":767,"x_min":83,"x_max":683,"o":"m 383 -14 q 155 72 226 -14 q 83 329 83 157 q 156 586 83 500 q 383 672 228 672 q 611 586 539 672 q 683 329 683 500 q 612 72 683 157 q 383 -14 540 -14 m 383 21 q 585 96 525 21 q 646 329 646 171 q 585 563 646 488 q 383 638 524 638 q 182 563 243 638 q 121 329 121 488 q 181 96 121 171 q 383 21 242 21 m 358 -142 l 410 -142 l 410 -193 l 358 -193 l 358 -142 z "},"ò":{"ha":767,"x_min":83,"x_max":683,"o":"m 283 932 l 325 932 l 413 725 l 381 725 l 283 932 m 383 -14 q 155 72 226 -14 q 83 329 83 157 q 156 586 83 500 q 383 672 228 672 q 611 586 539 672 q 683 329 683 500 q 612 72 683 157 q 383 -14 540 -14 m 383 21 q 585 96 525 21 q 646 329 646 171 q 585 563 646 488 q 383 638 524 638 q 182 563 243 638 q 121 329 121 488 q 181 96 121 171 q 383 21 242 21 z "},"ỏ":{"ha":767,"x_min":83,"x_max":683,"o":"m 365 829 q 449 843 421 832 q 488 873 478 854 q 497 922 497 892 q 469 985 497 964 q 376 1006 440 1006 q 326 1001 353 1006 q 281 989 299 996 l 281 1024 q 326 1035 296 1031 q 378 1040 356 1040 q 493 1010 454 1040 q 532 922 532 979 q 503 838 532 867 q 404 803 475 808 l 404 725 l 365 725 l 365 829 m 383 -14 q 155 72 226 -14 q 83 329 83 157 q 156 586 83 500 q 383 672 228 672 q 611 586 539 672 q 683 329 683 500 q 612 72 683 157 q 383 -14 540 -14 m 383 21 q 585 96 525 21 q 646 329 646 171 q 585 563 646 488 q 383 638 524 638 q 182 563 243 638 q 121 329 121 488 q 181 96 121 171 q 383 21 242 21 z "},"ơ":{"ha":863,"x_min":83,"x_max":821,"o":"m 383 -14 q 155 72 226 -14 q 83 329 83 157 q 156 586 83 500 q 383 672 228 672 q 626 565 556 672 q 750 606 714 567 q 786 744 786 644 l 821 744 q 777 585 821 632 q 646 532 733 538 q 683 329 683 451 q 612 72 683 157 q 383 -14 540 -14 m 383 21 q 585 96 525 21 q 646 329 646 171 q 585 563 646 488 q 383 638 524 638 q 182 563 243 638 q 121 329 121 488 q 181 96 121 171 q 383 21 242 21 z "},"ớ":{"ha":863,"x_min":83,"x_max":821,"o":"m 472 932 l 514 932 l 417 725 l 385 725 l 472 932 m 383 -14 q 155 72 226 -14 q 83 329 83 157 q 156 586 83 500 q 383 672 228 672 q 626 565 556 672 q 750 606 714 567 q 786 744 786 644 l 821 744 q 777 585 821 632 q 646 532 733 538 q 683 329 683 451 q 612 72 683 157 q 383 -14 540 -14 m 383 21 q 585 96 525 21 q 646 329 646 171 q 585 563 646 488 q 383 638 524 638 q 182 563 243 638 q 121 329 121 488 q 181 96 121 171 q 383 21 242 21 z "},"ợ":{"ha":863,"x_min":83,"x_max":821,"o":"m 383 -14 q 155 72 226 -14 q 83 329 83 157 q 156 586 83 500 q 383 672 228 672 q 626 565 556 672 q 750 606 714 567 q 786 744 786 644 l 821 744 q 777 585 821 632 q 646 532 733 538 q 683 329 683 451 q 612 72 683 157 q 383 -14 540 -14 m 383 21 q 585 96 525 21 q 646 329 646 171 q 585 563 646 488 q 383 638 524 638 q 182 563 243 638 q 121 329 121 488 q 181 96 121 171 q 383 21 242 21 m 354 -142 l 406 -142 l 406 -193 l 354 -193 l 354 -142 z "},"ờ":{"ha":863,"x_min":83,"x_max":821,"o":"m 308 932 l 350 932 l 438 725 l 406 725 l 308 932 m 383 -14 q 155 72 226 -14 q 83 329 83 157 q 156 586 83 500 q 383 672 228 672 q 626 565 556 672 q 750 606 714 567 q 786 744 786 644 l 821 744 q 777 585 821 632 q 646 532 733 538 q 683 329 683 451 q 612 72 683 157 q 383 -14 540 -14 m 383 21 q 585 96 525 21 q 646 329 646 171 q 585 563 646 488 q 383 638 524 638 q 182 563 243 638 q 121 329 121 488 q 181 96 121 171 q 383 21 242 21 z "},"ở":{"ha":863,"x_min":83,"x_max":821,"o":"m 363 829 q 447 843 418 832 q 485 873 475 854 q 494 922 494 892 q 466 985 494 964 q 374 1006 438 1006 q 323 1001 350 1006 q 278 989 296 996 l 278 1024 q 323 1035 293 1031 q 375 1040 353 1040 q 490 1010 451 1040 q 529 922 529 979 q 501 838 529 867 q 401 803 472 808 l 401 725 l 363 725 l 363 829 m 383 -14 q 155 72 226 -14 q 83 329 83 157 q 156 586 83 500 q 383 672 228 672 q 626 565 556 672 q 750 606 714 567 q 786 744 786 644 l 821 744 q 777 585 821 632 q 646 532 733 538 q 683 329 683 451 q 612 72 683 157 q 383 -14 540 -14 m 383 21 q 585 96 525 21 q 646 329 646 171 q 585 563 646 488 q 383 638 524 638 q 182 563 243 638 q 121 329 121 488 q 181 96 121 171 q 383 21 242 21 z "},"ỡ":{"ha":863,"x_min":83,"x_max":821,"o":"m 483 767 q 442 773 461 767 q 390 793 422 779 q 315 817 340 817 q 258 806 283 817 q 211 769 233 796 l 211 813 q 253 841 226 831 q 311 851 281 851 q 352 845 333 851 q 401 825 371 839 q 442 808 425 814 q 479 801 460 801 q 533 812 511 801 q 574 849 556 822 l 574 806 q 483 767 546 767 m 383 -14 q 155 72 226 -14 q 83 329 83 157 q 156 586 83 500 q 383 672 228 672 q 626 565 556 672 q 750 606 714 567 q 786 744 786 644 l 821 744 q 777 585 821 632 q 646 532 733 538 q 683 329 683 451 q 612 72 683 157 q 383 -14 540 -14 m 383 21 q 585 96 525 21 q 646 329 646 171 q 585 563 646 488 q 383 638 524 638 q 182 563 243 638 q 121 329 121 488 q 181 96 121 171 q 383 21 242 21 z "},"ő":{"ha":767,"x_min":83,"x_max":683,"o":"m 340 904 l 381 904 l 283 725 l 253 725 l 340 904 m 607 904 l 647 904 l 550 725 l 519 725 l 607 904 m 383 -14 q 155 72 226 -14 q 83 329 83 157 q 156 586 83 500 q 383 672 228 672 q 611 586 539 672 q 683 329 683 500 q 612 72 683 157 q 383 -14 540 -14 m 383 21 q 585 96 525 21 q 646 329 646 171 q 585 563 646 488 q 383 638 524 638 q 182 563 243 638 q 121 329 121 488 q 181 96 121 171 q 383 21 242 21 z "},"ō":{"ha":767,"x_min":83,"x_max":683,"o":"m 199 801 l 569 801 l 569 767 l 199 767 l 199 801 m 383 -14 q 155 72 226 -14 q 83 329 83 157 q 156 586 83 500 q 383 672 228 672 q 611 586 539 672 q 683 329 683 500 q 612 72 683 157 q 383 -14 540 -14 m 383 21 q 585 96 525 21 q 646 329 646 171 q 585 563 646 488 q 383 638 524 638 q 182 563 243 638 q 121 329 121 488 q 181 96 121 171 q 383 21 242 21 z "},"ø":{"ha":767,"x_min":83,"x_max":683,"o":"m 263 1 q 126 113 169 31 q 83 329 83 194 q 156 586 83 500 q 383 672 228 672 q 494 658 439 672 l 521 733 l 558 733 l 528 646 q 646 533 608 613 q 683 329 683 454 q 612 72 683 157 q 383 -14 540 -14 q 297 -6 338 -14 l 274 -75 l 236 -75 l 263 1 m 482 625 q 383 638 432 638 q 182 563 243 638 q 121 329 121 488 q 157 132 121 204 q 275 35 193 60 l 482 625 m 383 21 q 585 96 525 21 q 646 329 646 171 q 615 513 646 443 q 515 613 583 583 l 310 26 q 383 21 339 21 z "},"ǿ":{"ha":767,"x_min":83,"x_max":683,"o":"m 451 932 l 493 932 l 396 725 l 364 725 l 451 932 m 263 1 q 126 113 169 31 q 83 329 83 194 q 156 586 83 500 q 383 672 228 672 q 494 658 439 672 l 521 733 l 558 733 l 528 646 q 646 533 608 613 q 683 329 683 454 q 612 72 683 157 q 383 -14 540 -14 q 297 -6 338 -14 l 274 -75 l 236 -75 l 263 1 m 482 625 q 383 638 432 638 q 182 563 243 638 q 121 329 121 488 q 157 132 121 204 q 275 35 193 60 l 482 625 m 383 21 q 585 96 525 21 q 646 329 646 171 q 615 513 646 443 q 515 613 583 583 l 310 26 q 383 21 339 21 z "},"õ":{"ha":767,"x_min":83,"x_max":683,"o":"m 475 767 q 433 773 453 767 q 382 793 414 779 q 307 817 332 817 q 250 806 275 817 q 203 769 225 796 l 203 813 q 245 841 218 831 q 303 851 272 851 q 344 845 325 851 q 393 825 363 839 q 434 808 417 814 q 471 801 451 801 q 525 812 503 801 q 565 849 547 822 l 565 806 q 475 767 538 767 m 383 -14 q 155 72 226 -14 q 83 329 83 157 q 156 586 83 500 q 383 672 228 672 q 611 586 539 672 q 683 329 683 500 q 612 72 683 157 q 383 -14 540 -14 m 383 21 q 585 96 525 21 q 646 329 646 171 q 585 563 646 488 q 383 638 524 638 q 182 563 243 638 q 121 329 121 488 q 181 96 121 171 q 383 21 242 21 z "},"œ":{"ha":1282,"x_min":83,"x_max":1199,"o":"m 383 -14 q 155 72 226 -14 q 83 329 83 157 q 156 586 83 500 q 383 672 228 672 q 567 625 499 672 q 664 483 636 578 q 758 624 690 576 q 940 672 825 672 q 1135 601 1071 672 q 1199 417 1199 529 l 1199 303 l 685 303 q 716 142 688 203 q 809 51 744 81 q 983 21 874 21 q 1154 56 1068 21 l 1154 19 q 976 -14 1069 -14 q 768 32 843 -14 q 665 175 693 78 q 383 -14 608 -14 m 383 21 q 585 97 525 21 q 646 335 646 172 q 583 564 646 490 q 383 638 521 638 q 182 563 243 638 q 121 329 121 488 q 181 96 121 171 q 383 21 242 21 m 1160 339 l 1160 411 q 1106 578 1160 518 q 940 638 1053 638 q 744 561 803 638 q 685 339 685 485 l 1160 339 z "},"p":{"ha":769,"x_min":111,"x_max":686,"o":"m 111 658 l 143 658 l 149 579 q 256 650 197 628 q 393 672 315 672 q 611 590 536 672 q 686 333 686 508 q 606 72 686 158 q 385 -14 526 -14 q 256 3 310 -14 q 150 61 201 21 l 150 -300 l 111 -300 l 111 658 m 375 21 q 581 97 513 21 q 649 333 649 174 q 587 563 649 489 q 386 638 525 638 q 256 614 314 638 q 150 539 199 590 l 150 101 q 251 42 199 63 q 375 21 303 21 z "},"þ":{"ha":769,"x_min":111,"x_max":686,"o":"m 111 972 l 150 972 l 150 579 q 257 650 199 628 q 393 672 315 672 q 611 590 536 672 q 686 333 686 508 q 606 72 686 158 q 385 -14 526 -14 q 256 3 310 -14 q 150 61 201 21 l 150 -300 l 111 -300 l 111 972 m 375 21 q 581 97 513 21 q 649 333 649 174 q 587 563 649 489 q 386 638 525 638 q 256 614 314 638 q 150 539 199 590 l 150 101 q 251 42 199 63 q 375 21 303 21 z "},"q":{"ha":826,"x_min":83,"x_max":799,"o":"m 744 -336 q 649 -299 679 -336 q 619 -185 619 -262 l 619 61 q 514 3 568 21 q 385 -14 460 -14 q 163 72 243 -14 q 83 333 83 158 q 158 590 83 508 q 376 672 233 672 q 513 650 454 672 q 621 579 572 628 l 626 658 l 658 658 l 658 -185 q 677 -274 658 -249 q 756 -300 696 -300 q 799 -293 775 -300 l 799 -329 q 744 -336 771 -336 m 394 21 q 519 42 467 21 q 619 101 571 63 l 619 539 q 513 614 571 590 q 383 638 456 638 q 183 563 244 638 q 121 333 121 489 q 189 97 121 174 q 394 21 257 21 z "},"r":{"ha":456,"x_min":111,"x_max":400,"o":"m 111 658 l 143 658 l 150 560 q 269 627 203 597 q 400 672 335 657 l 400 636 q 265 588 338 621 q 150 522 192 554 l 150 0 l 111 0 l 111 658 z "},"ŕ":{"ha":456,"x_min":111,"x_max":400,"o":"m 313 932 l 354 932 l 257 725 l 225 725 l 313 932 m 111 658 l 143 658 l 150 560 q 269 627 203 597 q 400 672 335 657 l 400 636 q 265 588 338 621 q 150 522 192 554 l 150 0 l 111 0 l 111 658 z "},"ř":{"ha":456,"x_min":47,"x_max":400,"o":"m 47 894 l 88 894 l 200 750 l 313 894 l 353 894 l 221 725 l 179 725 l 47 894 m 111 658 l 143 658 l 150 560 q 269 627 203 597 q 400 672 335 657 l 400 636 q 265 588 338 621 q 150 522 192 554 l 150 0 l 111 0 l 111 658 z "},"ŗ":{"ha":456,"x_min":75,"x_max":400,"o":"m 111 658 l 143 658 l 150 560 q 269 627 203 597 q 400 672 335 657 l 400 636 q 265 588 338 621 q 150 522 192 554 l 150 0 l 111 0 l 111 658 m 108 -51 l 154 -51 l 106 -264 l 75 -264 l 108 -51 z "},"ṛ":{"ha":456,"x_min":104,"x_max":400,"o":"m 111 658 l 143 658 l 150 560 q 269 627 203 597 q 400 672 335 657 l 400 636 q 265 588 338 621 q 150 522 192 554 l 150 0 l 111 0 l 111 658 m 104 -142 l 156 -142 l 156 -193 l 104 -193 l 104 -142 z "},"ṝ":{"ha":538,"x_min":15,"x_max":424,"o":"m 15 801 l 386 801 l 386 767 l 15 767 l 15 801 m 135 658 l 167 658 l 174 560 q 292 627 226 597 q 424 672 358 657 l 424 636 q 288 588 361 621 q 174 522 215 554 l 174 0 l 135 0 l 135 658 m 126 -142 l 178 -142 l 178 -193 l 126 -193 l 126 -142 z "},"ṟ":{"ha":456,"x_min":-42,"x_max":400,"o":"m 111 658 l 143 658 l 150 560 q 269 627 203 597 q 400 672 335 657 l 400 636 q 265 588 338 621 q 150 522 192 554 l 150 0 l 111 0 l 111 658 m -42 -106 l 329 -106 l 329 -140 l -42 -140 l -42 -106 z "},"s":{"ha":607,"x_min":83,"x_max":524,"o":"m 292 -14 q 103 11 185 -14 l 103 47 q 288 21 192 21 q 440 53 393 21 q 486 161 486 86 q 469 234 486 208 q 419 275 451 260 q 315 315 388 290 l 286 325 q 256 335 279 328 q 161 372 194 356 q 106 421 128 389 q 83 507 83 453 q 137 631 83 590 q 308 672 190 672 q 474 651 406 672 l 474 615 q 314 638 394 638 q 163 607 206 638 q 121 508 121 576 q 138 439 121 464 q 189 398 154 414 q 297 358 224 382 q 428 310 383 331 q 499 254 474 289 q 524 161 524 219 q 464 27 524 68 q 292 -14 404 -14 z "},"ś":{"ha":607,"x_min":83,"x_max":524,"o":"m 383 932 l 425 932 l 328 725 l 296 725 l 383 932 m 292 -14 q 103 11 185 -14 l 103 47 q 288 21 192 21 q 440 53 393 21 q 486 161 486 86 q 469 234 486 208 q 419 275 451 260 q 315 315 388 290 l 286 325 q 256 335 279 328 q 161 372 194 356 q 106 421 128 389 q 83 507 83 453 q 137 631 83 590 q 308 672 190 672 q 474 651 406 672 l 474 615 q 314 638 394 638 q 163 607 206 638 q 121 508 121 576 q 138 439 121 464 q 189 398 154 414 q 297 358 224 382 q 428 310 383 331 q 499 254 474 289 q 524 161 524 219 q 464 27 524 68 q 292 -14 404 -14 z "},"š":{"ha":607,"x_min":83,"x_max":524,"o":"m 156 894 l 196 894 l 308 750 l 421 894 l 461 894 l 329 725 l 288 725 l 156 894 m 292 -14 q 103 11 185 -14 l 103 47 q 288 21 192 21 q 440 53 393 21 q 486 161 486 86 q 469 234 486 208 q 419 275 451 260 q 315 315 388 290 l 286 325 q 256 335 279 328 q 161 372 194 356 q 106 421 128 389 q 83 507 83 453 q 137 631 83 590 q 308 672 190 672 q 474 651 406 672 l 474 615 q 314 638 394 638 q 163 607 206 638 q 121 508 121 576 q 138 439 121 464 q 189 398 154 414 q 297 358 224 382 q 428 310 383 331 q 499 254 474 289 q 524 161 524 219 q 464 27 524 68 q 292 -14 404 -14 z "},"ş":{"ha":607,"x_min":83,"x_max":524,"o":"m 319 -74 q 441 -103 399 -74 q 483 -193 483 -133 q 439 -298 483 -262 q 296 -333 394 -333 q 208 -322 250 -333 l 208 -287 q 297 -299 249 -299 q 410 -275 374 -299 q 446 -196 446 -251 q 413 -126 446 -147 q 308 -106 379 -106 l 269 -106 l 301 -14 l 292 -14 q 103 11 185 -14 l 103 47 q 288 21 192 21 q 440 53 393 21 q 486 161 486 86 q 469 234 486 208 q 419 275 451 260 q 315 315 388 290 l 286 325 q 256 335 279 328 q 161 372 194 356 q 106 421 128 389 q 83 507 83 453 q 137 631 83 590 q 308 672 190 672 q 474 651 406 672 l 474 615 q 314 638 394 638 q 163 607 206 638 q 121 508 121 576 q 138 439 121 464 q 189 398 154 414 q 297 358 224 382 q 428 310 383 331 q 499 254 474 289 q 524 161 524 219 q 477 38 524 79 q 342 -11 431 -4 l 319 -74 z "},"ŝ":{"ha":607,"x_min":83,"x_max":524,"o":"m 300 922 l 342 922 l 474 753 l 433 753 l 321 897 l 208 753 l 168 753 l 300 922 m 292 -14 q 103 11 185 -14 l 103 47 q 288 21 192 21 q 440 53 393 21 q 486 161 486 86 q 469 234 486 208 q 419 275 451 260 q 315 315 388 290 l 286 325 q 256 335 279 328 q 161 372 194 356 q 106 421 128 389 q 83 507 83 453 q 137 631 83 590 q 308 672 190 672 q 474 651 406 672 l 474 615 q 314 638 394 638 q 163 607 206 638 q 121 508 121 576 q 138 439 121 464 q 189 398 154 414 q 297 358 224 382 q 428 310 383 331 q 499 254 474 289 q 524 161 524 219 q 464 27 524 68 q 292 -14 404 -14 z "},"ș":{"ha":607,"x_min":83,"x_max":524,"o":"m 292 -14 q 103 11 185 -14 l 103 47 q 288 21 192 21 q 440 53 393 21 q 486 161 486 86 q 469 234 486 208 q 419 275 451 260 q 315 315 388 290 l 286 325 q 256 335 279 328 q 161 372 194 356 q 106 421 128 389 q 83 507 83 453 q 137 631 83 590 q 308 672 190 672 q 474 651 406 672 l 474 615 q 314 638 394 638 q 163 607 206 638 q 121 508 121 576 q 138 439 121 464 q 189 398 154 414 q 297 358 224 382 q 428 310 383 331 q 499 254 474 289 q 524 161 524 219 q 464 27 524 68 q 292 -14 404 -14 m 294 -79 l 340 -79 l 292 -292 l 261 -292 l 294 -79 z "},"ṡ":{"ha":607,"x_min":83,"x_max":524,"o":"m 294 815 l 343 815 l 343 767 l 294 767 l 294 815 m 292 -14 q 103 11 185 -14 l 103 47 q 288 21 192 21 q 440 53 393 21 q 486 161 486 86 q 469 234 486 208 q 419 275 451 260 q 315 315 388 290 l 286 325 q 256 335 279 328 q 161 372 194 356 q 106 421 128 389 q 83 507 83 453 q 137 631 83 590 q 308 672 190 672 q 474 651 406 672 l 474 615 q 314 638 394 638 q 163 607 206 638 q 121 508 121 576 q 138 439 121 464 q 189 398 154 414 q 297 358 224 382 q 428 310 383 331 q 499 254 474 289 q 524 161 524 219 q 464 27 524 68 q 292 -14 404 -14 z "},"ṣ":{"ha":607,"x_min":83,"x_max":524,"o":"m 292 -14 q 103 11 185 -14 l 103 47 q 288 21 192 21 q 440 53 393 21 q 486 161 486 86 q 469 234 486 208 q 419 275 451 260 q 315 315 388 290 l 286 325 q 256 335 279 328 q 161 372 194 356 q 106 421 128 389 q 83 507 83 453 q 137 631 83 590 q 308 672 190 672 q 474 651 406 672 l 474 615 q 314 638 394 638 q 163 607 206 638 q 121 508 121 576 q 138 439 121 464 q 189 398 154 414 q 297 358 224 382 q 428 310 383 331 q 499 254 474 289 q 524 161 524 219 q 464 27 524 68 q 292 -14 404 -14 m 306 -142 l 357 -142 l 357 -193 l 306 -193 l 306 -142 z "},"ß":{"ha":851,"x_min":104,"x_max":768,"o":"m 501 -14 q 301 17 376 -14 l 301 53 q 501 21 376 21 q 672 84 614 21 q 731 264 731 147 q 677 428 731 369 q 497 486 624 486 l 371 486 l 371 521 l 507 521 q 648 578 603 521 q 693 722 693 636 q 628 878 693 819 q 418 936 564 936 q 212 869 281 936 q 143 672 143 803 l 143 0 l 104 0 l 104 678 q 187 895 104 818 q 418 972 269 972 q 652 903 574 972 q 731 722 731 835 q 696 586 731 643 q 603 506 661 529 q 724 424 681 486 q 768 264 768 363 q 699 58 768 131 q 501 -14 631 -14 z "},"ə":{"ha":719,"x_min":83,"x_max":636,"o":"m 342 -14 q 147 58 211 -14 q 83 242 83 129 l 83 356 l 597 356 q 566 517 594 456 q 473 608 538 578 q 299 638 408 638 q 128 603 214 638 l 128 639 q 306 672 213 672 q 560 590 483 672 q 636 324 636 507 q 566 72 636 158 q 342 -14 496 -14 m 342 21 q 538 97 479 21 q 597 319 597 174 l 122 319 l 122 247 q 176 81 122 140 q 342 21 229 21 z "},"t":{"ha":475,"x_min":56,"x_max":419,"o":"m 329 -14 q 207 32 251 -14 q 163 158 163 78 l 163 622 l 56 622 l 56 658 l 163 658 l 163 842 l 201 856 l 201 658 l 400 658 l 397 622 l 201 622 l 201 158 q 235 56 201 90 q 342 21 269 21 q 419 36 375 21 l 419 0 q 329 -14 375 -14 z "},"ŧ":{"ha":486,"x_min":56,"x_max":431,"o":"m 201 340 l 201 158 q 235 56 201 90 q 342 21 269 21 q 419 36 375 21 l 419 0 q 329 -14 375 -14 q 207 32 251 -14 q 163 158 163 78 l 163 340 l 86 340 l 86 375 l 163 375 l 163 622 l 56 622 l 56 658 l 163 658 l 163 842 l 201 856 l 201 658 l 400 658 l 397 622 l 201 622 l 201 375 l 431 375 l 431 340 l 201 340 z "},"ť":{"ha":576,"x_min":56,"x_max":481,"o":"m 435 992 l 481 992 l 432 779 l 401 779 l 435 992 m 329 -14 q 207 32 251 -14 q 163 158 163 78 l 163 622 l 56 622 l 56 658 l 163 658 l 163 842 l 201 856 l 201 658 l 400 658 l 397 622 l 201 622 l 201 158 q 235 56 201 90 q 342 21 269 21 q 419 36 375 21 l 419 0 q 329 -14 375 -14 z "},"ţ":{"ha":536,"x_min":56,"x_max":471,"o":"m 307 -74 q 428 -103 386 -74 q 471 -193 471 -133 q 426 -298 471 -262 q 283 -333 382 -333 q 196 -322 238 -333 l 196 -287 q 285 -299 236 -299 q 397 -275 361 -299 q 433 -196 433 -251 q 400 -126 433 -147 q 296 -106 367 -106 l 257 -106 l 290 -11 q 196 44 229 0 q 163 158 163 88 l 163 622 l 56 622 l 56 658 l 163 658 l 163 842 l 201 856 l 201 658 l 400 658 l 397 622 l 201 622 l 201 158 q 235 56 201 90 q 342 21 269 21 q 419 36 375 21 l 419 0 q 329 -14 375 -14 l 328 -14 l 307 -74 z "},"ț":{"ha":475,"x_min":56,"x_max":419,"o":"m 329 -14 q 207 32 251 -14 q 163 158 163 78 l 163 622 l 56 622 l 56 658 l 163 658 l 163 842 l 201 856 l 201 658 l 400 658 l 397 622 l 201 622 l 201 158 q 235 56 201 90 q 342 21 269 21 q 419 36 375 21 l 419 0 q 329 -14 375 -14 m 285 -51 l 331 -51 l 282 -264 l 251 -264 l 285 -51 z "},"ẗ":{"ha":475,"x_min":56,"x_max":419,"o":"m 83 950 l 132 950 l 132 901 l 83 901 l 83 950 m 301 950 l 350 950 l 350 901 l 301 901 l 301 950 m 329 -14 q 207 32 251 -14 q 163 158 163 78 l 163 622 l 56 622 l 56 658 l 163 658 l 163 842 l 201 856 l 201 658 l 400 658 l 397 622 l 201 622 l 201 158 q 235 56 201 90 q 342 21 269 21 q 419 36 375 21 l 419 0 q 329 -14 375 -14 z "},"ṭ":{"ha":475,"x_min":56,"x_max":419,"o":"m 329 -14 q 207 32 251 -14 q 163 158 163 78 l 163 622 l 56 622 l 56 658 l 163 658 l 163 842 l 201 856 l 201 658 l 400 658 l 397 622 l 201 622 l 201 158 q 235 56 201 90 q 342 21 269 21 q 419 36 375 21 l 419 0 q 329 -14 375 -14 m 304 -142 l 356 -142 l 356 -193 l 304 -193 l 304 -142 z "},"ṯ":{"ha":507,"x_min":56,"x_max":479,"o":"m 329 -14 q 207 32 251 -14 q 163 158 163 78 l 163 622 l 56 622 l 56 658 l 163 658 l 163 842 l 201 856 l 201 658 l 400 658 l 397 622 l 201 622 l 201 158 q 235 56 201 90 q 342 21 269 21 q 419 36 375 21 l 419 0 q 329 -14 375 -14 m 108 -106 l 479 -106 l 479 -140 l 108 -140 l 108 -106 z "},"u":{"ha":761,"x_min":104,"x_max":650,"o":"m 347 -14 q 167 53 229 -14 q 104 242 104 119 l 104 658 l 143 658 l 143 242 q 197 76 143 132 q 368 21 251 21 q 611 129 506 21 l 611 658 l 650 658 l 650 0 l 618 0 l 611 86 q 495 10 554 35 q 347 -14 436 -14 z "},"ú":{"ha":761,"x_min":104,"x_max":650,"o":"m 436 932 l 478 932 l 381 725 l 349 725 l 436 932 m 347 -14 q 167 53 229 -14 q 104 242 104 119 l 104 658 l 143 658 l 143 242 q 197 76 143 132 q 368 21 251 21 q 611 129 506 21 l 611 658 l 650 658 l 650 0 l 618 0 l 611 86 q 495 10 554 35 q 347 -14 436 -14 z "},"ŭ":{"ha":761,"x_min":104,"x_max":650,"o":"m 390 725 q 297 763 335 725 q 258 857 258 801 l 293 857 q 321 788 293 815 q 390 760 349 760 q 461 788 433 760 q 489 857 489 815 l 524 857 q 485 763 524 801 q 390 725 446 725 m 347 -14 q 167 53 229 -14 q 104 242 104 119 l 104 658 l 143 658 l 143 242 q 197 76 143 132 q 368 21 251 21 q 611 129 506 21 l 611 658 l 650 658 l 650 0 l 618 0 l 611 86 q 495 10 554 35 q 347 -14 436 -14 z "},"ǔ":{"ha":761,"x_min":104,"x_max":650,"o":"m 229 894 l 269 894 l 382 750 l 494 894 l 535 894 l 403 725 l 361 725 l 229 894 m 347 -14 q 167 53 229 -14 q 104 242 104 119 l 104 658 l 143 658 l 143 242 q 197 76 143 132 q 368 21 251 21 q 611 129 506 21 l 611 658 l 650 658 l 650 0 l 618 0 l 611 86 q 495 10 554 35 q 347 -14 436 -14 z "},"û":{"ha":761,"x_min":104,"x_max":650,"o":"m 357 894 l 399 894 l 531 725 l 490 725 l 378 869 l 265 725 l 225 725 l 357 894 m 347 -14 q 167 53 229 -14 q 104 242 104 119 l 104 658 l 143 658 l 143 242 q 197 76 143 132 q 368 21 251 21 q 611 129 506 21 l 611 658 l 650 658 l 650 0 l 618 0 l 611 86 q 495 10 554 35 q 347 -14 436 -14 z "},"ü":{"ha":761,"x_min":104,"x_max":650,"o":"m 240 815 l 289 815 l 289 767 l 240 767 l 240 815 m 458 815 l 507 815 l 507 767 l 458 767 l 458 815 m 347 -14 q 167 53 229 -14 q 104 242 104 119 l 104 658 l 143 658 l 143 242 q 197 76 143 132 q 368 21 251 21 q 611 129 506 21 l 611 658 l 650 658 l 650 0 l 618 0 l 611 86 q 495 10 554 35 q 347 -14 436 -14 z "},"ǘ":{"ha":761,"x_min":104,"x_max":650,"o":"m 439 974 l 479 974 l 390 822 l 360 822 l 439 974 m 250 774 l 299 774 l 299 725 l 250 725 l 250 774 m 468 774 l 517 774 l 517 725 l 468 725 l 468 774 m 347 -14 q 167 53 229 -14 q 104 242 104 119 l 104 658 l 143 658 l 143 242 q 197 76 143 132 q 368 21 251 21 q 611 129 506 21 l 611 658 l 650 658 l 650 0 l 618 0 l 611 86 q 495 10 554 35 q 347 -14 436 -14 z "},"ǚ":{"ha":761,"x_min":104,"x_max":650,"o":"m 229 965 l 269 965 l 382 846 l 494 965 l 535 965 l 403 824 l 361 824 l 229 965 m 249 775 l 297 775 l 297 726 l 249 726 l 249 775 m 467 775 l 515 775 l 515 726 l 467 726 l 467 775 m 347 -14 q 167 53 229 -14 q 104 242 104 119 l 104 658 l 143 658 l 143 242 q 197 76 143 132 q 368 21 251 21 q 611 129 506 21 l 611 658 l 650 658 l 650 0 l 618 0 l 611 86 q 495 10 554 35 q 347 -14 436 -14 z "},"ǜ":{"ha":761,"x_min":104,"x_max":650,"o":"m 285 974 l 325 974 l 404 822 l 374 822 l 285 974 m 247 774 l 296 774 l 296 725 l 247 725 l 247 774 m 465 774 l 514 774 l 514 725 l 465 725 l 465 774 m 347 -14 q 167 53 229 -14 q 104 242 104 119 l 104 658 l 143 658 l 143 242 q 197 76 143 132 q 368 21 251 21 q 611 129 506 21 l 611 658 l 650 658 l 650 0 l 618 0 l 611 86 q 495 10 554 35 q 347 -14 436 -14 z "},"ǖ":{"ha":761,"x_min":104,"x_max":650,"o":"m 203 956 l 574 956 l 574 921 l 203 921 l 203 956 m 253 815 l 301 815 l 301 767 l 253 767 l 253 815 m 471 815 l 519 815 l 519 767 l 471 767 l 471 815 m 347 -14 q 167 53 229 -14 q 104 242 104 119 l 104 658 l 143 658 l 143 242 q 197 76 143 132 q 368 21 251 21 q 611 129 506 21 l 611 658 l 650 658 l 650 0 l 618 0 l 611 86 q 495 10 554 35 q 347 -14 436 -14 z "},"ụ":{"ha":761,"x_min":104,"x_max":650,"o":"m 347 -14 q 167 53 229 -14 q 104 242 104 119 l 104 658 l 143 658 l 143 242 q 197 76 143 132 q 368 21 251 21 q 611 129 506 21 l 611 658 l 650 658 l 650 0 l 618 0 l 611 86 q 495 10 554 35 q 347 -14 436 -14 m 342 -142 l 393 -142 l 393 -193 l 342 -193 l 342 -142 z "},"ù":{"ha":761,"x_min":104,"x_max":650,"o":"m 272 932 l 314 932 l 401 725 l 369 725 l 272 932 m 347 -14 q 167 53 229 -14 q 104 242 104 119 l 104 658 l 143 658 l 143 242 q 197 76 143 132 q 368 21 251 21 q 611 129 506 21 l 611 658 l 650 658 l 650 0 l 618 0 l 611 86 q 495 10 554 35 q 347 -14 436 -14 z "},"ủ":{"ha":761,"x_min":104,"x_max":650,"o":"m 353 829 q 437 843 408 832 q 475 873 465 854 q 485 922 485 892 q 456 985 485 964 q 364 1006 428 1006 q 313 1001 340 1006 q 268 989 286 996 l 268 1024 q 313 1035 283 1031 q 365 1040 343 1040 q 481 1010 442 1040 q 519 922 519 979 q 491 838 519 867 q 392 803 463 808 l 392 725 l 353 725 l 353 829 m 347 -14 q 167 53 229 -14 q 104 242 104 119 l 104 658 l 143 658 l 143 242 q 197 76 143 132 q 368 21 251 21 q 611 129 506 21 l 611 658 l 650 658 l 650 0 l 618 0 l 611 86 q 495 10 554 35 q 347 -14 436 -14 z "},"ư":{"ha":882,"x_min":104,"x_max":826,"o":"m 347 -14 q 167 53 229 -14 q 104 242 104 119 l 104 658 l 143 658 l 143 242 q 197 76 143 132 q 368 21 251 21 q 611 129 506 21 l 611 658 l 650 658 l 650 565 q 759 610 726 569 q 792 744 792 650 l 826 744 q 783 585 826 632 q 650 532 739 538 l 650 0 l 618 0 l 611 86 q 495 10 554 35 q 347 -14 436 -14 z "},"ứ":{"ha":882,"x_min":104,"x_max":826,"o":"m 465 932 l 507 932 l 410 725 l 378 725 l 465 932 m 347 -14 q 167 53 229 -14 q 104 242 104 119 l 104 658 l 143 658 l 143 242 q 197 76 143 132 q 368 21 251 21 q 611 129 506 21 l 611 658 l 650 658 l 650 565 q 759 610 726 569 q 792 744 792 650 l 826 744 q 783 585 826 632 q 650 532 739 538 l 650 0 l 618 0 l 611 86 q 495 10 554 35 q 347 -14 436 -14 z "},"ự":{"ha":882,"x_min":104,"x_max":826,"o":"m 347 -14 q 167 53 229 -14 q 104 242 104 119 l 104 658 l 143 658 l 143 242 q 197 76 143 132 q 368 21 251 21 q 611 129 506 21 l 611 658 l 650 658 l 650 565 q 759 610 726 569 q 792 744 792 650 l 826 744 q 783 585 826 632 q 650 532 739 538 l 650 0 l 618 0 l 611 86 q 495 10 554 35 q 347 -14 436 -14 m 350 -142 l 401 -142 l 401 -193 l 350 -193 l 350 -142 z "},"ừ":{"ha":882,"x_min":104,"x_max":826,"o":"m 289 932 l 331 932 l 418 725 l 386 725 l 289 932 m 347 -14 q 167 53 229 -14 q 104 242 104 119 l 104 658 l 143 658 l 143 242 q 197 76 143 132 q 368 21 251 21 q 611 129 506 21 l 611 658 l 650 658 l 650 565 q 759 610 726 569 q 792 744 792 650 l 826 744 q 783 585 826 632 q 650 532 739 538 l 650 0 l 618 0 l 611 86 q 495 10 554 35 q 347 -14 436 -14 z "},"ử":{"ha":882,"x_min":104,"x_max":826,"o":"m 367 829 q 451 843 422 832 q 489 873 479 854 q 499 922 499 892 q 470 985 499 964 q 378 1006 442 1006 q 327 1001 354 1006 q 282 989 300 996 l 282 1024 q 327 1035 297 1031 q 379 1040 357 1040 q 494 1010 456 1040 q 533 922 533 979 q 505 838 533 867 q 406 803 476 808 l 406 725 l 367 725 l 367 829 m 347 -14 q 167 53 229 -14 q 104 242 104 119 l 104 658 l 143 658 l 143 242 q 197 76 143 132 q 368 21 251 21 q 611 129 506 21 l 611 658 l 650 658 l 650 565 q 759 610 726 569 q 792 744 792 650 l 826 744 q 783 585 826 632 q 650 532 739 538 l 650 0 l 618 0 l 611 86 q 495 10 554 35 q 347 -14 436 -14 z "},"ữ":{"ha":882,"x_min":104,"x_max":826,"o":"m 488 767 q 446 773 465 767 q 394 793 426 779 q 319 817 344 817 q 263 806 288 817 q 215 769 238 796 l 215 813 q 258 841 231 831 q 315 851 285 851 q 356 845 338 851 q 406 825 375 839 q 447 808 429 814 q 483 801 464 801 q 538 812 515 801 q 578 849 560 822 l 578 806 q 488 767 550 767 m 347 -14 q 167 53 229 -14 q 104 242 104 119 l 104 658 l 143 658 l 143 242 q 197 76 143 132 q 368 21 251 21 q 611 129 506 21 l 611 658 l 650 658 l 650 565 q 759 610 726 569 q 792 744 792 650 l 826 744 q 783 585 826 632 q 650 532 739 538 l 650 0 l 618 0 l 611 86 q 495 10 554 35 q 347 -14 436 -14 z "},"ű":{"ha":761,"x_min":104,"x_max":650,"o":"m 293 904 l 333 904 l 236 725 l 206 725 l 293 904 m 560 904 l 600 904 l 503 725 l 472 725 l 560 904 m 347 -14 q 167 53 229 -14 q 104 242 104 119 l 104 658 l 143 658 l 143 242 q 197 76 143 132 q 368 21 251 21 q 611 129 506 21 l 611 658 l 650 658 l 650 0 l 618 0 l 611 86 q 495 10 554 35 q 347 -14 436 -14 z "},"ū":{"ha":761,"x_min":104,"x_max":650,"o":"m 201 801 l 572 801 l 572 767 l 201 767 l 201 801 m 347 -14 q 167 53 229 -14 q 104 242 104 119 l 104 658 l 143 658 l 143 242 q 197 76 143 132 q 368 21 251 21 q 611 129 506 21 l 611 658 l 650 658 l 650 0 l 618 0 l 611 86 q 495 10 554 35 q 347 -14 436 -14 z "},"ų":{"ha":790,"x_min":104,"x_max":690,"o":"m 621 -306 q 537 -278 568 -306 q 506 -187 506 -250 q 537 -81 506 -132 q 613 0 568 -29 l 611 86 q 495 10 554 35 q 347 -14 436 -14 q 167 53 229 -14 q 104 242 104 119 l 104 658 l 143 658 l 143 242 q 197 76 143 132 q 368 21 251 21 q 611 129 506 21 l 611 658 l 650 658 l 650 0 q 569 -87 596 -39 q 543 -187 543 -136 q 561 -251 543 -231 q 621 -271 579 -271 q 658 -267 639 -271 q 690 -256 678 -262 l 690 -290 q 621 -306 664 -306 z "},"ů":{"ha":761,"x_min":104,"x_max":650,"o":"m 381 725 q 287 763 325 725 q 249 857 249 801 q 287 951 249 913 q 381 990 325 990 q 476 952 438 990 q 514 857 514 914 q 475 763 514 801 q 381 725 436 725 m 381 760 q 451 788 424 760 q 479 857 479 815 q 451 928 479 900 q 381 956 424 956 q 311 928 339 956 q 283 857 283 900 q 311 788 283 815 q 381 760 339 760 m 347 -14 q 167 53 229 -14 q 104 242 104 119 l 104 658 l 143 658 l 143 242 q 197 76 143 132 q 368 21 251 21 q 611 129 506 21 l 611 658 l 650 658 l 650 0 l 618 0 l 611 86 q 495 10 554 35 q 347 -14 436 -14 z "},"ũ":{"ha":761,"x_min":104,"x_max":650,"o":"m 485 767 q 443 773 463 767 q 392 793 424 779 q 317 817 342 817 q 260 806 285 817 q 213 769 235 796 l 213 813 q 255 841 228 831 q 313 851 282 851 q 353 845 335 851 q 403 825 372 839 q 444 808 426 814 q 481 801 461 801 q 535 812 513 801 q 575 849 557 822 l 575 806 q 485 767 547 767 m 347 -14 q 167 53 229 -14 q 104 242 104 119 l 104 658 l 143 658 l 143 242 q 197 76 143 132 q 368 21 251 21 q 611 129 506 21 l 611 658 l 650 658 l 650 0 l 618 0 l 611 86 q 495 10 554 35 q 347 -14 436 -14 z "},"v":{"ha":735,"x_min":83,"x_max":651,"o":"m 83 658 l 124 658 l 367 22 l 613 658 l 651 658 l 396 0 l 340 0 l 83 658 z "},"w":{"ha":975,"x_min":83,"x_max":892,"o":"m 83 658 l 124 658 l 282 28 l 465 592 l 465 658 l 499 658 l 697 28 l 853 658 l 892 658 l 722 0 l 672 0 l 492 571 l 307 0 l 254 0 l 83 658 z "},"ẃ":{"ha":975,"x_min":83,"x_max":892,"o":"m 557 932 l 599 932 l 501 725 l 469 725 l 557 932 m 83 658 l 124 658 l 282 28 l 465 592 l 465 658 l 499 658 l 697 28 l 853 658 l 892 658 l 722 0 l 672 0 l 492 571 l 307 0 l 254 0 l 83 658 z "},"ŵ":{"ha":975,"x_min":83,"x_max":892,"o":"m 471 894 l 513 894 l 644 725 l 604 725 l 492 869 l 379 725 l 339 725 l 471 894 m 83 658 l 124 658 l 282 28 l 465 592 l 465 658 l 499 658 l 697 28 l 853 658 l 892 658 l 722 0 l 672 0 l 492 571 l 307 0 l 254 0 l 83 658 z "},"ẅ":{"ha":975,"x_min":83,"x_max":892,"o":"m 358 815 l 407 815 l 407 767 l 358 767 l 358 815 m 576 815 l 625 815 l 625 767 l 576 767 l 576 815 m 83 658 l 124 658 l 282 28 l 465 592 l 465 658 l 499 658 l 697 28 l 853 658 l 892 658 l 722 0 l 672 0 l 492 571 l 307 0 l 254 0 l 83 658 z "},"ẁ":{"ha":975,"x_min":83,"x_max":892,"o":"m 367 932 l 408 932 l 496 725 l 464 725 l 367 932 m 83 658 l 124 658 l 282 28 l 465 592 l 465 658 l 499 658 l 697 28 l 853 658 l 892 658 l 722 0 l 672 0 l 492 571 l 307 0 l 254 0 l 83 658 z "},"x":{"ha":706,"x_min":83,"x_max":622,"o":"m 331 335 l 90 658 l 133 658 l 351 363 l 569 658 l 613 658 l 375 335 l 622 0 l 579 0 l 351 310 l 125 0 l 83 0 l 331 335 z "},"y":{"ha":763,"x_min":83,"x_max":707,"o":"m 186 -244 q 99 -231 136 -244 l 99 -194 q 183 -210 138 -210 q 261 -184 231 -210 q 313 -120 292 -158 q 369 3 333 -82 l 83 658 l 124 658 l 389 46 l 668 658 l 707 658 l 414 13 q 343 -135 368 -90 q 280 -212 318 -181 q 186 -244 242 -244 z "},"ý":{"ha":763,"x_min":83,"x_max":707,"o":"m 447 932 l 489 932 l 392 725 l 360 725 l 447 932 m 186 -244 q 99 -231 136 -244 l 99 -194 q 183 -210 138 -210 q 261 -184 231 -210 q 313 -120 292 -158 q 369 3 333 -82 l 83 658 l 124 658 l 389 46 l 668 658 l 707 658 l 414 13 q 343 -135 368 -90 q 280 -212 318 -181 q 186 -244 242 -244 z "},"ŷ":{"ha":763,"x_min":83,"x_max":707,"o":"m 375 894 l 417 894 l 549 725 l 508 725 l 396 869 l 283 725 l 243 725 l 375 894 m 186 -244 q 99 -231 136 -244 l 99 -194 q 183 -210 138 -210 q 261 -184 231 -210 q 313 -120 292 -158 q 369 3 333 -82 l 83 658 l 124 658 l 389 46 l 668 658 l 707 658 l 414 13 q 343 -135 368 -90 q 280 -212 318 -181 q 186 -244 242 -244 z "},"ÿ":{"ha":763,"x_min":83,"x_max":707,"o":"m 267 815 l 315 815 l 315 767 l 267 767 l 267 815 m 485 815 l 533 815 l 533 767 l 485 767 l 485 815 m 186 -244 q 99 -231 136 -244 l 99 -194 q 183 -210 138 -210 q 261 -184 231 -210 q 313 -120 292 -158 q 369 3 333 -82 l 83 658 l 124 658 l 389 46 l 668 658 l 707 658 l 414 13 q 343 -135 368 -90 q 280 -212 318 -181 q 186 -244 242 -244 z "},"ẏ":{"ha":763,"x_min":83,"x_max":707,"o":"m 369 815 l 418 815 l 418 767 l 369 767 l 369 815 m 186 -244 q 99 -231 136 -244 l 99 -194 q 183 -210 138 -210 q 261 -184 231 -210 q 313 -120 292 -158 q 369 3 333 -82 l 83 658 l 124 658 l 389 46 l 668 658 l 707 658 l 414 13 q 343 -135 368 -90 q 280 -212 318 -181 q 186 -244 242 -244 z "},"ỵ":{"ha":763,"x_min":83,"x_max":707,"o":"m 186 -244 q 99 -231 136 -244 l 99 -194 q 183 -210 138 -210 q 261 -184 231 -210 q 313 -120 292 -158 q 369 3 333 -82 l 83 658 l 124 658 l 389 46 l 668 658 l 707 658 l 414 13 q 343 -135 368 -90 q 280 -212 318 -181 q 186 -244 242 -244 m 504 -114 l 556 -114 l 556 -165 l 504 -165 l 504 -114 z "},"ỳ":{"ha":763,"x_min":83,"x_max":707,"o":"m 290 932 l 332 932 l 419 725 l 388 725 l 290 932 m 186 -244 q 99 -231 136 -244 l 99 -194 q 183 -210 138 -210 q 261 -184 231 -210 q 313 -120 292 -158 q 369 3 333 -82 l 83 658 l 124 658 l 389 46 l 668 658 l 707 658 l 414 13 q 343 -135 368 -90 q 280 -212 318 -181 q 186 -244 242 -244 z "},"ỷ":{"ha":763,"x_min":83,"x_max":707,"o":"m 372 829 q 456 843 428 832 q 494 873 485 854 q 504 922 504 892 q 476 985 504 964 q 383 1006 447 1006 q 333 1001 360 1006 q 288 989 306 996 l 288 1024 q 333 1035 303 1031 q 385 1040 363 1040 q 500 1010 461 1040 q 539 922 539 979 q 510 838 539 867 q 411 803 482 808 l 411 725 l 372 725 l 372 829 m 186 -244 q 99 -231 136 -244 l 99 -194 q 183 -210 138 -210 q 261 -184 231 -210 q 313 -120 292 -158 q 369 3 333 -82 l 83 658 l 124 658 l 389 46 l 668 658 l 707 658 l 414 13 q 343 -135 368 -90 q 280 -212 318 -181 q 186 -244 242 -244 z "},"ỹ":{"ha":763,"x_min":83,"x_max":707,"o":"m 482 767 q 440 773 460 767 q 389 793 421 779 q 314 817 339 817 q 257 806 282 817 q 210 769 232 796 l 210 813 q 252 841 225 831 q 310 851 279 851 q 351 845 332 851 q 400 825 369 839 q 441 808 424 814 q 478 801 458 801 q 532 812 510 801 q 572 849 554 822 l 572 806 q 482 767 544 767 m 186 -244 q 99 -231 136 -244 l 99 -194 q 183 -210 138 -210 q 261 -184 231 -210 q 313 -120 292 -158 q 369 3 333 -82 l 83 658 l 124 658 l 389 46 l 668 658 l 707 658 l 414 13 q 343 -135 368 -90 q 280 -212 318 -181 q 186 -244 242 -244 z "},"z":{"ha":658,"x_min":83,"x_max":575,"o":"m 83 32 l 525 622 l 104 622 l 104 658 l 567 658 l 567 625 l 126 36 l 575 36 l 575 0 l 83 0 l 83 32 z "},"ź":{"ha":658,"x_min":83,"x_max":575,"o":"m 422 932 l 464 932 l 367 725 l 335 725 l 422 932 m 83 32 l 525 622 l 104 622 l 104 658 l 567 658 l 567 625 l 126 36 l 575 36 l 575 0 l 83 0 l 83 32 z "},"ž":{"ha":658,"x_min":83,"x_max":575,"o":"m 179 894 l 219 894 l 332 750 l 444 894 l 485 894 l 353 725 l 311 725 l 179 894 m 83 32 l 525 622 l 104 622 l 104 658 l 567 658 l 567 625 l 126 36 l 575 36 l 575 0 l 83 0 l 83 32 z "},"ż":{"ha":658,"x_min":83,"x_max":575,"o":"m 329 815 l 378 815 l 378 767 l 329 767 l 329 815 m 83 32 l 525 622 l 104 622 l 104 658 l 567 658 l 567 625 l 126 36 l 575 36 l 575 0 l 83 0 l 83 32 z "},"ẓ":{"ha":658,"x_min":83,"x_max":575,"o":"m 83 32 l 525 622 l 104 622 l 104 658 l 567 658 l 567 625 l 126 36 l 575 36 l 575 0 l 83 0 l 83 32 m 328 -142 l 379 -142 l 379 -193 l 328 -193 l 328 -142 z "},"ﬁ":{"ha":660,"x_min":56,"x_max":549,"o":"m 160 622 l 56 622 l 56 658 l 160 658 l 160 775 q 217 920 160 868 q 368 972 274 972 q 504 950 457 972 l 504 914 q 450 931 485 925 q 379 938 415 938 q 243 898 288 938 q 199 778 199 858 l 199 658 l 549 658 l 549 0 l 510 0 l 510 622 l 199 622 l 199 0 l 160 0 l 160 622 z "},"ﬂ":{"ha":660,"x_min":56,"x_max":549,"o":"m 160 622 l 56 622 l 56 658 l 160 658 l 160 775 q 217 920 160 868 q 368 972 274 972 q 510 949 446 972 l 549 949 l 549 0 l 510 0 l 510 622 l 199 622 l 199 0 l 160 0 l 160 622 m 510 658 l 510 913 q 451 931 486 925 q 379 938 415 938 q 243 898 288 938 q 199 778 199 858 l 199 658 l 510 658 z "},"ª":{"ha":485,"x_min":83,"x_max":401,"o":"m 215 528 q 120 553 157 528 q 83 632 83 579 q 117 717 83 689 q 224 746 151 746 l 364 746 l 364 775 q 338 852 364 829 q 242 875 313 875 q 131 856 185 875 l 131 890 q 250 908 181 908 q 401 781 401 908 l 401 536 l 368 536 l 365 586 q 215 528 310 528 m 222 561 q 303 576 269 561 q 364 624 336 590 l 364 713 l 222 713 q 143 693 167 713 q 119 632 119 674 q 222 561 119 561 z "},"º":{"ha":503,"x_min":83,"x_max":419,"o":"m 251 528 q 83 718 83 528 q 126 860 83 811 q 251 908 168 908 q 377 860 335 908 q 419 718 419 811 q 251 528 419 528 m 251 563 q 353 601 322 563 q 383 718 383 639 q 353 835 383 797 q 251 874 322 874 q 149 835 181 874 q 118 718 118 796 q 149 601 118 639 q 251 563 179 563 z "},"ⁿ":{"ha":506,"x_min":90,"x_max":422,"o":"m 90 900 l 124 900 l 128 853 q 281 908 190 908 q 422 779 422 908 l 422 536 l 386 536 l 386 765 q 361 851 386 826 q 269 875 336 875 q 128 815 188 875 l 128 536 l 90 536 l 90 900 z "},"Δ":{"ha":913,"x_min":83,"x_max":829,"o":"m 83 31 l 424 894 l 488 894 l 829 29 l 829 0 l 83 0 l 83 31 m 783 35 l 454 872 l 125 35 l 783 35 z "},"Ω":{"ha":1075,"x_min":83,"x_max":992,"o":"m 93 35 l 361 35 q 160 226 236 108 q 83 501 83 344 q 139 736 83 631 q 298 903 194 842 q 538 965 401 965 q 777 903 674 965 q 936 736 881 842 q 992 501 992 631 q 915 226 992 344 q 714 35 839 108 l 982 35 l 982 0 l 647 0 l 647 32 q 877 231 800 113 q 954 501 954 350 q 901 722 954 624 q 753 875 847 819 q 538 931 658 931 q 322 875 417 931 q 174 722 228 819 q 121 501 121 624 q 198 231 121 350 q 428 32 275 113 l 428 0 l 93 0 l 93 35 z "},"μ":{"ha":768,"x_min":111,"x_max":657,"o":"m 111 658 l 150 658 l 150 242 q 375 21 150 21 q 618 129 513 21 l 618 658 l 657 658 l 657 0 l 625 0 l 618 86 q 502 10 561 35 q 354 -14 443 -14 q 230 13 283 -14 q 150 90 176 39 l 150 -199 l 111 -199 l 111 658 z "},"π":{"ha":900,"x_min":69,"x_max":831,"o":"m 740 -14 q 626 31 664 -14 q 588 158 588 75 l 588 622 l 207 622 l 207 0 l 168 0 l 168 622 l 69 622 l 69 658 l 725 658 l 725 622 l 626 622 l 626 158 q 654 54 626 88 q 753 21 682 21 q 831 36 786 21 l 831 0 q 740 -14 786 -14 z "},"ก":{"ha":824,"x_min":83,"x_max":713,"o":"m 138 371 q 168 460 138 422 q 254 513 199 497 l 83 547 l 83 636 q 219 728 133 692 q 414 764 304 764 q 640 696 568 764 q 713 503 713 628 l 713 0 l 674 0 l 674 507 q 609 677 674 625 q 413 729 544 729 q 244 699 322 729 q 122 622 165 669 l 122 574 l 293 539 l 293 493 q 208 449 239 481 q 176 367 176 417 l 176 0 l 138 0 l 138 371 z "},"ถ":{"ha":824,"x_min":83,"x_max":713,"o":"m 249 0 q 166 32 194 0 q 138 119 138 64 l 138 371 q 168 460 138 422 q 254 513 199 497 l 83 547 l 83 636 q 222 727 133 690 q 421 764 311 764 q 643 697 574 764 q 713 503 713 629 l 713 0 l 674 0 l 674 507 q 612 678 674 626 q 419 729 550 729 q 247 699 328 729 q 122 622 165 668 l 122 574 l 293 539 l 293 493 q 208 449 239 481 q 176 367 176 417 l 176 119 q 256 36 176 36 l 340 36 l 340 0 l 249 0 z "},"ภ":{"ha":883,"x_min":83,"x_max":772,"o":"m 83 36 l 147 36 q 219 119 219 36 l 219 371 q 314 513 219 485 l 143 547 l 143 636 q 282 727 193 690 q 481 764 371 764 q 703 697 633 764 q 772 503 772 629 l 772 0 l 733 0 l 733 507 q 672 678 733 626 q 479 729 610 729 q 306 699 388 729 q 182 622 225 668 l 182 574 l 353 539 l 353 493 q 279 450 300 478 q 258 367 258 422 l 258 119 q 232 32 258 64 q 154 0 206 0 l 83 0 l 83 36 z "},"ฤ":{"ha":831,"x_min":83,"x_max":719,"o":"m 681 507 q 616 677 681 625 q 419 729 551 729 q 247 699 328 729 q 122 622 165 668 l 122 574 l 293 539 l 293 493 q 208 449 239 481 q 176 367 176 417 l 176 119 q 256 36 176 36 l 340 36 l 340 0 l 249 0 q 166 32 194 0 q 138 119 138 64 l 138 371 q 168 460 138 422 q 254 513 199 497 l 83 547 l 83 636 q 222 727 133 690 q 421 764 311 764 q 647 696 575 764 q 719 503 719 628 l 719 -222 l 681 -222 l 681 507 z "},"ฦ":{"ha":890,"x_min":83,"x_max":779,"o":"m 740 507 q 676 677 740 625 q 479 729 611 729 q 306 699 388 729 q 182 622 225 668 l 182 574 l 353 539 l 353 493 q 279 450 300 478 q 258 367 258 422 l 258 119 q 232 32 258 64 q 154 0 206 0 l 83 0 l 83 36 l 147 36 q 219 119 219 36 l 219 371 q 314 513 219 485 l 143 547 l 143 636 q 282 727 193 690 q 481 764 371 764 q 707 696 635 764 q 779 503 779 628 l 779 -222 l 740 -222 l 740 507 z "},"ฎ":{"ha":890,"x_min":83,"x_max":779,"o":"m 269 -233 q 511 -176 383 -176 q 740 -233 644 -176 l 740 507 q 676 677 740 625 q 479 729 611 729 q 306 699 388 729 q 182 622 225 668 l 182 574 l 353 539 l 353 493 q 279 450 300 478 q 258 367 258 422 l 258 119 q 232 32 258 64 q 154 0 206 0 l 83 0 l 83 36 l 147 36 q 219 119 219 36 l 219 371 q 314 513 219 485 l 143 547 l 143 636 q 282 727 193 690 q 481 764 371 764 q 707 696 635 764 q 779 503 779 628 l 779 -269 l 743 -269 q 633 -225 686 -239 q 511 -211 581 -211 q 390 -224 443 -211 q 269 -269 336 -237 l 269 -233 z "},"ฏ":{"ha":890,"x_min":83,"x_max":779,"o":"m 628 -269 q 547 -253 582 -269 q 496 -211 513 -237 q 449 -253 482 -237 q 369 -268 417 -268 l 264 -268 l 269 -232 l 371 -232 q 439 -219 413 -232 q 488 -174 465 -207 l 503 -174 q 625 -235 546 -235 q 713 -206 686 -235 q 740 -110 740 -178 l 740 507 q 676 677 740 625 q 479 729 611 729 q 306 699 388 729 q 182 622 225 668 l 182 574 l 353 539 l 353 493 q 279 450 300 478 q 258 367 258 422 l 258 119 q 232 32 258 64 q 154 0 206 0 l 83 0 l 83 36 l 147 36 q 219 119 219 36 l 219 371 q 314 513 219 485 l 143 547 l 143 636 q 282 727 193 690 q 481 764 371 764 q 707 696 635 764 q 779 503 779 628 l 779 -111 q 740 -231 779 -192 q 628 -269 700 -269 z "},"ญ":{"ha":1331,"x_min":83,"x_max":1219,"o":"m 933 -69 q 676 -12 776 -69 l 676 25 q 795 -19 726 -4 q 933 -35 864 -35 q 1122 -4 1063 -35 q 1181 88 1181 26 q 1170 139 1181 119 q 1136 171 1160 158 q 1052 126 1100 140 q 933 111 1004 111 q 716 181 786 111 q 646 390 646 251 l 646 507 q 590 678 646 628 q 406 729 533 729 q 241 699 315 729 q 122 622 167 669 l 122 574 l 293 539 l 293 493 q 208 449 239 481 q 176 367 176 417 l 176 119 q 256 36 176 36 l 340 36 l 340 0 l 249 0 q 166 32 194 0 q 138 119 138 64 l 138 371 q 168 460 138 422 q 254 513 199 497 l 83 547 l 83 636 q 217 728 135 692 q 407 764 299 764 q 622 697 558 764 q 685 503 685 631 l 685 378 q 747 203 685 260 q 933 146 808 146 q 1119 203 1058 146 q 1181 378 1181 260 l 1181 750 l 1219 750 l 1219 390 q 1206 278 1219 322 q 1161 197 1192 233 q 1205 152 1190 181 q 1219 88 1219 124 q 933 -69 1219 -69 z "},"ข":{"ha":751,"x_min":83,"x_max":640,"o":"m 368 -14 q 167 49 238 -14 q 96 238 96 113 l 96 393 q 116 463 96 428 q 176 553 136 499 q 223 621 207 594 q 239 668 239 647 q 230 705 239 696 q 192 714 221 714 l 83 714 l 88 750 l 200 750 q 257 728 238 750 q 276 669 276 707 q 260 611 276 642 q 210 538 243 581 q 153 451 171 485 q 135 383 135 418 l 135 225 q 197 71 135 121 q 368 21 260 21 q 538 71 475 21 q 601 225 601 121 l 601 750 l 640 750 l 640 238 q 569 49 640 113 q 368 -14 499 -14 z "},"ฃ":{"ha":728,"x_min":83,"x_max":617,"o":"m 358 -14 q 100 238 100 -14 l 100 379 q 121 445 100 411 q 182 532 142 479 q 239 612 221 582 q 257 668 257 642 q 213 714 257 714 q 165 703 189 714 q 122 675 142 693 l 122 624 l 83 624 l 83 750 l 122 750 l 122 711 q 217 750 167 750 q 274 728 253 750 q 294 668 294 707 q 275 602 294 635 q 217 521 256 569 q 158 438 176 469 q 139 371 139 406 l 139 225 q 358 21 139 21 q 521 70 464 21 q 578 225 578 119 l 578 750 l 617 750 l 617 238 q 358 -14 617 -14 z "},"ช":{"ha":765,"x_min":83,"x_max":654,"o":"m 375 -14 q 169 50 243 -14 q 96 238 96 114 l 96 393 q 116 463 96 428 q 176 553 136 499 q 223 621 207 594 q 239 668 239 647 q 230 705 239 696 q 192 714 221 714 l 83 714 l 88 750 l 200 750 q 257 728 238 750 q 276 669 276 707 q 260 611 276 642 q 210 538 243 581 q 153 451 171 485 q 135 383 135 418 l 135 225 q 201 72 135 122 q 375 21 267 21 q 551 71 488 21 q 615 225 615 121 l 615 328 q 601 436 615 397 q 553 492 586 475 q 460 508 519 508 l 422 508 l 426 544 l 464 544 q 584 587 553 544 q 615 721 615 629 l 615 764 l 654 764 l 654 721 q 632 592 654 639 q 544 526 610 544 q 617 485 593 513 q 647 422 640 458 q 654 329 654 386 l 654 238 q 581 50 654 114 q 375 -14 507 -14 z "},"ซ":{"ha":756,"x_min":83,"x_max":644,"o":"m 372 -14 q 171 49 242 -14 q 100 238 100 113 l 100 379 q 121 445 100 411 q 182 532 142 479 q 239 612 221 582 q 257 668 257 642 q 213 714 257 714 q 165 703 189 714 q 122 675 142 693 l 122 624 l 83 624 l 83 750 l 122 750 l 122 711 q 217 750 167 750 q 274 728 253 750 q 294 668 294 707 q 275 602 294 635 q 217 521 256 569 q 158 438 176 469 q 139 371 139 406 l 139 225 q 201 71 139 121 q 372 21 264 21 q 544 71 483 21 q 606 225 606 121 l 606 328 q 591 436 606 397 q 543 492 576 475 q 450 508 510 508 l 413 508 l 417 544 l 454 544 q 574 587 543 544 q 606 721 606 629 l 606 764 l 644 764 l 644 721 q 622 592 644 639 q 535 526 600 544 q 607 485 583 513 q 638 422 631 458 q 644 329 644 386 l 644 238 q 574 49 644 113 q 372 -14 503 -14 z "},"ค":{"ha":810,"x_min":111,"x_max":699,"o":"m 111 508 q 183 701 111 638 q 406 764 256 764 q 626 701 554 764 q 699 508 699 638 l 699 0 l 660 0 l 660 518 q 596 678 660 626 q 406 729 532 729 q 214 678 278 729 q 150 518 150 628 l 150 307 q 342 375 242 375 l 436 375 l 440 339 l 342 339 q 244 322 289 339 q 150 269 199 304 l 150 0 l 111 0 l 111 508 z "},"ฅ":{"ha":810,"x_min":111,"x_max":699,"o":"m 111 594 q 155 720 111 676 q 269 764 199 764 q 404 693 358 764 q 468 747 428 729 q 554 764 508 764 q 661 721 624 764 q 699 594 699 678 l 699 0 l 660 0 l 660 594 q 634 697 660 664 q 546 729 608 729 q 472 710 507 729 q 415 656 438 692 l 393 656 q 342 711 369 693 q 278 729 315 729 q 150 594 150 729 l 150 307 q 342 375 242 375 l 436 375 l 440 339 l 342 339 q 244 322 289 339 q 150 269 199 304 l 150 0 l 111 0 l 111 594 z "},"ศ":{"ha":836,"x_min":111,"x_max":767,"o":"m 111 508 q 183 701 111 638 q 406 764 256 764 q 528 750 469 764 l 767 750 l 764 714 l 607 714 q 699 508 699 654 l 699 0 l 660 0 l 660 518 q 596 678 660 626 q 406 729 532 729 q 213 680 276 729 q 150 518 150 631 l 150 307 q 342 375 242 375 l 436 375 l 440 339 l 342 339 q 244 322 289 339 q 150 269 199 304 l 150 0 l 111 0 l 111 508 z "},"ด":{"ha":860,"x_min":83,"x_max":749,"o":"m 364 -14 q 156 83 228 -14 q 83 378 83 179 q 170 663 83 561 q 440 764 257 764 q 672 684 596 764 q 749 479 749 604 l 749 0 l 710 0 l 710 489 q 643 662 710 594 q 439 729 576 729 q 197 635 272 729 q 121 378 121 542 q 185 106 121 192 q 375 21 250 21 q 469 32 435 21 l 469 -4 q 364 -14 429 -14 z "},"ต":{"ha":860,"x_min":83,"x_max":749,"o":"m 364 -14 q 156 83 228 -14 q 83 378 83 179 q 135 665 83 565 q 290 764 186 764 q 374 748 340 764 q 443 693 407 732 q 604 764 510 764 q 749 608 749 764 l 749 0 l 710 0 l 710 608 q 683 702 710 675 q 596 729 657 729 q 517 710 556 729 q 454 656 479 692 l 432 656 q 369 712 400 694 q 294 729 339 729 q 121 378 121 729 q 187 106 121 190 q 375 21 253 21 q 469 32 435 21 l 469 -4 q 364 -14 429 -14 z "},"ท":{"ha":797,"x_min":111,"x_max":686,"o":"m 111 750 l 143 750 l 150 643 q 277 733 211 703 q 440 764 343 764 q 624 698 561 764 q 686 500 686 632 l 686 0 l 647 0 l 647 508 q 594 675 647 621 q 428 729 540 729 q 277 696 343 729 q 150 600 211 663 l 150 0 l 111 0 l 111 750 z "},"ฑ":{"ha":786,"x_min":83,"x_max":675,"o":"m 128 365 q 144 436 128 400 q 196 529 161 472 q 241 608 225 576 q 257 668 257 640 q 213 714 257 714 q 165 703 189 714 q 122 675 142 693 l 122 624 l 83 624 l 83 750 l 122 750 l 122 711 q 217 750 167 750 q 288 706 269 750 q 465 764 369 764 q 628 703 582 764 q 675 506 675 642 l 675 0 l 636 0 l 636 514 q 622 639 636 593 q 567 707 607 685 q 453 729 528 729 q 367 713 410 729 q 294 668 325 697 q 278 601 294 636 q 231 515 263 565 q 183 426 199 460 q 167 357 167 392 l 167 0 l 128 0 l 128 365 z "},"น":{"ha":797,"x_min":111,"x_max":686,"o":"m 350 -14 q 111 250 111 -14 l 111 750 l 150 750 l 150 242 q 201 76 150 131 q 363 21 251 21 q 647 150 521 21 l 647 750 l 686 750 l 686 0 l 654 0 l 647 107 q 517 17 588 49 q 350 -14 446 -14 z "},"ม":{"ha":797,"x_min":111,"x_max":686,"o":"m 440 -14 q 277 17 343 -14 q 150 107 211 47 l 143 0 l 111 0 l 111 750 l 150 750 l 150 150 q 277 54 211 88 q 428 21 343 21 q 594 75 540 21 q 647 242 647 129 l 647 750 l 686 750 l 686 250 q 624 52 686 118 q 440 -14 561 -14 z "},"ฌ":{"ha":1311,"x_min":83,"x_max":1200,"o":"m 968 -14 q 815 16 876 -14 q 692 107 753 46 l 685 0 l 653 0 l 653 507 q 594 678 653 626 q 406 729 535 729 q 241 699 315 729 q 122 622 167 669 l 122 574 l 293 539 l 293 493 q 208 449 239 481 q 176 367 176 417 l 176 119 q 256 36 176 36 l 340 36 l 340 0 l 249 0 q 166 32 194 0 q 138 119 138 64 l 138 371 q 168 460 138 422 q 254 513 199 497 l 83 547 l 83 636 q 217 728 135 692 q 407 764 299 764 q 625 697 558 764 q 692 503 692 631 l 692 150 q 815 54 754 88 q 956 21 876 21 q 1112 75 1063 21 q 1161 242 1161 129 l 1161 750 l 1200 750 l 1200 250 q 968 -14 1200 -14 z "},"ณ":{"ha":1311,"x_min":83,"x_max":1200,"o":"m 878 -14 q 708 51 764 -14 q 653 250 653 117 l 653 507 q 594 678 653 626 q 406 729 535 729 q 241 699 315 729 q 122 622 167 669 l 122 574 l 293 539 l 293 493 q 208 449 239 481 q 176 367 176 417 l 176 119 q 256 36 176 36 l 340 36 l 340 0 l 249 0 q 166 32 194 0 q 138 119 138 64 l 138 371 q 168 460 138 422 q 254 513 199 497 l 83 547 l 83 636 q 217 728 135 692 q 407 764 299 764 q 625 697 558 764 q 692 503 692 631 l 692 242 q 738 75 692 129 q 890 21 785 21 q 1035 55 969 21 q 1161 150 1101 89 l 1161 750 l 1200 750 l 1200 0 l 1168 0 l 1161 107 q 1035 17 1101 49 q 878 -14 968 -14 z "},"ฒ":{"ha":1340,"x_min":83,"x_max":1229,"o":"m 364 -14 q 156 83 228 -14 q 83 378 83 179 q 133 664 83 564 q 283 764 183 764 q 362 749 332 764 q 429 693 392 733 q 583 764 496 764 q 684 726 647 764 q 721 608 721 689 l 721 150 q 844 54 783 88 q 985 21 906 21 q 1141 75 1092 21 q 1190 242 1190 129 l 1190 750 l 1229 750 l 1229 250 q 997 -14 1229 -14 q 844 16 906 -14 q 721 107 782 46 l 714 0 l 682 0 l 682 608 q 657 702 682 675 q 575 729 632 729 q 501 710 536 729 q 440 656 465 692 l 418 656 q 358 713 386 696 q 288 729 331 729 q 160 635 200 729 q 121 378 121 542 q 187 106 121 190 q 375 21 253 21 q 469 32 435 21 l 469 -4 q 364 -14 429 -14 z "},"ฆ":{"ha":786,"x_min":83,"x_max":675,"o":"m 429 -14 q 266 17 332 -14 q 139 107 200 47 l 132 0 l 100 0 l 100 365 q 121 433 100 397 q 182 526 142 469 q 239 610 221 579 q 257 668 257 642 q 213 714 257 714 q 165 703 189 714 q 122 675 142 693 l 122 624 l 83 624 l 83 750 l 122 750 l 122 711 q 217 750 167 750 q 274 728 253 750 q 294 668 294 707 q 276 601 294 635 q 217 514 257 568 q 158 426 178 461 q 139 357 139 392 l 139 150 q 266 54 200 88 q 417 21 332 21 q 583 75 529 21 q 636 242 636 129 l 636 750 l 675 750 l 675 250 q 613 52 675 118 q 429 -14 550 -14 z "},"ธ":{"ha":708,"x_min":83,"x_max":625,"o":"m 361 -14 q 219 0 288 -14 q 97 35 150 14 l 97 324 l 136 324 l 136 58 q 357 21 249 21 q 529 63 471 21 q 588 199 588 106 q 560 319 588 278 q 488 378 532 360 q 351 417 443 396 q 310 426 324 422 q 191 457 236 442 q 115 507 146 472 q 83 601 83 542 q 156 728 83 692 q 367 764 229 764 q 490 753 424 764 q 599 728 557 743 l 599 692 q 491 719 553 710 q 372 729 429 729 q 184 702 247 729 q 121 601 121 675 q 146 528 121 554 q 212 488 171 501 q 338 454 253 474 l 375 446 q 510 406 461 426 q 592 336 560 385 q 625 199 625 288 q 361 -14 625 -14 z "},"ร":{"ha":694,"x_min":83,"x_max":611,"o":"m 333 -14 q 107 19 189 -14 l 107 56 q 329 21 201 21 q 511 56 449 21 q 574 182 574 92 q 549 267 574 235 q 485 316 524 299 q 374 357 446 333 l 338 368 q 247 397 325 372 q 126 469 169 422 q 83 583 83 517 q 150 720 83 676 q 351 764 217 764 q 556 731 463 764 l 556 694 q 357 729 464 729 q 176 697 231 729 q 121 583 121 664 q 149 499 121 532 q 226 445 178 467 q 361 397 275 424 q 492 351 444 372 q 576 289 540 329 q 611 183 611 249 q 538 31 611 75 q 333 -14 464 -14 z "},"จ":{"ha":753,"x_min":83,"x_max":669,"o":"m 363 -14 q 294 -4 318 -14 l 161 353 l 83 353 l 86 389 l 188 389 l 325 21 q 364 18 350 18 q 496 57 435 18 q 594 179 557 96 q 632 386 632 263 q 603 583 632 508 q 508 693 575 657 q 325 729 440 729 q 92 694 194 729 l 92 731 q 336 764 190 764 q 591 669 513 764 q 669 386 669 575 q 631 167 669 257 q 522 31 592 76 q 363 -14 453 -14 z "},"ว":{"ha":661,"x_min":83,"x_max":578,"o":"m 264 -14 q 83 19 161 -14 l 83 56 q 254 21 167 21 q 431 59 369 21 q 517 173 493 97 q 540 375 540 249 q 472 643 540 557 q 246 729 404 729 q 162 721 200 729 q 83 694 124 713 l 83 731 q 156 756 119 749 q 250 764 193 764 q 499 668 421 764 q 578 375 578 572 q 551 161 578 246 q 455 31 524 76 q 264 -14 386 -14 z "},"ง":{"ha":754,"x_min":83,"x_max":671,"o":"m 383 -14 q 294 -4 317 -14 l 83 511 l 124 511 l 325 21 q 367 18 353 18 q 565 116 497 18 q 633 403 633 214 q 613 584 633 518 q 544 681 593 650 q 407 713 494 713 l 367 713 l 367 750 l 406 750 q 565 713 507 750 q 647 601 622 676 q 671 404 671 526 q 592 89 671 192 q 383 -14 513 -14 z "},"ฐ":{"ha":796,"x_min":83,"x_max":713,"o":"m 363 -14 q 294 -4 318 -14 l 161 353 l 83 353 l 86 389 l 188 389 l 325 21 q 364 18 350 18 q 496 57 435 18 q 594 179 557 96 q 632 386 632 263 q 603 581 632 507 q 508 692 575 656 q 325 729 440 729 q 92 694 194 729 l 92 731 q 336 764 190 764 q 454 750 396 764 l 713 750 l 710 714 l 538 714 q 639 590 608 671 q 669 386 669 508 q 631 167 669 257 q 522 31 592 76 q 363 -14 453 -14 m 481 -269 q 400 -253 435 -269 q 349 -211 365 -237 q 302 -253 335 -237 q 222 -268 269 -268 l 117 -268 l 122 -232 l 224 -232 q 292 -219 265 -232 q 340 -174 318 -207 l 356 -174 q 478 -235 399 -235 q 568 -206 543 -235 q 593 -107 593 -176 l 593 -78 l 632 -78 l 632 -107 q 594 -231 632 -193 q 481 -269 557 -269 z "},"ฉ":{"ha":769,"x_min":83,"x_max":658,"o":"m 328 -14 q 151 51 208 -14 q 93 250 93 117 l 93 417 l 132 417 l 132 242 q 181 75 132 129 q 340 21 229 21 q 492 55 425 21 q 619 150 558 89 l 619 507 q 555 678 619 626 q 344 729 490 729 q 210 718 283 729 q 83 689 138 707 l 83 725 q 209 753 133 742 q 356 764 285 764 q 583 701 507 764 q 658 507 658 639 l 658 0 l 626 0 l 619 107 q 492 17 560 49 q 328 -14 424 -14 z "},"ล":{"ha":792,"x_min":83,"x_max":681,"o":"m 321 -14 q 147 39 211 -14 q 83 197 83 92 q 361 414 83 414 l 642 414 l 642 504 q 620 635 642 588 q 545 706 599 683 q 396 729 492 729 q 163 694 265 729 l 163 731 q 407 764 261 764 q 617 703 554 764 q 681 507 681 643 l 681 0 l 642 0 l 642 378 l 364 378 q 179 333 238 378 q 121 197 121 289 q 332 21 121 21 q 426 32 392 21 l 426 -4 q 321 -14 386 -14 z "},"ส":{"ha":813,"x_min":83,"x_max":743,"o":"m 321 -14 q 147 39 211 -14 q 83 197 83 92 q 361 414 83 414 l 642 414 l 642 504 q 620 635 642 588 q 545 706 599 683 q 396 729 492 729 q 163 694 265 729 l 163 731 q 407 764 261 764 q 529 750 482 764 l 743 750 l 740 714 l 603 714 q 663 633 644 683 q 681 507 681 582 l 681 0 l 642 0 l 642 378 l 364 378 q 179 333 238 378 q 121 197 121 289 q 332 21 121 21 q 426 32 392 21 l 426 -4 q 321 -14 386 -14 z "},"บ":{"ha":824,"x_min":111,"x_max":713,"o":"m 413 -14 q 111 265 111 -14 l 111 750 l 150 750 l 150 253 q 217 78 150 136 q 413 21 285 21 q 606 78 539 21 q 674 253 674 136 l 674 750 l 713 750 l 713 265 q 413 -14 713 -14 z "},"ป":{"ha":824,"x_min":111,"x_max":713,"o":"m 413 -14 q 111 265 111 -14 l 111 750 l 150 750 l 150 253 q 217 78 150 136 q 413 21 285 21 q 606 78 539 21 q 674 253 674 136 l 674 972 l 713 972 l 713 265 q 413 -14 713 -14 z "},"ษ":{"ha":856,"x_min":111,"x_max":807,"o":"m 413 -14 q 111 265 111 -14 l 111 750 l 150 750 l 150 253 q 217 78 150 136 q 413 21 285 21 q 606 78 539 21 q 674 253 674 136 l 674 403 l 436 403 l 436 439 l 674 439 l 674 750 l 713 750 l 713 439 l 807 439 l 801 403 l 713 403 l 713 265 q 413 -14 713 -14 z "},"ย":{"ha":786,"x_min":83,"x_max":675,"o":"m 385 -14 q 159 43 235 -14 q 83 200 83 100 q 119 326 83 278 q 217 393 154 375 q 124 449 160 406 q 89 568 89 493 q 142 715 89 665 q 283 764 196 764 q 386 753 339 764 l 386 717 q 292 729 347 729 q 169 692 213 729 q 126 568 126 654 q 169 452 126 492 q 313 413 213 413 l 394 413 l 400 376 l 307 376 q 169 331 218 376 q 121 200 121 285 q 189 67 121 114 q 385 21 257 21 q 636 233 636 21 l 636 750 l 675 750 l 675 229 q 601 49 675 111 q 385 -14 528 -14 z "},"ผ":{"ha":878,"x_min":111,"x_max":767,"o":"m 111 631 q 140 718 111 686 q 222 750 168 750 l 314 750 l 314 714 l 229 714 q 150 631 150 714 l 150 46 l 421 521 l 458 521 l 728 46 l 728 750 l 767 750 l 767 0 l 714 0 l 440 483 l 164 0 l 111 0 l 111 631 z "},"ฝ":{"ha":878,"x_min":111,"x_max":767,"o":"m 111 631 q 140 718 111 686 q 222 750 168 750 l 314 750 l 314 714 l 229 714 q 150 631 150 714 l 150 46 l 421 521 l 458 521 l 728 46 l 728 972 l 767 972 l 767 0 l 714 0 l 440 483 l 164 0 l 111 0 l 111 631 z "},"ฟ":{"ha":963,"x_min":69,"x_max":940,"o":"m 69 750 l 110 750 l 265 39 l 467 682 l 467 750 l 494 750 l 700 39 l 901 972 l 940 972 l 728 0 l 675 0 l 490 640 l 290 0 l 238 0 l 69 750 z "},"พ":{"ha":964,"x_min":69,"x_max":894,"o":"m 69 750 l 110 750 l 265 39 l 467 682 l 467 750 l 494 750 l 700 39 l 856 750 l 894 750 l 728 0 l 675 0 l 490 640 l 290 0 l 238 0 l 69 750 z "},"ห":{"ha":797,"x_min":111,"x_max":697,"o":"m 111 750 l 150 750 l 150 488 l 461 488 q 613 531 568 488 q 658 664 658 575 l 658 750 l 697 750 l 697 664 q 567 469 697 501 q 663 401 640 449 q 686 268 686 353 l 686 0 l 647 0 l 647 271 q 629 381 647 342 q 570 435 611 419 q 453 451 529 451 l 150 451 l 150 0 l 111 0 l 111 750 z "},"ฬ":{"ha":963,"x_min":69,"x_max":940,"o":"m 69 750 l 110 750 l 265 39 l 467 626 l 467 694 l 494 694 l 700 39 l 829 639 q 838 700 838 676 q 818 752 838 738 q 754 767 799 767 l 700 767 l 704 803 l 756 803 q 848 826 819 803 q 888 906 876 849 l 901 972 l 940 972 l 925 904 q 888 817 913 844 q 824 783 863 790 q 875 696 875 763 q 868 640 875 675 l 728 0 l 676 0 l 490 586 l 289 0 l 238 0 l 69 750 z "},"อ":{"ha":749,"x_min":83,"x_max":665,"o":"m 347 -14 q 205 0 274 -14 q 83 35 136 14 l 83 394 l 314 394 l 318 358 l 122 358 l 122 58 q 340 21 235 21 q 507 56 444 21 q 599 169 569 92 q 628 375 628 247 q 599 582 628 506 q 506 694 571 658 q 328 729 442 729 q 94 694 197 729 l 94 731 q 339 764 193 764 q 591 671 517 764 q 665 375 665 578 q 591 81 665 176 q 347 -14 517 -14 z "},"ฮ":{"ha":793,"x_min":83,"x_max":710,"o":"m 347 -14 q 205 0 274 -14 q 83 35 136 14 l 83 394 l 314 394 l 318 358 l 122 358 l 122 58 q 340 21 235 21 q 507 56 444 21 q 599 169 569 92 q 628 375 628 247 q 599 581 628 504 q 506 694 571 658 q 328 729 442 729 q 94 694 197 729 l 94 731 q 339 764 193 764 q 461 750 411 764 l 710 750 l 707 714 l 542 714 q 635 586 606 669 q 665 375 665 503 q 591 81 665 176 q 347 -14 517 -14 z "},"า":{"ha":600,"x_min":42,"x_max":489,"o":"m 449 508 q 431 635 449 588 q 367 706 414 682 q 235 729 321 729 q 138 720 190 729 q 42 694 85 711 l 42 731 q 135 755 82 746 q 242 764 189 764 q 430 705 371 764 q 489 508 489 646 l 489 0 l 449 0 l 449 508 z "},"ำ":{"ha":600,"x_min":-258,"x_max":489,"o":"m -136 858 q -223 894 -187 858 q -258 981 -258 929 q -223 1067 -258 1032 q -136 1103 -187 1103 q -49 1067 -85 1103 q -14 981 -14 1032 q -49 894 -14 929 q -136 858 -85 858 m -136 893 q -74 919 -100 893 q -49 981 -49 944 q -74 1042 -49 1017 q -136 1068 -100 1068 q -198 1042 -172 1068 q -224 981 -224 1017 q -198 919 -224 944 q -136 893 -172 893 m 449 508 q 431 635 449 588 q 367 706 414 682 q 235 729 321 729 q 138 720 190 729 q 42 694 85 711 l 42 731 q 135 755 82 746 q 242 764 189 764 q 430 705 371 764 q 489 508 489 646 l 489 0 l 449 0 l 449 508 z "},"ๅ":{"ha":600,"x_min":42,"x_max":489,"o":"m 449 508 q 431 635 449 588 q 367 706 414 682 q 235 729 321 729 q 138 720 190 729 q 42 694 85 711 l 42 731 q 135 755 82 746 q 242 764 189 764 q 430 705 371 764 q 489 508 489 646 l 489 -222 l 449 -222 l 449 508 z "},"ะ":{"ha":443,"x_min":83,"x_max":360,"o":"m 83 604 l 122 604 l 122 535 l 360 535 l 357 499 l 83 499 l 83 604 m 83 208 l 122 208 l 122 139 l 360 139 l 357 103 l 83 103 l 83 208 z "},"เ":{"ha":369,"x_min":111,"x_max":286,"o":"m 222 0 q 140 32 168 0 q 111 119 111 64 l 111 750 l 150 750 l 150 119 q 229 36 150 36 l 286 36 l 286 0 l 222 0 z "},"แ":{"ha":650,"x_min":111,"x_max":567,"o":"m 222 0 q 140 32 168 0 q 111 119 111 64 l 111 750 l 150 750 l 150 119 q 229 36 150 36 l 286 36 l 286 0 l 222 0 m 503 0 q 420 32 449 0 q 392 119 392 64 l 392 750 l 431 750 l 431 119 q 510 36 431 36 l 567 36 l 567 0 l 503 0 z "},"ไ":{"ha":383,"x_min":21,"x_max":342,"o":"m 250 0 q 167 32 196 0 q 139 119 139 64 l 139 657 q 179 820 139 753 q 289 928 219 888 l 21 928 l 21 964 l 342 964 l 342 921 q 219 817 260 882 q 178 656 178 753 l 178 119 q 257 36 178 36 l 314 36 l 314 0 l 250 0 z "},"ใ":{"ha":374,"x_min":14,"x_max":332,"o":"m 206 0 q 123 32 151 0 q 94 119 94 64 l 94 499 q 112 595 94 554 q 153 663 129 636 q 217 721 178 689 q 276 778 257 754 q 294 835 294 801 q 267 911 294 889 q 174 933 239 933 q 14 889 93 933 l 14 925 q 175 968 85 968 q 294 935 257 968 q 332 835 332 901 q 311 767 332 794 q 246 701 290 739 q 187 646 208 669 q 149 587 165 622 q 133 503 133 551 l 133 119 q 213 36 133 36 l 269 36 l 269 0 l 206 0 z "},"โ":{"ha":394,"x_min":21,"x_max":353,"o":"m 289 0 q 206 32 235 0 q 178 119 178 64 l 178 692 q 161 799 178 758 q 112 865 144 839 q 21 919 79 890 l 21 964 l 349 964 l 349 928 l 74 928 q 183 839 149 892 q 217 688 217 786 l 217 119 q 296 36 217 36 l 353 36 l 353 0 l 289 0 z "},"ℊ":{"ha":769,"x_min":83,"x_max":658,"o":"m 367 -244 q 284 -240 331 -244 q 214 -231 238 -236 l 214 -194 q 357 -210 263 -210 q 548 -160 476 -210 q 619 -19 619 -110 l 619 75 q 516 17 569 35 q 385 0 463 0 q 162 75 240 0 q 83 322 83 150 q 159 585 83 499 q 376 672 235 672 q 513 650 454 672 q 621 579 572 628 l 626 658 l 658 658 l 658 -19 q 618 -139 658 -87 q 511 -217 578 -190 q 367 -244 444 -244 m 394 35 q 519 55 465 35 q 619 115 574 75 l 619 539 q 513 614 571 590 q 383 638 456 638 q 184 558 247 638 q 121 322 121 478 q 188 101 121 167 q 394 35 254 35 z "},"⁄":{"ha":140,"x_min":-167,"x_max":307,"o":"m 269 919 l 307 919 l -129 0 l -167 0 l 269 919 z "},"½":{"ha":835,"x_min":83,"x_max":751,"o":"m 192 876 l 83 851 l 83 881 l 224 908 l 224 514 l 192 514 l 192 876 m 628 894 l 665 894 l 186 0 l 149 0 l 628 894 m 513 28 q 552 91 528 65 q 631 161 576 117 q 699 226 683 204 q 714 285 714 249 q 625 364 714 364 q 528 349 574 364 l 528 379 q 574 390 544 385 q 625 394 603 394 q 715 365 683 394 q 747 285 747 335 q 726 215 747 243 q 651 142 706 186 q 618 115 644 136 q 574 73 592 93 q 547 31 557 53 l 751 31 l 751 0 l 513 0 l 513 28 z "},"⅓":{"ha":856,"x_min":83,"x_max":772,"o":"m 192 876 l 83 851 l 83 881 l 224 908 l 224 514 l 192 514 l 192 876 m 628 894 l 665 894 l 186 0 l 149 0 l 628 894 m 624 -14 q 572 -10 597 -14 q 531 1 546 -6 l 531 32 q 624 17 576 17 q 712 36 686 17 q 738 100 738 56 q 711 158 738 140 q 629 176 685 176 l 585 176 l 592 207 l 624 207 q 704 226 679 207 q 729 289 729 244 q 706 344 729 328 q 626 361 683 361 q 538 347 583 361 l 538 378 q 578 388 553 383 q 626 392 604 392 q 731 365 700 392 q 763 289 763 339 q 745 228 763 254 q 690 192 728 201 q 772 100 772 176 q 624 -14 772 -14 z "},"⅔":{"ha":879,"x_min":83,"x_max":796,"o":"m 83 542 q 123 605 99 579 q 201 675 147 631 q 269 740 254 718 q 285 799 285 763 q 196 878 285 878 q 99 863 144 878 l 99 893 q 144 903 115 899 q 196 908 174 908 q 286 878 254 908 q 318 799 318 849 q 297 728 318 757 q 222 656 276 700 q 189 628 215 650 q 145 587 163 607 q 118 544 128 567 l 322 544 l 322 514 l 83 514 l 83 542 m 651 894 l 689 894 l 210 0 l 172 0 l 651 894 m 647 -14 q 595 -10 621 -14 q 554 1 569 -6 l 554 32 q 647 17 600 17 q 735 36 710 17 q 761 100 761 56 q 735 158 761 140 q 653 176 708 176 l 608 176 l 615 207 l 647 207 q 728 226 703 207 q 753 289 753 244 q 730 344 753 328 q 650 361 707 361 q 561 347 607 361 l 561 378 q 602 388 576 383 q 650 392 628 392 q 755 365 724 392 q 786 289 786 339 q 769 228 786 254 q 714 192 751 201 q 796 100 796 176 q 647 -14 796 -14 z "},"¼":{"ha":835,"x_min":83,"x_max":751,"o":"m 192 876 l 83 851 l 83 881 l 224 908 l 224 514 l 192 514 l 192 876 m 628 894 l 665 894 l 186 0 l 149 0 l 628 894 m 676 93 l 454 93 l 454 126 l 663 394 l 708 394 l 708 124 l 751 124 l 751 93 l 708 93 l 708 0 l 676 0 l 676 93 m 679 124 l 679 374 l 485 124 l 679 124 z "},"¾":{"ha":860,"x_min":83,"x_max":776,"o":"m 176 503 q 124 507 150 503 q 83 518 99 511 l 83 549 q 176 533 129 533 q 265 553 239 533 q 290 617 290 572 q 264 675 290 657 q 182 693 238 693 l 138 693 l 144 724 l 176 724 q 257 742 232 724 q 282 806 282 761 q 259 861 282 844 q 179 878 236 878 q 90 864 136 878 l 90 894 q 131 904 106 900 q 179 908 157 908 q 284 882 253 908 q 315 806 315 856 q 298 744 315 771 q 243 708 281 718 q 325 617 325 693 q 176 503 325 503 m 653 894 l 690 894 l 211 0 l 174 0 l 653 894 m 701 93 l 479 93 l 479 126 l 688 394 l 733 394 l 733 124 l 776 124 l 776 93 l 733 93 l 733 0 l 701 0 l 701 93 m 704 124 l 704 374 l 510 124 l 704 124 z "},"⅛":{"ha":863,"x_min":83,"x_max":779,"o":"m 192 876 l 83 851 l 83 881 l 224 908 l 224 514 l 192 514 l 192 876 m 628 894 l 665 894 l 186 0 l 149 0 l 628 894 m 638 -14 q 534 13 572 -14 q 496 90 496 40 q 521 159 496 131 q 589 192 546 188 q 527 226 547 200 q 507 288 507 251 q 541 364 507 336 q 638 392 575 392 q 735 364 701 392 q 768 288 768 336 q 748 226 768 251 q 686 192 728 200 q 754 159 729 188 q 779 90 779 131 q 741 13 779 40 q 638 -14 703 -14 m 638 211 q 735 288 735 211 q 710 342 735 322 q 638 361 686 361 q 565 342 589 361 q 540 288 540 322 q 638 211 540 211 m 638 17 q 717 35 689 17 q 744 90 744 54 q 716 151 744 131 q 638 172 688 172 q 559 151 588 172 q 531 90 531 131 q 558 35 531 54 q 638 17 586 17 z "},"⅜":{"ha":865,"x_min":83,"x_max":782,"o":"m 176 503 q 124 507 150 503 q 83 518 99 511 l 83 549 q 176 533 129 533 q 265 553 239 533 q 290 617 290 572 q 264 675 290 657 q 182 693 238 693 l 138 693 l 144 724 l 176 724 q 257 742 232 724 q 282 806 282 761 q 259 861 282 844 q 179 878 236 878 q 90 864 136 878 l 90 894 q 131 904 106 900 q 179 908 157 908 q 284 882 253 908 q 315 806 315 856 q 298 744 315 771 q 243 708 281 718 q 325 617 325 693 q 176 503 325 503 m 631 894 l 668 894 l 189 0 l 151 0 l 631 894 m 640 -14 q 537 13 575 -14 q 499 90 499 40 q 524 159 499 131 q 592 192 549 188 q 530 226 550 200 q 510 288 510 251 q 544 364 510 336 q 640 392 578 392 q 738 364 704 392 q 771 288 771 336 q 751 226 771 251 q 689 192 731 200 q 757 159 732 188 q 782 90 782 131 q 744 13 782 40 q 640 -14 706 -14 m 640 211 q 738 288 738 211 q 713 342 738 322 q 640 361 689 361 q 567 342 592 361 q 543 288 543 322 q 640 211 543 211 m 640 17 q 719 35 692 17 q 747 90 747 54 q 719 151 747 131 q 640 172 690 172 q 562 151 590 172 q 533 90 533 131 q 561 35 533 54 q 640 17 589 17 z "},"⅝":{"ha":836,"x_min":83,"x_max":753,"o":"m 176 503 q 83 517 118 503 l 83 549 q 178 533 124 533 q 267 553 238 533 q 296 621 296 572 q 274 684 296 667 q 193 701 251 701 l 83 701 l 83 739 l 93 894 l 300 894 l 294 864 l 121 864 l 113 732 l 196 732 q 299 705 268 732 q 331 621 331 678 q 292 533 331 564 q 176 503 253 503 m 601 894 l 639 894 l 160 0 l 122 0 l 601 894 m 611 -14 q 508 13 546 -14 q 469 90 469 40 q 494 159 469 131 q 563 192 519 188 q 501 226 521 200 q 481 288 481 251 q 515 364 481 336 q 611 392 549 392 q 708 364 675 392 q 742 288 742 336 q 722 226 742 251 q 660 192 701 200 q 728 159 703 188 q 753 90 753 131 q 715 13 753 40 q 611 -14 676 -14 m 611 211 q 708 288 708 211 q 684 342 708 322 q 611 361 660 361 q 538 342 563 361 q 514 288 514 322 q 611 211 514 211 m 611 17 q 690 35 663 17 q 718 90 718 54 q 690 151 718 131 q 611 172 661 172 q 533 151 561 172 q 504 90 504 131 q 532 35 504 54 q 611 17 560 17 z "}}}
